MFEM mesh v1.0

#
# MFEM Geometry Types (see fem/geom.hpp):
#
# POINT       = 0
# SEGMENT     = 1
# TRIANGLE    = 2
# SQUARE      = 3
# TETRAHEDRON = 4
# CUBE        = 5
# PRISM       = 6
# PYRAMID     = 7
#

dimension
2

elements
384
1 3 3 98 290 101
1 3 98 26 99 290
1 3 290 99 74 100
1 3 101 290 100 29
1 3 26 102 291 99
1 3 102 8 103 291
1 3 291 103 27 104
1 3 99 291 104 74
1 3 74 104 292 107
1 3 104 27 105 292
1 3 292 105 20 106
1 3 107 292 106 28
1 3 29 100 293 109
1 3 100 74 107 293
1 3 293 107 28 108
1 3 109 293 108 11
1 3 8 110 294 103
1 3 110 30 111 294
1 3 294 111 75 112
1 3 103 294 112 27
1 3 30 113 295 111
1 3 113 2 114 295
1 3 295 114 31 115
1 3 111 295 115 75
1 3 75 115 296 118
1 3 115 31 116 296
1 3 296 116 9 117
1 3 118 296 117 32
1 3 27 112 297 105
1 3 112 75 118 297
1 3 297 118 32 119
1 3 105 297 119 20
1 3 20 119 298 122
1 3 119 32 120 298
1 3 298 120 76 121
1 3 122 298 121 35
1 3 32 117 299 120
1 3 117 9 123 299
1 3 299 123 33 124
1 3 120 299 124 76
1 3 76 124 300 127
1 3 124 33 125 300
1 3 300 125 1 126
1 3 127 300 126 34
1 3 35 121 301 129
1 3 121 76 127 301
1 3 301 127 34 128
1 3 129 301 128 10
1 3 11 108 302 132
1 3 108 28 130 302
1 3 302 130 77 131
1 3 132 302 131 37
1 3 28 106 303 130
1 3 106 20 122 303
1 3 303 122 35 133
1 3 130 303 133 77
1 3 77 133 304 135
1 3 133 35 129 304
1 3 304 129 10 134
1 3 135 304 134 36
1 3 37 131 305 137
1 3 131 77 135 305
1 3 305 135 36 136
1 3 137 305 136 0
2 3 0 136 306 140
2 3 136 36 138 306
2 3 306 138 78 139
2 3 140 306 139 40
2 3 36 134 307 138
2 3 134 10 141 307
2 3 307 141 38 142
2 3 138 307 142 78
2 3 78 142 308 145
2 3 142 38 143 308
2 3 308 143 21 144
2 3 145 308 144 39
2 3 40 139 309 147
2 3 139 78 145 309
2 3 309 145 39 146
2 3 147 309 146 14
2 3 10 128 310 141
2 3 128 34 148 310
2 3 310 148 79 149
2 3 141 310 149 38
2 3 34 126 311 148
2 3 126 1 150 311
2 3 311 150 41 151
2 3 148 311 151 79
2 3 79 151 312 154
2 3 151 41 152 312
2 3 312 152 12 153
2 3 154 312 153 42
2 3 38 149 313 143
2 3 149 79 154 313
2 3 313 154 42 155
2 3 143 313 155 21
2 3 21 155 314 158
2 3 155 42 156 314
2 3 314 156 80 157
2 3 158 314 157 45
2 3 42 153 315 156
2 3 153 12 159 315
2 3 315 159 43 160
2 3 156 315 160 80
2 3 80 160 316 163
2 3 160 43 161 316
2 3 316 161 5 162
2 3 163 316 162 44
2 3 45 157 317 165
2 3 157 80 163 317
2 3 317 163 44 164
2 3 165 317 164 13
2 3 14 146 318 168
2 3 146 39 166 318
2 3 318 166 81 167
2 3 168 318 167 47
2 3 39 144 319 166
2 3 144 21 158 319
2 3 319 158 45 169
2 3 166 319 169 81
2 3 81 169 320 171
2 3 169 45 165 320
2 3 320 165 13 170
2 3 171 320 170 46
2 3 47 167 321 173
2 3 167 81 171 321
2 3 321 171 46 172
2 3 173 321 172 4
3 3 1 125 322 150
3 3 125 33 174 322
3 3 322 174 82 175
3 3 150 322 175 41
3 3 33 123 323 174
3 3 123 9 176 323
3 3 323 176 48 177
3 3 174 323 177 82
3 3 82 177 324 180
3 3 177 48 178 324
3 3 324 178 22 179
3 3 180 324 179 49
3 3 41 175 325 152
3 3 175 82 180 325
3 3 325 180 49 181
3 3 152 325 181 12
3 3 9 116 326 176
3 3 116 31 182 326
3 3 326 182 83 183
3 3 176 326 183 48
3 3 31 114 327 182
3 3 114 2 184 327
3 3 327 184 50 185
3 3 182 327 185 83
3 3 83 185 328 188
3 3 185 50 186 328
3 3 328 186 15 187
3 3 188 328 187 51
3 3 48 183 329 178
3 3 183 83 188 329
3 3 329 188 51 189
3 3 178 329 189 22
3 3 22 189 330 192
3 3 189 51 190 330
3 3 330 190 84 191
3 3 192 330 191 54
3 3 51 187 331 190
3 3 187 15 193 331
3 3 331 193 52 194
3 3 190 331 194 84
3 3 84 194 332 197
3 3 194 52 195 332
3 3 332 195 6 196
3 3 197 332 196 53
3 3 54 191 333 199
3 3 191 84 197 333
3 3 333 197 53 198
3 3 199 333 198 16
3 3 12 181 334 159
3 3 181 49 200 334
3 3 334 200 85 201
3 3 159 334 201 43
3 3 49 179 335 200
3 3 179 22 192 335
3 3 335 192 54 202
3 3 200 335 202 85
3 3 85 202 336 204
3 3 202 54 199 336
3 3 336 199 16 203
3 3 204 336 203 55
3 3 43 201 337 161
3 3 201 85 204 337
3 3 337 204 55 205
3 3 161 337 205 5
4 3 2 113 338 184
4 3 113 30 206 338
4 3 338 206 86 207
4 3 184 338 207 50
4 3 30 110 339 206
4 3 110 8 208 339
4 3 339 208 56 209
4 3 206 339 209 86
4 3 86 209 340 212
4 3 209 56 210 340
4 3 340 210 23 211
4 3 212 340 211 57
4 3 50 207 341 186
4 3 207 86 212 341
4 3 341 212 57 213
4 3 186 341 213 15
4 3 8 102 342 208
4 3 102 26 214 342
4 3 342 214 87 215
4 3 208 342 215 56
4 3 26 98 343 214
4 3 98 3 216 343
4 3 343 216 58 217
4 3 214 343 217 87
4 3 87 217 344 220
4 3 217 58 218 344
4 3 344 218 17 219
4 3 220 344 219 59
4 3 56 215 345 210
4 3 215 87 220 345
4 3 345 220 59 221
4 3 210 345 221 23
4 3 23 221 346 224
4 3 221 59 222 346
4 3 346 222 88 223
4 3 224 346 223 62
4 3 59 219 347 222
4 3 219 17 225 347
4 3 347 225 60 226
4 3 222 347 226 88
4 3 88 226 348 229
4 3 226 60 227 348
4 3 348 227 7 228
4 3 229 348 228 61
4 3 62 223 349 231
4 3 223 88 229 349
4 3 349 229 61 230
4 3 231 349 230 18
4 3 15 213 350 193
4 3 213 57 232 350
4 3 350 232 89 233
4 3 193 350 233 52
4 3 57 211 351 232
4 3 211 23 224 351
4 3 351 224 62 234
4 3 232 351 234 89
4 3 89 234 352 236
4 3 234 62 231 352
4 3 352 231 18 235
4 3 236 352 235 63
4 3 52 233 353 195
4 3 233 89 236 353
4 3 353 236 63 237
4 3 195 353 237 6
5 3 3 101 354 216
5 3 101 29 238 354
5 3 354 238 90 239
5 3 216 354 239 58
5 3 29 109 355 238
5 3 109 11 240 355
5 3 355 240 64 241
5 3 238 355 241 90
5 3 90 241 356 244
5 3 241 64 242 356
5 3 356 242 24 243
5 3 244 356 243 65
5 3 58 239 357 218
5 3 239 90 244 357
5 3 357 244 65 245
5 3 218 357 245 17
5 3 11 132 358 240
5 3 132 37 246 358
5 3 358 246 91 247
5 3 240 358 247 64
5 3 37 137 359 246
5 3 137 0 140 359
5 3 359 140 40 248
5 3 246 359 248 91
5 3 91 248 360 250
5 3 248 40 147 360
5 3 360 147 14 249
5 3 250 360 249 66
5 3 64 247 361 242
5 3 247 91 250 361
5 3 361 250 66 251
5 3 242 361 251 24
5 3 24 251 362 254
5 3 251 66 252 362
5 3 362 252 92 253
5 3 254 362 253 68
5 3 66 249 363 252
5 3 249 14 168 363
5 3 363 168 47 255
5 3 252 363 255 92
5 3 92 255 364 257
5 3 255 47 173 364
5 3 364 173 4 256
5 3 257 364 256 67
5 3 68 253 365 259
5 3 253 92 257 365
5 3 365 257 67 258
5 3 259 365 258 19
5 3 17 245 366 225
5 3 245 65 260 366
5 3 366 260 93 261
5 3 225 366 261 60
5 3 65 243 367 260
5 3 243 24 254 367
5 3 367 254 68 262
5 3 260 367 262 93
5 3 93 262 368 264
5 3 262 68 259 368
5 3 368 259 19 263
5 3 264 368 263 69
5 3 60 261 369 227
5 3 261 93 264 369
5 3 369 264 69 265
5 3 227 369 265 7
6 3 4 172 370 256
6 3 172 46 266 370
6 3 370 266 94 267
6 3 256 370 267 67
6 3 46 170 371 266
6 3 170 13 268 371
6 3 371 268 70 269
6 3 266 371 269 94
6 3 94 269 372 272
6 3 269 70 270 372
6 3 372 270 25 271
6 3 272 372 271 71
6 3 67 267 373 258
6 3 267 94 272 373
6 3 373 272 71 273
6 3 258 373 273 19
6 3 13 164 374 268
6 3 164 44 274 374
6 3 374 274 95 275
6 3 268 374 275 70
6 3 44 162 375 274
6 3 162 5 205 375
6 3 375 205 55 276
6 3 274 375 276 95
6 3 95 276 376 278
6 3 276 55 203 376
6 3 376 203 16 277
6 3 278 376 277 72
6 3 70 275 377 270
6 3 275 95 278 377
6 3 377 278 72 279
6 3 270 377 279 25
6 3 25 279 378 282
6 3 279 72 280 378
6 3 378 280 96 281
6 3 282 378 281 73
6 3 72 277 379 280
6 3 277 16 198 379
6 3 379 198 53 283
6 3 280 379 283 96
6 3 96 283 380 284
6 3 283 53 196 380
6 3 380 196 6 237
6 3 284 380 237 63
6 3 73 281 381 285
6 3 281 96 284 381
6 3 381 284 63 235
6 3 285 381 235 18
6 3 19 273 382 263
6 3 273 71 286 382
6 3 382 286 97 287
6 3 263 382 287 69
6 3 71 271 383 286
6 3 271 25 282 383
6 3 383 282 73 288
6 3 286 383 288 97
6 3 97 288 384 289
6 3 288 73 285 384
6 3 384 285 18 230
6 3 289 384 230 61
6 3 69 287 385 265
6 3 287 97 289 385
6 3 385 289 61 228
6 3 265 385 228 7

boundary
0

vertices
386

nodes
FiniteElementSpace
FiniteElementCollection: H1_2D_P2
VDim: 3
Ordering: 1

-0.57735026918962584 -0.57735026918962584 -0.57735026918962584
0.57735026918962584 -0.57735026918962584 -0.57735026918962584
0.57735026918962584 0.57735026918962584 -0.57735026918962584
-0.57735026918962584 0.57735026918962584 -0.57735026918962584
-0.57735026918962584 -0.57735026918962584 0.57735026918962584
0.57735026918962584 -0.57735026918962584 0.57735026918962584
0.57735026918962584 0.57735026918962584 0.57735026918962584
-0.57735026918962584 0.57735026918962584 0.57735026918962584
0 0.70710678118654746 -0.70710678118654746
0.70710678118654746 0 -0.70710678118654746
0 -0.70710678118654746 -0.70710678118654746
-0.70710678118654746 0 -0.70710678118654746
0.70710678118654746 -0.70710678118654746 0
0 -0.70710678118654746 0.70710678118654746
-0.70710678118654746 -0.70710678118654746 0
0.70710678118654746 0.70710678118654746 0
0.70710678118654746 0 0.70710678118654746
-0.70710678118654746 0.70710678118654746 0
0 0.70710678118654746 0.70710678118654746
-0.70710678118654746 0 0.70710678118654746
0 0 -1
0 -1 0
1 0 0
0 1 0
-1 0 0
0 0 1
-0.33333333333333331 0.66666666666666663 -0.66666666666666663
0 0.44721359549995793 -0.89442719099991586
-0.44721359549995793 0 -0.89442719099991586
-0.66666666666666663 0.33333333333333331 -0.66666666666666663
0.33333333333333331 0.66666666666666663 -0.66666666666666663
0.66666666666666663 0.33333333333333331 -0.66666666666666663
0.44721359549995793 0 -0.89442719099991586
0.66666666666666663 -0.33333333333333331 -0.66666666666666663
0.33333333333333331 -0.66666666666666663 -0.66666666666666663
0 -0.44721359549995793 -0.89442719099991586
-0.33333333333333331 -0.66666666666666663 -0.66666666666666663
-0.66666666666666663 -0.33333333333333331 -0.66666666666666663
0 -0.89442719099991586 -0.44721359549995793
-0.44721359549995793 -0.89442719099991586 0
-0.66666666666666663 -0.66666666666666663 -0.33333333333333331
0.66666666666666663 -0.66666666666666663 -0.33333333333333331
0.44721359549995793 -0.89442719099991586 0
0.66666666666666663 -0.66666666666666663 0.33333333333333331
0.33333333333333331 -0.66666666666666663 0.66666666666666663
0 -0.89442719099991586 0.44721359549995793
-0.33333333333333331 -0.66666666666666663 0.66666666666666663
-0.66666666666666663 -0.66666666666666663 0.33333333333333331
0.89442719099991586 0 -0.44721359549995793
0.89442719099991586 -0.44721359549995793 0
0.66666666666666663 0.66666666666666663 -0.33333333333333331
0.89442719099991586 0.44721359549995793 0
0.66666666666666663 0.66666666666666663 0.33333333333333331
0.66666666666666663 0.33333333333333331 0.66666666666666663
0.89442719099991586 0 0.44721359549995793
0.66666666666666663 -0.33333333333333331 0.66666666666666663
0 0.89442719099991586 -0.44721359549995793
0.44721359549995793 0.89442719099991586 0
-0.66666666666666663 0.66666666666666663 -0.33333333333333331
-0.44721359549995793 0.89442719099991586 0
-0.66666666666666663 0.66666666666666663 0.33333333333333331
-0.33333333333333331 0.66666666666666663 0.66666666666666663
0 0.89442719099991586 0.44721359549995793
0.33333333333333331 0.66666666666666663 0.66666666666666663
-0.89442719099991586 0 -0.44721359549995793
-0.89442719099991586 0.44721359549995793 0
-0.89442719099991586 -0.44721359549995793 0
-0.66666666666666663 -0.33333333333333331 0.66666666666666663
-0.89442719099991586 0 0.44721359549995793
-0.66666666666666663 0.33333333333333331 0.66666666666666663
0 -0.44721359549995793 0.89442719099991586
-0.44721359549995793 0 0.89442719099991586
0.44721359549995793 0 0.89442719099991586
0 0.44721359549995793 0.89442719099991586
-0.40824829046386307 0.40824829046386307 -0.81649658092772615
0.40824829046386307 0.40824829046386307 -0.81649658092772615
0.40824829046386307 -0.40824829046386307 -0.81649658092772615
-0.40824829046386307 -0.40824829046386307 -0.81649658092772615
-0.40824829046386307 -0.81649658092772615 -0.40824829046386307
0.40824829046386307 -0.81649658092772615 -0.40824829046386307
0.40824829046386307 -0.81649658092772615 0.40824829046386307
-0.40824829046386307 -0.81649658092772615 0.40824829046386307
0.81649658092772615 -0.40824829046386307 -0.40824829046386307
0.81649658092772615 0.40824829046386307 -0.40824829046386307
0.81649658092772615 0.40824829046386307 0.40824829046386307
0.81649658092772615 -0.40824829046386307 0.40824829046386307
0.40824829046386307 0.81649658092772615 -0.40824829046386307
-0.40824829046386307 0.81649658092772615 -0.40824829046386307
-0.40824829046386307 0.81649658092772615 0.40824829046386307
0.40824829046386307 0.81649658092772615 0.40824829046386307
-0.81649658092772615 0.40824829046386307 -0.40824829046386307
-0.81649658092772615 -0.40824829046386307 -0.40824829046386307
-0.81649658092772615 -0.40824829046386307 0.40824829046386307
-0.81649658092772615 0.40824829046386307 0.40824829046386307
-0.40824829046386307 -0.40824829046386307 0.81649658092772615
0.40824829046386307 -0.40824829046386307 0.81649658092772615
0.40824829046386307 0.40824829046386307 0.81649658092772615
-0.40824829046386307 0.40824829046386307 0.81649658092772615
-0.46852128566581819 0.62469504755442429 -0.62469504755442429
-0.37139067635410372 0.55708601453115558 -0.74278135270820744
-0.55708601453115558 0.37139067635410372 -0.74278135270820744
-0.62469504755442429 0.46852128566581819 -0.62469504755442429
-0.17407765595569785 0.69631062382279141 -0.69631062382279141
0 0.59999999999999998 -0.80000000000000004
-0.21821789023599239 0.43643578047198478 -0.87287156094396956
0 0.24253562503633297 -0.97014250014533188
-0.24253562503633297 0 -0.97014250014533188
-0.43643578047198478 0.21821789023599239 -0.87287156094396956
-0.59999999999999998 0 -0.80000000000000004
-0.69631062382279141 0.17407765595569785 -0.69631062382279141
0.17407765595569785 0.69631062382279141 -0.69631062382279141
0.37139067635410372 0.55708601453115558 -0.74278135270820744
0.21821789023599239 0.43643578047198478 -0.87287156094396956
0.46852128566581819 0.62469504755442429 -0.62469504755442429
0.62469504755442429 0.46852128566581819 -0.62469504755442429
0.55708601453115558 0.37139067635410372 -0.74278135270820744
0.69631062382279141 0.17407765595569785 -0.69631062382279141
0.59999999999999998 0 -0.80000000000000004
0.43643578047198478 0.21821789023599239 -0.87287156094396956
0.24253562503633297 0 -0.97014250014533188
0.43643578047198478 -0.21821789023599239 -0.87287156094396956
0.21821789023599239 -0.43643578047198478 -0.87287156094396956
0 -0.24253562503633297 -0.97014250014533188
0.69631062382279141 -0.17407765595569785 -0.69631062382279141
0.55708601453115558 -0.37139067635410372 -0.74278135270820744
0.62469504755442429 -0.46852128566581819 -0.62469504755442429
0.46852128566581819 -0.62469504755442429 -0.62469504755442429
0.37139067635410372 -0.55708601453115558 -0.74278135270820744
0.17407765595569785 -0.69631062382279141 -0.69631062382279141
0 -0.59999999999999998 -0.80000000000000004
-0.43643578047198478 -0.21821789023599239 -0.87287156094396956
-0.55708601453115558 -0.37139067635410372 -0.74278135270820744
-0.69631062382279141 -0.17407765595569785 -0.69631062382279141
-0.21821789023599239 -0.43643578047198478 -0.87287156094396956
-0.17407765595569785 -0.69631062382279141 -0.69631062382279141
-0.37139067635410372 -0.55708601453115558 -0.74278135270820744
-0.46852128566581819 -0.62469504755442429 -0.62469504755442429
-0.62469504755442429 -0.46852128566581819 -0.62469504755442429
-0.37139067635410372 -0.74278135270820744 -0.55708601453115558
-0.55708601453115558 -0.74278135270820744 -0.37139067635410372
-0.62469504755442429 -0.62469504755442429 -0.46852128566581819
0 -0.80000000000000004 -0.59999999999999998
-0.21821789023599239 -0.87287156094396956 -0.43643578047198478
0 -0.97014250014533188 -0.24253562503633297
-0.24253562503633297 -0.97014250014533188 0
-0.43643578047198478 -0.87287156094396956 -0.21821789023599239
-0.59999999999999998 -0.80000000000000004 0
-0.69631062382279141 -0.69631062382279141 -0.17407765595569785
0.37139067635410372 -0.74278135270820744 -0.55708601453115558
0.21821789023599239 -0.87287156094396956 -0.43643578047198478
0.62469504755442429 -0.62469504755442429 -0.46852128566581819
0.55708601453115558 -0.74278135270820744 -0.37139067635410372
0.69631062382279141 -0.69631062382279141 -0.17407765595569785
0.59999999999999998 -0.80000000000000004 0
0.43643578047198478 -0.87287156094396956 -0.21821789023599239
0.24253562503633297 -0.97014250014533188 0
0.43643578047198478 -0.87287156094396956 0.21821789023599239
0.21821789023599239 -0.87287156094396956 0.43643578047198478
0 -0.97014250014533188 0.24253562503633297
0.69631062382279141 -0.69631062382279141 0.17407765595569785
0.55708601453115558 -0.74278135270820744 0.37139067635410372
0.62469504755442429 -0.62469504755442429 0.46852128566581819
0.46852128566581819 -0.62469504755442429 0.62469504755442429
0.37139067635410372 -0.74278135270820744 0.55708601453115558
0.17407765595569785 -0.69631062382279141 0.69631062382279141
0 -0.80000000000000004 0.59999999999999998
-0.43643578047198478 -0.87287156094396956 0.21821789023599239
-0.55708601453115558 -0.74278135270820744 0.37139067635410372
-0.69631062382279141 -0.69631062382279141 0.17407765595569785
-0.21821789023599239 -0.87287156094396956 0.43643578047198478
-0.17407765595569785 -0.69631062382279141 0.69631062382279141
-0.37139067635410372 -0.74278135270820744 0.55708601453115558
-0.46852128566581819 -0.62469504755442429 0.62469504755442429
-0.62469504755442429 -0.62469504755442429 0.46852128566581819
0.74278135270820744 -0.37139067635410372 -0.55708601453115558
0.74278135270820744 -0.55708601453115558 -0.37139067635410372
0.80000000000000004 0 -0.59999999999999998
0.87287156094396956 -0.21821789023599239 -0.43643578047198478
0.97014250014533188 0 -0.24253562503633297
0.97014250014533188 -0.24253562503633297 0
0.87287156094396956 -0.43643578047198478 -0.21821789023599239
0.80000000000000004 -0.59999999999999998 0
0.74278135270820744 0.37139067635410372 -0.55708601453115558
0.87287156094396956 0.21821789023599239 -0.43643578047198478
0.62469504755442429 0.62469504755442429 -0.46852128566581819
0.74278135270820744 0.55708601453115558 -0.37139067635410372
0.69631062382279141 0.69631062382279141 -0.17407765595569785
0.80000000000000004 0.59999999999999998 0
0.87287156094396956 0.43643578047198478 -0.21821789023599239
0.97014250014533188 0.24253562503633297 0
0.87287156094396956 0.43643578047198478 0.21821789023599239
0.87287156094396956 0.21821789023599239 0.43643578047198478
0.97014250014533188 0 0.24253562503633297
0.69631062382279141 0.69631062382279141 0.17407765595569785
0.74278135270820744 0.55708601453115558 0.37139067635410372
0.62469504755442429 0.62469504755442429 0.46852128566581819
0.62469504755442429 0.46852128566581819 0.62469504755442429
0.74278135270820744 0.37139067635410372 0.55708601453115558
0.69631062382279141 0.17407765595569785 0.69631062382279141
0.80000000000000004 0 0.59999999999999998
0.87287156094396956 -0.43643578047198478 0.21821789023599239
0.74278135270820744 -0.55708601453115558 0.37139067635410372
0.87287156094396956 -0.21821789023599239 0.43643578047198478
0.69631062382279141 -0.17407765595569785 0.69631062382279141
0.74278135270820744 -0.37139067635410372 0.55708601453115558
0.62469504755442429 -0.46852128566581819 0.62469504755442429
0.37139067635410372 0.74278135270820744 -0.55708601453115558
0.55708601453115558 0.74278135270820744 -0.37139067635410372
0 0.80000000000000004 -0.59999999999999998
0.21821789023599239 0.87287156094396956 -0.43643578047198478
0 0.97014250014533188 -0.24253562503633297
0.24253562503633297 0.97014250014533188 0
0.43643578047198478 0.87287156094396956 -0.21821789023599239
0.59999999999999998 0.80000000000000004 0
-0.37139067635410372 0.74278135270820744 -0.55708601453115558
-0.21821789023599239 0.87287156094396956 -0.43643578047198478
-0.62469504755442429 0.62469504755442429 -0.46852128566581819
-0.55708601453115558 0.74278135270820744 -0.37139067635410372
-0.69631062382279141 0.69631062382279141 -0.17407765595569785
-0.59999999999999998 0.80000000000000004 0
-0.43643578047198478 0.87287156094396956 -0.21821789023599239
-0.24253562503633297 0.97014250014533188 0
-0.43643578047198478 0.87287156094396956 0.21821789023599239
-0.21821789023599239 0.87287156094396956 0.43643578047198478
0 0.97014250014533188 0.24253562503633297
-0.69631062382279141 0.69631062382279141 0.17407765595569785
-0.55708601453115558 0.74278135270820744 0.37139067635410372
-0.62469504755442429 0.62469504755442429 0.46852128566581819
-0.46852128566581819 0.62469504755442429 0.62469504755442429
-0.37139067635410372 0.74278135270820744 0.55708601453115558
-0.17407765595569785 0.69631062382279141 0.69631062382279141
0 0.80000000000000004 0.59999999999999998
0.43643578047198478 0.87287156094396956 0.21821789023599239
0.55708601453115558 0.74278135270820744 0.37139067635410372
0.21821789023599239 0.87287156094396956 0.43643578047198478
0.17407765595569785 0.69631062382279141 0.69631062382279141
0.37139067635410372 0.74278135270820744 0.55708601453115558
0.46852128566581819 0.62469504755442429 0.62469504755442429
-0.74278135270820744 0.37139067635410372 -0.55708601453115558
-0.74278135270820744 0.55708601453115558 -0.37139067635410372
-0.80000000000000004 0 -0.59999999999999998
-0.87287156094396956 0.21821789023599239 -0.43643578047198478
-0.97014250014533188 0 -0.24253562503633297
-0.97014250014533188 0.24253562503633297 0
-0.87287156094396956 0.43643578047198478 -0.21821789023599239
-0.80000000000000004 0.59999999999999998 0
-0.74278135270820744 -0.37139067635410372 -0.55708601453115558
-0.87287156094396956 -0.21821789023599239 -0.43643578047198478
-0.74278135270820744 -0.55708601453115558 -0.37139067635410372
-0.80000000000000004 -0.59999999999999998 0
-0.87287156094396956 -0.43643578047198478 -0.21821789023599239
-0.97014250014533188 -0.24253562503633297 0
-0.87287156094396956 -0.43643578047198478 0.21821789023599239
-0.87287156094396956 -0.21821789023599239 0.43643578047198478
-0.97014250014533188 0 0.24253562503633297
-0.74278135270820744 -0.55708601453115558 0.37139067635410372
-0.62469504755442429 -0.46852128566581819 0.62469504755442429
-0.74278135270820744 -0.37139067635410372 0.55708601453115558
-0.69631062382279141 -0.17407765595569785 0.69631062382279141
-0.80000000000000004 0 0.59999999999999998
-0.87287156094396956 0.43643578047198478 0.21821789023599239
-0.74278135270820744 0.55708601453115558 0.37139067635410372
-0.87287156094396956 0.21821789023599239 0.43643578047198478
-0.69631062382279141 0.17407765595569785 0.69631062382279141
-0.74278135270820744 0.37139067635410372 0.55708601453115558
-0.62469504755442429 0.46852128566581819 0.62469504755442429
-0.37139067635410372 -0.55708601453115558 0.74278135270820744
-0.55708601453115558 -0.37139067635410372 0.74278135270820744
0 -0.59999999999999998 0.80000000000000004
-0.21821789023599239 -0.43643578047198478 0.87287156094396956
0 -0.24253562503633297 0.97014250014533188
-0.24253562503633297 0 0.97014250014533188
-0.43643578047198478 -0.21821789023599239 0.87287156094396956
-0.59999999999999998 0 0.80000000000000004
0.37139067635410372 -0.55708601453115558 0.74278135270820744
0.21821789023599239 -0.43643578047198478 0.87287156094396956
0.55708601453115558 -0.37139067635410372 0.74278135270820744
0.59999999999999998 0 0.80000000000000004
0.43643578047198478 -0.21821789023599239 0.87287156094396956
0.24253562503633297 0 0.97014250014533188
0.43643578047198478 0.21821789023599239 0.87287156094396956
0.21821789023599239 0.43643578047198478 0.87287156094396956
0 0.24253562503633297 0.97014250014533188
0.55708601453115558 0.37139067635410372 0.74278135270820744
0.37139067635410372 0.55708601453115558 0.74278135270820744
0 0.59999999999999998 0.80000000000000004
-0.43643578047198478 0.21821789023599239 0.87287156094396956
-0.55708601453115558 0.37139067635410372 0.74278135270820744
-0.21821789023599239 0.43643578047198478 0.87287156094396956
-0.37139067635410372 0.55708601453115558 0.74278135270820744
-0.51449575542752646 0.51449575542752646 -0.68599434057003528
-0.19611613513818404 0.58834840541455213 -0.78446454055273618
-0.23570226039551587 0.23570226039551587 -0.94280904158206347
-0.58834840541455213 0.19611613513818404 -0.78446454055273618
0.19611613513818404 0.58834840541455213 -0.78446454055273618
0.51449575542752646 0.51449575542752646 -0.68599434057003528
0.58834840541455213 0.19611613513818404 -0.78446454055273618
0.23570226039551587 0.23570226039551587 -0.94280904158206347
0.23570226039551587 -0.23570226039551587 -0.94280904158206347
0.58834840541455213 -0.19611613513818404 -0.78446454055273618
0.51449575542752646 -0.51449575542752646 -0.68599434057003528
0.19611613513818404 -0.58834840541455213 -0.78446454055273618
-0.58834840541455213 -0.19611613513818404 -0.78446454055273618
-0.23570226039551587 -0.23570226039551587 -0.94280904158206347
-0.19611613513818404 -0.58834840541455213 -0.78446454055273618
-0.51449575542752646 -0.51449575542752646 -0.68599434057003528
-0.51449575542752646 -0.68599434057003528 -0.51449575542752646
-0.19611613513818404 -0.78446454055273618 -0.58834840541455213
-0.23570226039551587 -0.94280904158206347 -0.23570226039551587
-0.58834840541455213 -0.78446454055273618 -0.19611613513818404
0.19611613513818404 -0.78446454055273618 -0.58834840541455213
0.51449575542752646 -0.68599434057003528 -0.51449575542752646
0.58834840541455213 -0.78446454055273618 -0.19611613513818404
0.23570226039551587 -0.94280904158206347 -0.23570226039551587
0.23570226039551587 -0.94280904158206347 0.23570226039551587
0.58834840541455213 -0.78446454055273618 0.19611613513818404
0.51449575542752646 -0.68599434057003528 0.51449575542752646
0.19611613513818404 -0.78446454055273618 0.58834840541455213
-0.58834840541455213 -0.78446454055273618 0.19611613513818404
-0.23570226039551587 -0.94280904158206347 0.23570226039551587
-0.19611613513818404 -0.78446454055273618 0.58834840541455213
-0.51449575542752646 -0.68599434057003528 0.51449575542752646
0.68599434057003528 -0.51449575542752646 -0.51449575542752646
0.78446454055273618 -0.19611613513818404 -0.58834840541455213
0.94280904158206347 -0.23570226039551587 -0.23570226039551587
0.78446454055273618 -0.58834840541455213 -0.19611613513818404
0.78446454055273618 0.19611613513818404 -0.58834840541455213
0.68599434057003528 0.51449575542752646 -0.51449575542752646
0.78446454055273618 0.58834840541455213 -0.19611613513818404
0.94280904158206347 0.23570226039551587 -0.23570226039551587
0.94280904158206347 0.23570226039551587 0.23570226039551587
0.78446454055273618 0.58834840541455213 0.19611613513818404
0.68599434057003528 0.51449575542752646 0.51449575542752646
0.78446454055273618 0.19611613513818404 0.58834840541455213
0.78446454055273618 -0.58834840541455213 0.19611613513818404
0.94280904158206347 -0.23570226039551587 0.23570226039551587
0.78446454055273618 -0.19611613513818404 0.58834840541455213
0.68599434057003528 -0.51449575542752646 0.51449575542752646
0.51449575542752646 0.68599434057003528 -0.51449575542752646
0.19611613513818404 0.78446454055273618 -0.58834840541455213
0.23570226039551587 0.94280904158206347 -0.23570226039551587
0.58834840541455213 0.78446454055273618 -0.19611613513818404
-0.19611613513818404 0.78446454055273618 -0.58834840541455213
-0.51449575542752646 0.68599434057003528 -0.51449575542752646
-0.58834840541455213 0.78446454055273618 -0.19611613513818404
-0.23570226039551587 0.94280904158206347 -0.23570226039551587
-0.23570226039551587 0.94280904158206347 0.23570226039551587
-0.58834840541455213 0.78446454055273618 0.19611613513818404
-0.51449575542752646 0.68599434057003528 0.51449575542752646
-0.19611613513818404 0.78446454055273618 0.58834840541455213
0.58834840541455213 0.78446454055273618 0.19611613513818404
0.23570226039551587 0.94280904158206347 0.23570226039551587
0.19611613513818404 0.78446454055273618 0.58834840541455213
0.51449575542752646 0.68599434057003528 0.51449575542752646
-0.68599434057003528 0.51449575542752646 -0.51449575542752646
-0.78446454055273618 0.19611613513818404 -0.58834840541455213
-0.94280904158206347 0.23570226039551587 -0.23570226039551587
-0.78446454055273618 0.58834840541455213 -0.19611613513818404
-0.78446454055273618 -0.19611613513818404 -0.58834840541455213
-0.68599434057003528 -0.51449575542752646 -0.51449575542752646
-0.78446454055273618 -0.58834840541455213 -0.19611613513818404
-0.94280904158206347 -0.23570226039551587 -0.23570226039551587
-0.94280904158206347 -0.23570226039551587 0.23570226039551587
-0.78446454055273618 -0.58834840541455213 0.19611613513818404
-0.68599434057003528 -0.51449575542752646 0.51449575542752646
-0.78446454055273618 -0.19611613513818404 0.58834840541455213
-0.78446454055273618 0.58834840541455213 0.19611613513818404
-0.94280904158206347 0.23570226039551587 0.23570226039551587
-0.78446454055273618 0.19611613513818404 0.58834840541455213
-0.68599434057003528 0.51449575542752646 0.51449575542752646
-0.51449575542752646 -0.51449575542752646 0.68599434057003528
-0.19611613513818404 -0.58834840541455213 0.78446454055273618
-0.23570226039551587 -0.23570226039551587 0.94280904158206347
-0.58834840541455213 -0.19611613513818404 0.78446454055273618
0.19611613513818404 -0.58834840541455213 0.78446454055273618
0.51449575542752646 -0.51449575542752646 0.68599434057003528
0.58834840541455213 -0.19611613513818404 0.78446454055273618
0.23570226039551587 -0.23570226039551587 0.94280904158206347
0.23570226039551587 0.23570226039551587 0.94280904158206347
0.58834840541455213 0.19611613513818404 0.78446454055273618
0.51449575542752646 0.51449575542752646 0.68599434057003528
0.19611613513818404 0.58834840541455213 0.78446454055273618
-0.58834840541455213 0.19611613513818404 0.78446454055273618
-0.23570226039551587 0.23570226039551587 0.94280904158206347
-0.19611613513818404 0.58834840541455213 0.78446454055273618
-0.51449575542752646 0.51449575542752646 0.68599434057003528
-0.52615221960198022 0.60131682240226314 -0.60131682240226314
-0.49153915231142431 0.57346234436332832 -0.65538553641523245
-0.57346234436332832 0.49153915231142431 -0.65538553641523245
-0.60131682240226314 0.52615221960198022 -0.60131682240226314
-0.40422604172722165 0.64676166676355462 -0.64676166676355462
-0.35218036253024954 0.61631563442793669 -0.70436072506049907
-0.44721359549995793 0.53665631459994945 -0.71554175279993271
-0.39036002917941331 0.4879500364742666 -0.78072005835882663
-0.4879500364742666 0.39036002917941331 -0.78072005835882663
-0.53665631459994945 0.44721359549995793 -0.71554175279993271
-0.61631563442793669 0.35218036253024954 -0.70436072506049907
-0.64676166676355462 0.40422604172722165 -0.64676166676355462
-0.25630729731502827 0.68348612617340876 -0.68348612617340876
-0.1849000654084097 0.64715022892943397 -0.73960026163363879
-0.28734788556634538 0.57469577113269077 -0.7662610281769211
-0.088045090632562384 0.70436072506049907 -0.70436072506049907
0 0.65850460786851805 -0.75257669470687782
-0.099503719020998915 0.59702231412599349 -0.79602975216799132
0 0.52999894000318004 -0.84799830400508802
-0.1111111111111111 0.44444444444444442 -0.88888888888888884
-0.20739033894608505 0.51847584736521268 -0.8295613557843402
-0.31799936400190804 0.42399915200254401 -0.84799830400508802
-0.22792115291927589 0.34188172937891381 -0.91168461167710357
-0.34188172937891381 0.22792115291927589 -0.91168461167710357
-0.42399915200254401 0.31799936400190804 -0.84799830400508802
0 0.3511234415883917 -0.93632917756904455
-0.1203858530857692 0.2407717061715384 -0.96308682468615359
0 0.12403473458920847 -0.99227787671366774
-0.12403473458920847 0 -0.99227787671366774
-0.2407717061715384 0.1203858530857692 -0.96308682468615359
-0.3511234415883917 0 -0.93632917756904455
-0.44444444444444442 0.1111111111111111 -0.88888888888888884
-0.57469577113269077 0.28734788556634538 -0.7662610281769211
-0.64715022892943397 0.1849000654084097 -0.73960026163363879
-0.68348612617340876 0.25630729731502827 -0.68348612617340876
-0.51847584736521268 0.20739033894608505 -0.8295613557843402
-0.52999894000318004 0 -0.84799830400508802
-0.59702231412599349 0.099503719020998915 -0.79602975216799132
-0.65850460786851805 0 -0.75257669470687782
-0.70436072506049907 0.088045090632562384 -0.70436072506049907
0.088045090632562384 0.70436072506049907 -0.70436072506049907
0.1849000654084097 0.64715022892943397 -0.73960026163363879
0.099503719020998915 0.59702231412599349 -0.79602975216799132
0.25630729731502827 0.68348612617340876 -0.68348612617340876
0.35218036253024954 0.61631563442793669 -0.70436072506049907
0.28734788556634538 0.57469577113269077 -0.7662610281769211
0.39036002917941331 0.4879500364742666 -0.78072005835882663
0.31799936400190804 0.42399915200254401 -0.84799830400508802
0.20739033894608505 0.51847584736521268 -0.8295613557843402
0.1111111111111111 0.44444444444444442 -0.88888888888888884
0.40422604172722165 0.64676166676355462 -0.64676166676355462
0.49153915231142431 0.57346234436332832 -0.65538553641523245
0.44721359549995793 0.53665631459994945 -0.71554175279993271
0.52615221960198022 0.60131682240226314 -0.60131682240226314
0.60131682240226314 0.52615221960198022 -0.60131682240226314
0.57346234436332832 0.49153915231142431 -0.65538553641523245
0.64676166676355462 0.40422604172722165 -0.64676166676355462
0.61631563442793669 0.35218036253024954 -0.70436072506049907
0.53665631459994945 0.44721359549995793 -0.71554175279993271
0.4879500364742666 0.39036002917941331 -0.78072005835882663
0.57469577113269077 0.28734788556634538 -0.7662610281769211
0.51847584736521268 0.20739033894608505 -0.8295613557843402
0.42399915200254401 0.31799936400190804 -0.84799830400508802
0.68348612617340876 0.25630729731502827 -0.68348612617340876
0.64715022892943397 0.1849000654084097 -0.73960026163363879
0.70436072506049907 0.088045090632562384 -0.70436072506049907
0.65850460786851805 0 -0.75257669470687782
0.59702231412599349 0.099503719020998915 -0.79602975216799132
0.52999894000318004 0 -0.84799830400508802
0.44444444444444442 0.1111111111111111 -0.88888888888888884
0.22792115291927589 0.34188172937891381 -0.91168461167710357
0.1203858530857692 0.2407717061715384 -0.96308682468615359
0.34188172937891381 0.22792115291927589 -0.91168461167710357
0.3511234415883917 0 -0.93632917756904455
0.2407717061715384 0.1203858530857692 -0.96308682468615359
0.12403473458920847 0 -0.99227787671366774
0.2407717061715384 -0.1203858530857692 -0.96308682468615359
0.1203858530857692 -0.2407717061715384 -0.96308682468615359
0 -0.12403473458920847 -0.99227787671366774
0.44444444444444442 -0.1111111111111111 -0.88888888888888884
0.34188172937891381 -0.22792115291927589 -0.91168461167710357
0.42399915200254401 -0.31799936400190804 -0.84799830400508802
0.31799936400190804 -0.42399915200254401 -0.84799830400508802
0.22792115291927589 -0.34188172937891381 -0.91168461167710357
0.1111111111111111 -0.44444444444444442 -0.88888888888888884
0 -0.3511234415883917 -0.93632917756904455
0.59702231412599349 -0.099503719020998915 -0.79602975216799132
0.51847584736521268 -0.20739033894608505 -0.8295613557843402
0.70436072506049907 -0.088045090632562384 -0.70436072506049907
0.64715022892943397 -0.1849000654084097 -0.73960026163363879
0.68348612617340876 -0.25630729731502827 -0.68348612617340876
0.61631563442793669 -0.35218036253024954 -0.70436072506049907
0.57469577113269077 -0.28734788556634538 -0.7662610281769211
0.4879500364742666 -0.39036002917941331 -0.78072005835882663
0.53665631459994945 -0.44721359549995793 -0.71554175279993271
0.44721359549995793 -0.53665631459994945 -0.71554175279993271
0.39036002917941331 -0.4879500364742666 -0.78072005835882663
0.64676166676355462 -0.40422604172722165 -0.64676166676355462
0.57346234436332832 -0.49153915231142431 -0.65538553641523245
0.60131682240226314 -0.52615221960198022 -0.60131682240226314
0.52615221960198022 -0.60131682240226314 -0.60131682240226314
0.49153915231142431 -0.57346234436332832 -0.65538553641523245
0.40422604172722165 -0.64676166676355462 -0.64676166676355462
0.35218036253024954 -0.61631563442793669 -0.70436072506049907
0.20739033894608505 -0.51847584736521268 -0.8295613557843402
0.099503719020998915 -0.59702231412599349 -0.79602975216799132
0 -0.52999894000318004 -0.84799830400508802
0.28734788556634538 -0.57469577113269077 -0.7662610281769211
0.25630729731502827 -0.68348612617340876 -0.68348612617340876
0.1849000654084097 -0.64715022892943397 -0.73960026163363879
0.088045090632562384 -0.70436072506049907 -0.70436072506049907
0 -0.65850460786851805 -0.75257669470687782
-0.59702231412599349 -0.099503719020998915 -0.79602975216799132
-0.64715022892943397 -0.1849000654084097 -0.73960026163363879
-0.70436072506049907 -0.088045090632562384 -0.70436072506049907
-0.44444444444444442 -0.1111111111111111 -0.88888888888888884
-0.51847584736521268 -0.20739033894608505 -0.8295613557843402
-0.42399915200254401 -0.31799936400190804 -0.84799830400508802
-0.4879500364742666 -0.39036002917941331 -0.78072005835882663
-0.57469577113269077 -0.28734788556634538 -0.7662610281769211
-0.61631563442793669 -0.35218036253024954 -0.70436072506049907
-0.68348612617340876 -0.25630729731502827 -0.68348612617340876
-0.2407717061715384 -0.1203858530857692 -0.96308682468615359
-0.34188172937891381 -0.22792115291927589 -0.91168461167710357
-0.1203858530857692 -0.2407717061715384 -0.96308682468615359
-0.1111111111111111 -0.44444444444444442 -0.88888888888888884
-0.22792115291927589 -0.34188172937891381 -0.91168461167710357
-0.31799936400190804 -0.42399915200254401 -0.84799830400508802
-0.20739033894608505 -0.51847584736521268 -0.8295613557843402
-0.28734788556634538 -0.57469577113269077 -0.7662610281769211
-0.39036002917941331 -0.4879500364742666 -0.78072005835882663
-0.099503719020998915 -0.59702231412599349 -0.79602975216799132
-0.088045090632562384 -0.70436072506049907 -0.70436072506049907
-0.1849000654084097 -0.64715022892943397 -0.73960026163363879
-0.25630729731502827 -0.68348612617340876 -0.68348612617340876
-0.35218036253024954 -0.61631563442793669 -0.70436072506049907
-0.53665631459994945 -0.44721359549995793 -0.71554175279993271
-0.57346234436332832 -0.49153915231142431 -0.65538553641523245
-0.64676166676355462 -0.40422604172722165 -0.64676166676355462
-0.44721359549995793 -0.53665631459994945 -0.71554175279993271
-0.40422604172722165 -0.64676166676355462 -0.64676166676355462
-0.49153915231142431 -0.57346234436332832 -0.65538553641523245
-0.52615221960198022 -0.60131682240226314 -0.60131682240226314
-0.60131682240226314 -0.52615221960198022 -0.60131682240226314
-0.49153915231142431 -0.65538553641523245 -0.57346234436332832
-0.57346234436332832 -0.65538553641523245 -0.49153915231142431
-0.60131682240226314 -0.60131682240226314 -0.52615221960198022
-0.35218036253024954 -0.70436072506049907 -0.61631563442793669
-0.44721359549995793 -0.71554175279993271 -0.53665631459994945
-0.39036002917941331 -0.78072005835882663 -0.4879500364742666
-0.4879500364742666 -0.78072005835882663 -0.39036002917941331
-0.53665631459994945 -0.71554175279993271 -0.44721359549995793
-0.61631563442793669 -0.70436072506049907 -0.35218036253024954
-0.64676166676355462 -0.64676166676355462 -0.40422604172722165
-0.1849000654084097 -0.73960026163363879 -0.64715022892943397
-0.28734788556634538 -0.7662610281769211 -0.57469577113269077
0 -0.75257669470687782 -0.65850460786851805
-0.099503719020998915 -0.79602975216799132 -0.59702231412599349
0 -0.84799830400508802 -0.52999894000318004
-0.1111111111111111 -0.88888888888888884 -0.44444444444444442
-0.20739033894608505 -0.8295613557843402 -0.51847584736521268
-0.31799936400190804 -0.84799830400508802 -0.42399915200254401
-0.22792115291927589 -0.91168461167710357 -0.34188172937891381
-0.34188172937891381 -0.91168461167710357 -0.22792115291927589
-0.42399915200254401 -0.84799830400508802 -0.31799936400190804
0 -0.93632917756904455 -0.3511234415883917
-0.1203858530857692 -0.96308682468615359 -0.2407717061715384
0 -0.99227787671366774 -0.12403473458920847
-0.12403473458920847 -0.99227787671366774 0
-0.2407717061715384 -0.96308682468615359 -0.1203858530857692
-0.3511234415883917 -0.93632917756904455 0
-0.44444444444444442 -0.88888888888888884 -0.1111111111111111
-0.57469577113269077 -0.7662610281769211 -0.28734788556634538
-0.64715022892943397 -0.73960026163363879 -0.1849000654084097
-0.68348612617340876 -0.68348612617340876 -0.25630729731502827
-0.51847584736521268 -0.8295613557843402 -0.20739033894608505
-0.52999894000318004 -0.84799830400508802 0
-0.59702231412599349 -0.79602975216799132 -0.099503719020998915
-0.65850460786851805 -0.75257669470687782 0
-0.70436072506049907 -0.70436072506049907 -0.088045090632562384
0.1849000654084097 -0.73960026163363879 -0.64715022892943397
0.099503719020998915 -0.79602975216799132 -0.59702231412599349
0.35218036253024954 -0.70436072506049907 -0.61631563442793669
0.28734788556634538 -0.7662610281769211 -0.57469577113269077
0.39036002917941331 -0.78072005835882663 -0.4879500364742666
0.31799936400190804 -0.84799830400508802 -0.42399915200254401
0.20739033894608505 -0.8295613557843402 -0.51847584736521268
0.1111111111111111 -0.88888888888888884 -0.44444444444444442
0.49153915231142431 -0.65538553641523245 -0.57346234436332832
0.44721359549995793 -0.71554175279993271 -0.53665631459994945
0.60131682240226314 -0.60131682240226314 -0.52615221960198022
0.57346234436332832 -0.65538553641523245 -0.49153915231142431
0.64676166676355462 -0.64676166676355462 -0.40422604172722165
0.61631563442793669 -0.70436072506049907 -0.35218036253024954
0.53665631459994945 -0.71554175279993271 -0.44721359549995793
0.4879500364742666 -0.78072005835882663 -0.39036002917941331
0.57469577113269077 -0.7662610281769211 -0.28734788556634538
0.51847584736521268 -0.8295613557843402 -0.20739033894608505
0.42399915200254401 -0.84799830400508802 -0.31799936400190804
0.68348612617340876 -0.68348612617340876 -0.25630729731502827
0.64715022892943397 -0.73960026163363879 -0.1849000654084097
0.70436072506049907 -0.70436072506049907 -0.088045090632562384
0.65850460786851805 -0.75257669470687782 0
0.59702231412599349 -0.79602975216799132 -0.099503719020998915
0.52999894000318004 -0.84799830400508802 0
0.44444444444444442 -0.88888888888888884 -0.1111111111111111
0.22792115291927589 -0.91168461167710357 -0.34188172937891381
0.1203858530857692 -0.96308682468615359 -0.2407717061715384
0.34188172937891381 -0.91168461167710357 -0.22792115291927589
0.3511234415883917 -0.93632917756904455 0
0.2407717061715384 -0.96308682468615359 -0.1203858530857692
0.12403473458920847 -0.99227787671366774 0
0.2407717061715384 -0.96308682468615359 0.1203858530857692
0.1203858530857692 -0.96308682468615359 0.2407717061715384
0 -0.99227787671366774 0.12403473458920847
0.44444444444444442 -0.88888888888888884 0.1111111111111111
0.34188172937891381 -0.91168461167710357 0.22792115291927589
0.42399915200254401 -0.84799830400508802 0.31799936400190804
0.31799936400190804 -0.84799830400508802 0.42399915200254401
0.22792115291927589 -0.91168461167710357 0.34188172937891381
0.1111111111111111 -0.88888888888888884 0.44444444444444442
0 -0.93632917756904455 0.3511234415883917
0.59702231412599349 -0.79602975216799132 0.099503719020998915
0.51847584736521268 -0.8295613557843402 0.20739033894608505
0.70436072506049907 -0.70436072506049907 0.088045090632562384
0.64715022892943397 -0.73960026163363879 0.1849000654084097
0.68348612617340876 -0.68348612617340876 0.25630729731502827
0.61631563442793669 -0.70436072506049907 0.35218036253024954
0.57469577113269077 -0.7662610281769211 0.28734788556634538
0.4879500364742666 -0.78072005835882663 0.39036002917941331
0.53665631459994945 -0.71554175279993271 0.44721359549995793
0.44721359549995793 -0.71554175279993271 0.53665631459994945
0.39036002917941331 -0.78072005835882663 0.4879500364742666
0.64676166676355462 -0.64676166676355462 0.40422604172722165
0.57346234436332832 -0.65538553641523245 0.49153915231142431
0.60131682240226314 -0.60131682240226314 0.52615221960198022
0.52615221960198022 -0.60131682240226314 0.60131682240226314
0.49153915231142431 -0.65538553641523245 0.57346234436332832
0.40422604172722165 -0.64676166676355462 0.64676166676355462
0.35218036253024954 -0.70436072506049907 0.61631563442793669
0.20739033894608505 -0.8295613557843402 0.51847584736521268
0.099503719020998915 -0.79602975216799132 0.59702231412599349
0 -0.84799830400508802 0.52999894000318004
0.28734788556634538 -0.7662610281769211 0.57469577113269077
0.25630729731502827 -0.68348612617340876 0.68348612617340876
0.1849000654084097 -0.73960026163363879 0.64715022892943397
0.088045090632562384 -0.70436072506049907 0.70436072506049907
0 -0.75257669470687782 0.65850460786851805
-0.59702231412599349 -0.79602975216799132 0.099503719020998915
-0.64715022892943397 -0.73960026163363879 0.1849000654084097
-0.70436072506049907 -0.70436072506049907 0.088045090632562384
-0.44444444444444442 -0.88888888888888884 0.1111111111111111
-0.51847584736521268 -0.8295613557843402 0.20739033894608505
-0.42399915200254401 -0.84799830400508802 0.31799936400190804
-0.4879500364742666 -0.78072005835882663 0.39036002917941331
-0.57469577113269077 -0.7662610281769211 0.28734788556634538
-0.61631563442793669 -0.70436072506049907 0.35218036253024954
-0.68348612617340876 -0.68348612617340876 0.25630729731502827
-0.2407717061715384 -0.96308682468615359 0.1203858530857692
-0.34188172937891381 -0.91168461167710357 0.22792115291927589
-0.1203858530857692 -0.96308682468615359 0.2407717061715384
-0.1111111111111111 -0.88888888888888884 0.44444444444444442
-0.22792115291927589 -0.91168461167710357 0.34188172937891381
-0.31799936400190804 -0.84799830400508802 0.42399915200254401
-0.20739033894608505 -0.8295613557843402 0.51847584736521268
-0.28734788556634538 -0.7662610281769211 0.57469577113269077
-0.39036002917941331 -0.78072005835882663 0.4879500364742666
-0.099503719020998915 -0.79602975216799132 0.59702231412599349
-0.088045090632562384 -0.70436072506049907 0.70436072506049907
-0.1849000654084097 -0.73960026163363879 0.64715022892943397
-0.25630729731502827 -0.68348612617340876 0.68348612617340876
-0.35218036253024954 -0.70436072506049907 0.61631563442793669
-0.53665631459994945 -0.71554175279993271 0.44721359549995793
-0.57346234436332832 -0.65538553641523245 0.49153915231142431
-0.64676166676355462 -0.64676166676355462 0.40422604172722165
-0.44721359549995793 -0.71554175279993271 0.53665631459994945
-0.40422604172722165 -0.64676166676355462 0.64676166676355462
-0.49153915231142431 -0.65538553641523245 0.57346234436332832
-0.52615221960198022 -0.60131682240226314 0.60131682240226314
-0.60131682240226314 -0.60131682240226314 0.52615221960198022
0.65538553641523245 -0.49153915231142431 -0.57346234436332832
0.65538553641523245 -0.57346234436332832 -0.49153915231142431
0.70436072506049907 -0.35218036253024954 -0.61631563442793669
0.71554175279993271 -0.44721359549995793 -0.53665631459994945
0.78072005835882663 -0.39036002917941331 -0.4879500364742666
0.78072005835882663 -0.4879500364742666 -0.39036002917941331
0.71554175279993271 -0.53665631459994945 -0.44721359549995793
0.70436072506049907 -0.61631563442793669 -0.35218036253024954
0.73960026163363879 -0.1849000654084097 -0.64715022892943397
0.7662610281769211 -0.28734788556634538 -0.57469577113269077
0.75257669470687782 0 -0.65850460786851805
0.79602975216799132 -0.099503719020998915 -0.59702231412599349
0.84799830400508802 0 -0.52999894000318004
0.88888888888888884 -0.1111111111111111 -0.44444444444444442
0.8295613557843402 -0.20739033894608505 -0.51847584736521268
0.84799830400508802 -0.31799936400190804 -0.42399915200254401
0.91168461167710357 -0.22792115291927589 -0.34188172937891381
0.91168461167710357 -0.34188172937891381 -0.22792115291927589
0.84799830400508802 -0.42399915200254401 -0.31799936400190804
0.93632917756904455 0 -0.3511234415883917
0.96308682468615359 -0.1203858530857692 -0.2407717061715384
0.99227787671366774 0 -0.12403473458920847
0.99227787671366774 -0.12403473458920847 0
0.96308682468615359 -0.2407717061715384 -0.1203858530857692
0.93632917756904455 -0.3511234415883917 0
0.88888888888888884 -0.44444444444444442 -0.1111111111111111
0.7662610281769211 -0.57469577113269077 -0.28734788556634538
0.73960026163363879 -0.64715022892943397 -0.1849000654084097
0.8295613557843402 -0.51847584736521268 -0.20739033894608505
0.84799830400508802 -0.52999894000318004 0
0.79602975216799132 -0.59702231412599349 -0.099503719020998915
0.75257669470687782 -0.65850460786851805 0
0.73960026163363879 0.1849000654084097 -0.64715022892943397
0.79602975216799132 0.099503719020998915 -0.59702231412599349
0.70436072506049907 0.35218036253024954 -0.61631563442793669
0.7662610281769211 0.28734788556634538 -0.57469577113269077
0.78072005835882663 0.39036002917941331 -0.4879500364742666
0.84799830400508802 0.31799936400190804 -0.42399915200254401
0.8295613557843402 0.20739033894608505 -0.51847584736521268
0.88888888888888884 0.1111111111111111 -0.44444444444444442
0.65538553641523245 0.49153915231142431 -0.57346234436332832
0.71554175279993271 0.44721359549995793 -0.53665631459994945
0.60131682240226314 0.60131682240226314 -0.52615221960198022
0.65538553641523245 0.57346234436332832 -0.49153915231142431
0.64676166676355462 0.64676166676355462 -0.40422604172722165
0.70436072506049907 0.61631563442793669 -0.35218036253024954
0.71554175279993271 0.53665631459994945 -0.44721359549995793
0.78072005835882663 0.4879500364742666 -0.39036002917941331
0.7662610281769211 0.57469577113269077 -0.28734788556634538
0.8295613557843402 0.51847584736521268 -0.20739033894608505
0.84799830400508802 0.42399915200254401 -0.31799936400190804
0.68348612617340876 0.68348612617340876 -0.25630729731502827
0.73960026163363879 0.64715022892943397 -0.1849000654084097
0.70436072506049907 0.70436072506049907 -0.088045090632562384
0.75257669470687782 0.65850460786851805 0
0.79602975216799132 0.59702231412599349 -0.099503719020998915
0.84799830400508802 0.52999894000318004 0
0.88888888888888884 0.44444444444444442 -0.1111111111111111
0.91168461167710357 0.22792115291927589 -0.34188172937891381
0.96308682468615359 0.1203858530857692 -0.2407717061715384
0.91168461167710357 0.34188172937891381 -0.22792115291927589
0.93632917756904455 0.3511234415883917 0
0.96308682468615359 0.2407717061715384 -0.1203858530857692
0.99227787671366774 0.12403473458920847 0
0.96308682468615359 0.2407717061715384 0.1203858530857692
0.96308682468615359 0.1203858530857692 0.2407717061715384
0.99227787671366774 0 0.12403473458920847
0.88888888888888884 0.44444444444444442 0.1111111111111111
0.91168461167710357 0.34188172937891381 0.22792115291927589
0.84799830400508802 0.42399915200254401 0.31799936400190804
0.84799830400508802 0.31799936400190804 0.42399915200254401
0.91168461167710357 0.22792115291927589 0.34188172937891381
0.88888888888888884 0.1111111111111111 0.44444444444444442
0.93632917756904455 0 0.3511234415883917
0.79602975216799132 0.59702231412599349 0.099503719020998915
0.8295613557843402 0.51847584736521268 0.20739033894608505
0.70436072506049907 0.70436072506049907 0.088045090632562384
0.73960026163363879 0.64715022892943397 0.1849000654084097
0.68348612617340876 0.68348612617340876 0.25630729731502827
0.70436072506049907 0.61631563442793669 0.35218036253024954
0.7662610281769211 0.57469577113269077 0.28734788556634538
0.78072005835882663 0.4879500364742666 0.39036002917941331
0.71554175279993271 0.53665631459994945 0.44721359549995793
0.71554175279993271 0.44721359549995793 0.53665631459994945
0.78072005835882663 0.39036002917941331 0.4879500364742666
0.64676166676355462 0.64676166676355462 0.40422604172722165
0.65538553641523245 0.57346234436332832 0.49153915231142431
0.60131682240226314 0.60131682240226314 0.52615221960198022
0.60131682240226314 0.52615221960198022 0.60131682240226314
0.65538553641523245 0.49153915231142431 0.57346234436332832
0.64676166676355462 0.40422604172722165 0.64676166676355462
0.70436072506049907 0.35218036253024954 0.61631563442793669
0.8295613557843402 0.20739033894608505 0.51847584736521268
0.79602975216799132 0.099503719020998915 0.59702231412599349
0.84799830400508802 0 0.52999894000318004
0.7662610281769211 0.28734788556634538 0.57469577113269077
0.68348612617340876 0.25630729731502827 0.68348612617340876
0.73960026163363879 0.1849000654084097 0.64715022892943397
0.70436072506049907 0.088045090632562384 0.70436072506049907
0.75257669470687782 0 0.65850460786851805
0.79602975216799132 -0.59702231412599349 0.099503719020998915
0.73960026163363879 -0.64715022892943397 0.1849000654084097
0.88888888888888884 -0.44444444444444442 0.1111111111111111
0.8295613557843402 -0.51847584736521268 0.20739033894608505
0.84799830400508802 -0.42399915200254401 0.31799936400190804
0.78072005835882663 -0.4879500364742666 0.39036002917941331
0.7662610281769211 -0.57469577113269077 0.28734788556634538
0.70436072506049907 -0.61631563442793669 0.35218036253024954
0.96308682468615359 -0.2407717061715384 0.1203858530857692
0.91168461167710357 -0.34188172937891381 0.22792115291927589
0.96308682468615359 -0.1203858530857692 0.2407717061715384
0.88888888888888884 -0.1111111111111111 0.44444444444444442
0.91168461167710357 -0.22792115291927589 0.34188172937891381
0.84799830400508802 -0.31799936400190804 0.42399915200254401
0.8295613557843402 -0.20739033894608505 0.51847584736521268
0.7662610281769211 -0.28734788556634538 0.57469577113269077
0.78072005835882663 -0.39036002917941331 0.4879500364742666
0.79602975216799132 -0.099503719020998915 0.59702231412599349
0.70436072506049907 -0.088045090632562384 0.70436072506049907
0.73960026163363879 -0.1849000654084097 0.64715022892943397
0.68348612617340876 -0.25630729731502827 0.68348612617340876
0.70436072506049907 -0.35218036253024954 0.61631563442793669
0.71554175279993271 -0.53665631459994945 0.44721359549995793
0.65538553641523245 -0.57346234436332832 0.49153915231142431
0.71554175279993271 -0.44721359549995793 0.53665631459994945
0.64676166676355462 -0.40422604172722165 0.64676166676355462
0.65538553641523245 -0.49153915231142431 0.57346234436332832
0.60131682240226314 -0.52615221960198022 0.60131682240226314
0.49153915231142431 0.65538553641523245 -0.57346234436332832
0.57346234436332832 0.65538553641523245 -0.49153915231142431
0.35218036253024954 0.70436072506049907 -0.61631563442793669
0.44721359549995793 0.71554175279993271 -0.53665631459994945
0.39036002917941331 0.78072005835882663 -0.4879500364742666
0.4879500364742666 0.78072005835882663 -0.39036002917941331
0.53665631459994945 0.71554175279993271 -0.44721359549995793
0.61631563442793669 0.70436072506049907 -0.35218036253024954
0.1849000654084097 0.73960026163363879 -0.64715022892943397
0.28734788556634538 0.7662610281769211 -0.57469577113269077
0 0.75257669470687782 -0.65850460786851805
0.099503719020998915 0.79602975216799132 -0.59702231412599349
0 0.84799830400508802 -0.52999894000318004
0.1111111111111111 0.88888888888888884 -0.44444444444444442
0.20739033894608505 0.8295613557843402 -0.51847584736521268
0.31799936400190804 0.84799830400508802 -0.42399915200254401
0.22792115291927589 0.91168461167710357 -0.34188172937891381
0.34188172937891381 0.91168461167710357 -0.22792115291927589
0.42399915200254401 0.84799830400508802 -0.31799936400190804
0 0.93632917756904455 -0.3511234415883917
0.1203858530857692 0.96308682468615359 -0.2407717061715384
0 0.99227787671366774 -0.12403473458920847
0.12403473458920847 0.99227787671366774 0
0.2407717061715384 0.96308682468615359 -0.1203858530857692
0.3511234415883917 0.93632917756904455 0
0.44444444444444442 0.88888888888888884 -0.1111111111111111
0.57469577113269077 0.7662610281769211 -0.28734788556634538
0.64715022892943397 0.73960026163363879 -0.1849000654084097
0.51847584736521268 0.8295613557843402 -0.20739033894608505
0.52999894000318004 0.84799830400508802 0
0.59702231412599349 0.79602975216799132 -0.099503719020998915
0.65850460786851805 0.75257669470687782 0
-0.1849000654084097 0.73960026163363879 -0.64715022892943397
-0.099503719020998915 0.79602975216799132 -0.59702231412599349
-0.35218036253024954 0.70436072506049907 -0.61631563442793669
-0.28734788556634538 0.7662610281769211 -0.57469577113269077
-0.39036002917941331 0.78072005835882663 -0.4879500364742666
-0.31799936400190804 0.84799830400508802 -0.42399915200254401
-0.20739033894608505 0.8295613557843402 -0.51847584736521268
-0.1111111111111111 0.88888888888888884 -0.44444444444444442
-0.49153915231142431 0.65538553641523245 -0.57346234436332832
-0.44721359549995793 0.71554175279993271 -0.53665631459994945
-0.60131682240226314 0.60131682240226314 -0.52615221960198022
-0.57346234436332832 0.65538553641523245 -0.49153915231142431
-0.64676166676355462 0.64676166676355462 -0.40422604172722165
-0.61631563442793669 0.70436072506049907 -0.35218036253024954
-0.53665631459994945 0.71554175279993271 -0.44721359549995793
-0.4879500364742666 0.78072005835882663 -0.39036002917941331
-0.57469577113269077 0.7662610281769211 -0.28734788556634538
-0.51847584736521268 0.8295613557843402 -0.20739033894608505
-0.42399915200254401 0.84799830400508802 -0.31799936400190804
-0.68348612617340876 0.68348612617340876 -0.25630729731502827
-0.64715022892943397 0.73960026163363879 -0.1849000654084097
-0.70436072506049907 0.70436072506049907 -0.088045090632562384
-0.65850460786851805 0.75257669470687782 0
-0.59702231412599349 0.79602975216799132 -0.099503719020998915
-0.52999894000318004 0.84799830400508802 0
-0.44444444444444442 0.88888888888888884 -0.1111111111111111
-0.22792115291927589 0.91168461167710357 -0.34188172937891381
-0.1203858530857692 0.96308682468615359 -0.2407717061715384
-0.34188172937891381 0.91168461167710357 -0.22792115291927589
-0.3511234415883917 0.93632917756904455 0
-0.2407717061715384 0.96308682468615359 -0.1203858530857692
-0.12403473458920847 0.99227787671366774 0
-0.2407717061715384 0.96308682468615359 0.1203858530857692
-0.1203858530857692 0.96308682468615359 0.2407717061715384
0 0.99227787671366774 0.12403473458920847
-0.44444444444444442 0.88888888888888884 0.1111111111111111
-0.34188172937891381 0.91168461167710357 0.22792115291927589
-0.42399915200254401 0.84799830400508802 0.31799936400190804
-0.31799936400190804 0.84799830400508802 0.42399915200254401
-0.22792115291927589 0.91168461167710357 0.34188172937891381
-0.1111111111111111 0.88888888888888884 0.44444444444444442
0 0.93632917756904455 0.3511234415883917
-0.59702231412599349 0.79602975216799132 0.099503719020998915
-0.51847584736521268 0.8295613557843402 0.20739033894608505
-0.70436072506049907 0.70436072506049907 0.088045090632562384
-0.64715022892943397 0.73960026163363879 0.1849000654084097
-0.68348612617340876 0.68348612617340876 0.25630729731502827
-0.61631563442793669 0.70436072506049907 0.35218036253024954
-0.57469577113269077 0.7662610281769211 0.28734788556634538
-0.4879500364742666 0.78072005835882663 0.39036002917941331
-0.53665631459994945 0.71554175279993271 0.44721359549995793
-0.44721359549995793 0.71554175279993271 0.53665631459994945
-0.39036002917941331 0.78072005835882663 0.4879500364742666
-0.64676166676355462 0.64676166676355462 0.40422604172722165
-0.57346234436332832 0.65538553641523245 0.49153915231142431
-0.60131682240226314 0.60131682240226314 0.52615221960198022
-0.52615221960198022 0.60131682240226314 0.60131682240226314
-0.49153915231142431 0.65538553641523245 0.57346234436332832
-0.40422604172722165 0.64676166676355462 0.64676166676355462
-0.35218036253024954 0.70436072506049907 0.61631563442793669
-0.20739033894608505 0.8295613557843402 0.51847584736521268
-0.099503719020998915 0.79602975216799132 0.59702231412599349
0 0.84799830400508802 0.52999894000318004
-0.28734788556634538 0.7662610281769211 0.57469577113269077
-0.25630729731502827 0.68348612617340876 0.68348612617340876
-0.1849000654084097 0.73960026163363879 0.64715022892943397
-0.088045090632562384 0.70436072506049907 0.70436072506049907
0 0.75257669470687782 0.65850460786851805
0.59702231412599349 0.79602975216799132 0.099503719020998915
0.64715022892943397 0.73960026163363879 0.1849000654084097
0.44444444444444442 0.88888888888888884 0.1111111111111111
0.51847584736521268 0.8295613557843402 0.20739033894608505
0.42399915200254401 0.84799830400508802 0.31799936400190804
0.4879500364742666 0.78072005835882663 0.39036002917941331
0.57469577113269077 0.7662610281769211 0.28734788556634538
0.61631563442793669 0.70436072506049907 0.35218036253024954
0.2407717061715384 0.96308682468615359 0.1203858530857692
0.34188172937891381 0.91168461167710357 0.22792115291927589
0.1203858530857692 0.96308682468615359 0.2407717061715384
0.1111111111111111 0.88888888888888884 0.44444444444444442
0.22792115291927589 0.91168461167710357 0.34188172937891381
0.31799936400190804 0.84799830400508802 0.42399915200254401
0.20739033894608505 0.8295613557843402 0.51847584736521268
0.28734788556634538 0.7662610281769211 0.57469577113269077
0.39036002917941331 0.78072005835882663 0.4879500364742666
0.099503719020998915 0.79602975216799132 0.59702231412599349
0.088045090632562384 0.70436072506049907 0.70436072506049907
0.1849000654084097 0.73960026163363879 0.64715022892943397
0.25630729731502827 0.68348612617340876 0.68348612617340876
0.35218036253024954 0.70436072506049907 0.61631563442793669
0.53665631459994945 0.71554175279993271 0.44721359549995793
0.57346234436332832 0.65538553641523245 0.49153915231142431
0.44721359549995793 0.71554175279993271 0.53665631459994945
0.40422604172722165 0.64676166676355462 0.64676166676355462
0.49153915231142431 0.65538553641523245 0.57346234436332832
0.52615221960198022 0.60131682240226314 0.60131682240226314
-0.65538553641523245 0.49153915231142431 -0.57346234436332832
-0.65538553641523245 0.57346234436332832 -0.49153915231142431
-0.70436072506049907 0.35218036253024954 -0.61631563442793669
-0.71554175279993271 0.44721359549995793 -0.53665631459994945
-0.78072005835882663 0.39036002917941331 -0.4879500364742666
-0.78072005835882663 0.4879500364742666 -0.39036002917941331
-0.71554175279993271 0.53665631459994945 -0.44721359549995793
-0.70436072506049907 0.61631563442793669 -0.35218036253024954
-0.73960026163363879 0.1849000654084097 -0.64715022892943397
-0.7662610281769211 0.28734788556634538 -0.57469577113269077
-0.75257669470687782 0 -0.65850460786851805
-0.79602975216799132 0.099503719020998915 -0.59702231412599349
-0.84799830400508802 0 -0.52999894000318004
-0.88888888888888884 0.1111111111111111 -0.44444444444444442
-0.8295613557843402 0.20739033894608505 -0.51847584736521268
-0.84799830400508802 0.31799936400190804 -0.42399915200254401
-0.91168461167710357 0.22792115291927589 -0.34188172937891381
-0.91168461167710357 0.34188172937891381 -0.22792115291927589
-0.84799830400508802 0.42399915200254401 -0.31799936400190804
-0.93632917756904455 0 -0.3511234415883917
-0.96308682468615359 0.1203858530857692 -0.2407717061715384
-0.99227787671366774 0 -0.12403473458920847
-0.99227787671366774 0.12403473458920847 0
-0.96308682468615359 0.2407717061715384 -0.1203858530857692
-0.93632917756904455 0.3511234415883917 0
-0.88888888888888884 0.44444444444444442 -0.1111111111111111
-0.7662610281769211 0.57469577113269077 -0.28734788556634538
-0.73960026163363879 0.64715022892943397 -0.1849000654084097
-0.8295613557843402 0.51847584736521268 -0.20739033894608505
-0.84799830400508802 0.52999894000318004 0
-0.79602975216799132 0.59702231412599349 -0.099503719020998915
-0.75257669470687782 0.65850460786851805 0
-0.73960026163363879 -0.1849000654084097 -0.64715022892943397
-0.79602975216799132 -0.099503719020998915 -0.59702231412599349
-0.70436072506049907 -0.35218036253024954 -0.61631563442793669
-0.7662610281769211 -0.28734788556634538 -0.57469577113269077
-0.78072005835882663 -0.39036002917941331 -0.4879500364742666
-0.84799830400508802 -0.31799936400190804 -0.42399915200254401
-0.8295613557843402 -0.20739033894608505 -0.51847584736521268
-0.88888888888888884 -0.1111111111111111 -0.44444444444444442
-0.65538553641523245 -0.49153915231142431 -0.57346234436332832
-0.71554175279993271 -0.44721359549995793 -0.53665631459994945
-0.65538553641523245 -0.57346234436332832 -0.49153915231142431
-0.70436072506049907 -0.61631563442793669 -0.35218036253024954
-0.71554175279993271 -0.53665631459994945 -0.44721359549995793
-0.78072005835882663 -0.4879500364742666 -0.39036002917941331
-0.7662610281769211 -0.57469577113269077 -0.28734788556634538
-0.8295613557843402 -0.51847584736521268 -0.20739033894608505
-0.84799830400508802 -0.42399915200254401 -0.31799936400190804
-0.73960026163363879 -0.64715022892943397 -0.1849000654084097
-0.75257669470687782 -0.65850460786851805 0
-0.79602975216799132 -0.59702231412599349 -0.099503719020998915
-0.84799830400508802 -0.52999894000318004 0
-0.88888888888888884 -0.44444444444444442 -0.1111111111111111
-0.91168461167710357 -0.22792115291927589 -0.34188172937891381
-0.96308682468615359 -0.1203858530857692 -0.2407717061715384
-0.91168461167710357 -0.34188172937891381 -0.22792115291927589
-0.93632917756904455 -0.3511234415883917 0
-0.96308682468615359 -0.2407717061715384 -0.1203858530857692
-0.99227787671366774 -0.12403473458920847 0
-0.96308682468615359 -0.2407717061715384 0.1203858530857692
-0.96308682468615359 -0.1203858530857692 0.2407717061715384
-0.99227787671366774 0 0.12403473458920847
-0.88888888888888884 -0.44444444444444442 0.1111111111111111
-0.91168461167710357 -0.34188172937891381 0.22792115291927589
-0.84799830400508802 -0.42399915200254401 0.31799936400190804
-0.84799830400508802 -0.31799936400190804 0.42399915200254401
-0.91168461167710357 -0.22792115291927589 0.34188172937891381
-0.88888888888888884 -0.1111111111111111 0.44444444444444442
-0.93632917756904455 0 0.3511234415883917
-0.79602975216799132 -0.59702231412599349 0.099503719020998915
-0.8295613557843402 -0.51847584736521268 0.20739033894608505
-0.73960026163363879 -0.64715022892943397 0.1849000654084097
-0.70436072506049907 -0.61631563442793669 0.35218036253024954
-0.7662610281769211 -0.57469577113269077 0.28734788556634538
-0.78072005835882663 -0.4879500364742666 0.39036002917941331
-0.71554175279993271 -0.53665631459994945 0.44721359549995793
-0.71554175279993271 -0.44721359549995793 0.53665631459994945
-0.78072005835882663 -0.39036002917941331 0.4879500364742666
-0.65538553641523245 -0.57346234436332832 0.49153915231142431
-0.60131682240226314 -0.52615221960198022 0.60131682240226314
-0.65538553641523245 -0.49153915231142431 0.57346234436332832
-0.64676166676355462 -0.40422604172722165 0.64676166676355462
-0.70436072506049907 -0.35218036253024954 0.61631563442793669
-0.8295613557843402 -0.20739033894608505 0.51847584736521268
-0.79602975216799132 -0.099503719020998915 0.59702231412599349
-0.84799830400508802 0 0.52999894000318004
-0.7662610281769211 -0.28734788556634538 0.57469577113269077
-0.68348612617340876 -0.25630729731502827 0.68348612617340876
-0.73960026163363879 -0.1849000654084097 0.64715022892943397
-0.70436072506049907 -0.088045090632562384 0.70436072506049907
-0.75257669470687782 0 0.65850460786851805
-0.79602975216799132 0.59702231412599349 0.099503719020998915
-0.73960026163363879 0.64715022892943397 0.1849000654084097
-0.88888888888888884 0.44444444444444442 0.1111111111111111
-0.8295613557843402 0.51847584736521268 0.20739033894608505
-0.84799830400508802 0.42399915200254401 0.31799936400190804
-0.78072005835882663 0.4879500364742666 0.39036002917941331
-0.7662610281769211 0.57469577113269077 0.28734788556634538
-0.70436072506049907 0.61631563442793669 0.35218036253024954
-0.96308682468615359 0.2407717061715384 0.1203858530857692
-0.91168461167710357 0.34188172937891381 0.22792115291927589
-0.96308682468615359 0.1203858530857692 0.2407717061715384
-0.88888888888888884 0.1111111111111111 0.44444444444444442
-0.91168461167710357 0.22792115291927589 0.34188172937891381
-0.84799830400508802 0.31799936400190804 0.42399915200254401
-0.8295613557843402 0.20739033894608505 0.51847584736521268
-0.7662610281769211 0.28734788556634538 0.57469577113269077
-0.78072005835882663 0.39036002917941331 0.4879500364742666
-0.79602975216799132 0.099503719020998915 0.59702231412599349
-0.70436072506049907 0.088045090632562384 0.70436072506049907
-0.73960026163363879 0.1849000654084097 0.64715022892943397
-0.68348612617340876 0.25630729731502827 0.68348612617340876
-0.70436072506049907 0.35218036253024954 0.61631563442793669
-0.71554175279993271 0.53665631459994945 0.44721359549995793
-0.65538553641523245 0.57346234436332832 0.49153915231142431
-0.71554175279993271 0.44721359549995793 0.53665631459994945
-0.64676166676355462 0.40422604172722165 0.64676166676355462
-0.65538553641523245 0.49153915231142431 0.57346234436332832
-0.60131682240226314 0.52615221960198022 0.60131682240226314
-0.49153915231142431 -0.57346234436332832 0.65538553641523245
-0.57346234436332832 -0.49153915231142431 0.65538553641523245
-0.35218036253024954 -0.61631563442793669 0.70436072506049907
-0.44721359549995793 -0.53665631459994945 0.71554175279993271
-0.39036002917941331 -0.4879500364742666 0.78072005835882663
-0.4879500364742666 -0.39036002917941331 0.78072005835882663
-0.53665631459994945 -0.44721359549995793 0.71554175279993271
-0.61631563442793669 -0.35218036253024954 0.70436072506049907
-0.1849000654084097 -0.64715022892943397 0.73960026163363879
-0.28734788556634538 -0.57469577113269077 0.7662610281769211
0 -0.65850460786851805 0.75257669470687782
-0.099503719020998915 -0.59702231412599349 0.79602975216799132
0 -0.52999894000318004 0.84799830400508802
-0.1111111111111111 -0.44444444444444442 0.88888888888888884
-0.20739033894608505 -0.51847584736521268 0.8295613557843402
-0.31799936400190804 -0.42399915200254401 0.84799830400508802
-0.22792115291927589 -0.34188172937891381 0.91168461167710357
-0.34188172937891381 -0.22792115291927589 0.91168461167710357
-0.42399915200254401 -0.31799936400190804 0.84799830400508802
0 -0.3511234415883917 0.93632917756904455
-0.1203858530857692 -0.2407717061715384 0.96308682468615359
0 -0.12403473458920847 0.99227787671366774
-0.12403473458920847 0 0.99227787671366774
-0.2407717061715384 -0.1203858530857692 0.96308682468615359
-0.3511234415883917 0 0.93632917756904455
-0.44444444444444442 -0.1111111111111111 0.88888888888888884
-0.57469577113269077 -0.28734788556634538 0.7662610281769211
-0.64715022892943397 -0.1849000654084097 0.73960026163363879
-0.51847584736521268 -0.20739033894608505 0.8295613557843402
-0.52999894000318004 0 0.84799830400508802
-0.59702231412599349 -0.099503719020998915 0.79602975216799132
-0.65850460786851805 0 0.75257669470687782
0.1849000654084097 -0.64715022892943397 0.73960026163363879
0.099503719020998915 -0.59702231412599349 0.79602975216799132
0.35218036253024954 -0.61631563442793669 0.70436072506049907
0.28734788556634538 -0.57469577113269077 0.7662610281769211
0.39036002917941331 -0.4879500364742666 0.78072005835882663
0.31799936400190804 -0.42399915200254401 0.84799830400508802
0.20739033894608505 -0.51847584736521268 0.8295613557843402
0.1111111111111111 -0.44444444444444442 0.88888888888888884
0.49153915231142431 -0.57346234436332832 0.65538553641523245
0.44721359549995793 -0.53665631459994945 0.71554175279993271
0.57346234436332832 -0.49153915231142431 0.65538553641523245
0.61631563442793669 -0.35218036253024954 0.70436072506049907
0.53665631459994945 -0.44721359549995793 0.71554175279993271
0.4879500364742666 -0.39036002917941331 0.78072005835882663
0.57469577113269077 -0.28734788556634538 0.7662610281769211
0.51847584736521268 -0.20739033894608505 0.8295613557843402
0.42399915200254401 -0.31799936400190804 0.84799830400508802
0.64715022892943397 -0.1849000654084097 0.73960026163363879
0.65850460786851805 0 0.75257669470687782
0.59702231412599349 -0.099503719020998915 0.79602975216799132
0.52999894000318004 0 0.84799830400508802
0.44444444444444442 -0.1111111111111111 0.88888888888888884
0.22792115291927589 -0.34188172937891381 0.91168461167710357
0.1203858530857692 -0.2407717061715384 0.96308682468615359
0.34188172937891381 -0.22792115291927589 0.91168461167710357
0.3511234415883917 0 0.93632917756904455
0.2407717061715384 -0.1203858530857692 0.96308682468615359
0.12403473458920847 0 0.99227787671366774
0.2407717061715384 0.1203858530857692 0.96308682468615359
0.1203858530857692 0.2407717061715384 0.96308682468615359
0 0.12403473458920847 0.99227787671366774
0.44444444444444442 0.1111111111111111 0.88888888888888884
0.34188172937891381 0.22792115291927589 0.91168461167710357
0.42399915200254401 0.31799936400190804 0.84799830400508802
0.31799936400190804 0.42399915200254401 0.84799830400508802
0.22792115291927589 0.34188172937891381 0.91168461167710357
0.1111111111111111 0.44444444444444442 0.88888888888888884
0 0.3511234415883917 0.93632917756904455
0.59702231412599349 0.099503719020998915 0.79602975216799132
0.51847584736521268 0.20739033894608505 0.8295613557843402
0.64715022892943397 0.1849000654084097 0.73960026163363879
0.61631563442793669 0.35218036253024954 0.70436072506049907
0.57469577113269077 0.28734788556634538 0.7662610281769211
0.4879500364742666 0.39036002917941331 0.78072005835882663
0.53665631459994945 0.44721359549995793 0.71554175279993271
0.44721359549995793 0.53665631459994945 0.71554175279993271
0.39036002917941331 0.4879500364742666 0.78072005835882663
0.57346234436332832 0.49153915231142431 0.65538553641523245
0.49153915231142431 0.57346234436332832 0.65538553641523245
0.35218036253024954 0.61631563442793669 0.70436072506049907
0.20739033894608505 0.51847584736521268 0.8295613557843402
0.099503719020998915 0.59702231412599349 0.79602975216799132
0 0.52999894000318004 0.84799830400508802
0.28734788556634538 0.57469577113269077 0.7662610281769211
0.1849000654084097 0.64715022892943397 0.73960026163363879
0 0.65850460786851805 0.75257669470687782
-0.59702231412599349 0.099503719020998915 0.79602975216799132
-0.64715022892943397 0.1849000654084097 0.73960026163363879
-0.44444444444444442 0.1111111111111111 0.88888888888888884
-0.51847584736521268 0.20739033894608505 0.8295613557843402
-0.42399915200254401 0.31799936400190804 0.84799830400508802
-0.4879500364742666 0.39036002917941331 0.78072005835882663
-0.57469577113269077 0.28734788556634538 0.7662610281769211
-0.61631563442793669 0.35218036253024954 0.70436072506049907
-0.2407717061715384 0.1203858530857692 0.96308682468615359
-0.34188172937891381 0.22792115291927589 0.91168461167710357
-0.1203858530857692 0.2407717061715384 0.96308682468615359
-0.1111111111111111 0.44444444444444442 0.88888888888888884
-0.22792115291927589 0.34188172937891381 0.91168461167710357
-0.31799936400190804 0.42399915200254401 0.84799830400508802
-0.20739033894608505 0.51847584736521268 0.8295613557843402
-0.28734788556634538 0.57469577113269077 0.7662610281769211
-0.39036002917941331 0.4879500364742666 0.78072005835882663
-0.099503719020998915 0.59702231412599349 0.79602975216799132
-0.1849000654084097 0.64715022892943397 0.73960026163363879
-0.35218036253024954 0.61631563442793669 0.70436072506049907
-0.53665631459994945 0.44721359549995793 0.71554175279993271
-0.57346234436332832 0.49153915231142431 0.65538553641523245
-0.44721359549995793 0.53665631459994945 0.71554175279993271
-0.49153915231142431 0.57346234436332832 0.65538553641523245
-0.54997194092287027 0.54997194092287027 -0.62853936105470887
-0.42562826537937432 0.59587957153112403 -0.68100522460699886
-0.46829290579084698 0.46829290579084698 -0.74926864926535519
-0.59587957153112403 0.42562826537937432 -0.68100522460699886
-0.27160723812755561 0.63375022229762967 -0.72428596834014825
-0.093658581158169399 0.65561006810718581 -0.74926864926535519
-0.10540925533894598 0.52704627669472992 -0.84327404271156781
-0.30304576336566325 0.50507627227610541 -0.80812203564176854
-0.33129457822453962 0.33129457822453962 -0.88345220859877227
-0.11624763874381928 0.34874291623145787 -0.92998110995055427
-0.12309149097933272 0.12309149097933272 -0.98473192783466179
-0.34874291623145787 0.11624763874381928 -0.92998110995055427
-0.63375022229762967 0.27160723812755561 -0.72428596834014825
-0.50507627227610541 0.30304576336566325 -0.80812203564176854
-0.52704627669472992 0.10540925533894598 -0.84327404271156781
-0.65561006810718581 0.093658581158169399 -0.74926864926535519
0.093658581158169399 0.65561006810718581 -0.74926864926535519
0.27160723812755561 0.63375022229762967 -0.72428596834014825
0.30304576336566325 0.50507627227610541 -0.80812203564176854
0.10540925533894598 0.52704627669472992 -0.84327404271156781
0.42562826537937432 0.59587957153112403 -0.68100522460699886
0.54997194092287027 0.54997194092287027 -0.62853936105470887
0.59587957153112403 0.42562826537937432 -0.68100522460699886
0.46829290579084698 0.46829290579084698 -0.74926864926535519
0.50507627227610541 0.30304576336566325 -0.80812203564176854
0.63375022229762967 0.27160723812755561 -0.72428596834014825
0.65561006810718581 0.093658581158169399 -0.74926864926535519
0.52704627669472992 0.10540925533894598 -0.84327404271156781
0.11624763874381928 0.34874291623145787 -0.92998110995055427
0.33129457822453962 0.33129457822453962 -0.88345220859877227
0.34874291623145787 0.11624763874381928 -0.92998110995055427
0.12309149097933272 0.12309149097933272 -0.98473192783466179
0.12309149097933272 -0.12309149097933272 -0.98473192783466179
0.34874291623145787 -0.11624763874381928 -0.92998110995055427
0.33129457822453962 -0.33129457822453962 -0.88345220859877227
0.11624763874381928 -0.34874291623145787 -0.92998110995055427
0.52704627669472992 -0.10540925533894598 -0.84327404271156781
0.65561006810718581 -0.093658581158169399 -0.74926864926535519
0.63375022229762967 -0.27160723812755561 -0.72428596834014825
0.50507627227610541 -0.30304576336566325 -0.80812203564176854
0.46829290579084698 -0.46829290579084698 -0.74926864926535519
0.59587957153112403 -0.42562826537937432 -0.68100522460699886
0.54997194092287027 -0.54997194092287027 -0.62853936105470887
0.42562826537937432 -0.59587957153112403 -0.68100522460699886
0.10540925533894598 -0.52704627669472992 -0.84327404271156781
0.30304576336566325 -0.50507627227610541 -0.80812203564176854
0.27160723812755561 -0.63375022229762967 -0.72428596834014825
0.093658581158169399 -0.65561006810718581 -0.74926864926535519
-0.65561006810718581 -0.093658581158169399 -0.74926864926535519
-0.52704627669472992 -0.10540925533894598 -0.84327404271156781
-0.50507627227610541 -0.30304576336566325 -0.80812203564176854
-0.63375022229762967 -0.27160723812755561 -0.72428596834014825
-0.34874291623145787 -0.11624763874381928 -0.92998110995055427
-0.12309149097933272 -0.12309149097933272 -0.98473192783466179
-0.11624763874381928 -0.34874291623145787 -0.92998110995055427
-0.33129457822453962 -0.33129457822453962 -0.88345220859877227
-0.30304576336566325 -0.50507627227610541 -0.80812203564176854
-0.10540925533894598 -0.52704627669472992 -0.84327404271156781
-0.093658581158169399 -0.65561006810718581 -0.74926864926535519
-0.27160723812755561 -0.63375022229762967 -0.72428596834014825
-0.59587957153112403 -0.42562826537937432 -0.68100522460699886
-0.46829290579084698 -0.46829290579084698 -0.74926864926535519
-0.42562826537937432 -0.59587957153112403 -0.68100522460699886
-0.54997194092287027 -0.54997194092287027 -0.62853936105470887
-0.54997194092287027 -0.62853936105470887 -0.54997194092287027
-0.42562826537937432 -0.68100522460699886 -0.59587957153112403
-0.46829290579084698 -0.74926864926535519 -0.46829290579084698
-0.59587957153112403 -0.68100522460699886 -0.42562826537937432
-0.27160723812755561 -0.72428596834014825 -0.63375022229762967
-0.093658581158169399 -0.74926864926535519 -0.65561006810718581
-0.10540925533894598 -0.84327404271156781 -0.52704627669472992
-0.30304576336566325 -0.80812203564176854 -0.50507627227610541
-0.33129457822453962 -0.88345220859877227 -0.33129457822453962
-0.11624763874381928 -0.92998110995055427 -0.34874291623145787
-0.12309149097933272 -0.98473192783466179 -0.12309149097933272
-0.34874291623145787 -0.92998110995055427 -0.11624763874381928
-0.63375022229762967 -0.72428596834014825 -0.27160723812755561
-0.50507627227610541 -0.80812203564176854 -0.30304576336566325
-0.52704627669472992 -0.84327404271156781 -0.10540925533894598
-0.65561006810718581 -0.74926864926535519 -0.093658581158169399
0.093658581158169399 -0.74926864926535519 -0.65561006810718581
0.27160723812755561 -0.72428596834014825 -0.63375022229762967
0.30304576336566325 -0.80812203564176854 -0.50507627227610541
0.10540925533894598 -0.84327404271156781 -0.52704627669472992
0.42562826537937432 -0.68100522460699886 -0.59587957153112403
0.54997194092287027 -0.62853936105470887 -0.54997194092287027
0.59587957153112403 -0.68100522460699886 -0.42562826537937432
0.46829290579084698 -0.74926864926535519 -0.46829290579084698
0.50507627227610541 -0.80812203564176854 -0.30304576336566325
0.63375022229762967 -0.72428596834014825 -0.27160723812755561
0.65561006810718581 -0.74926864926535519 -0.093658581158169399
0.52704627669472992 -0.84327404271156781 -0.10540925533894598
0.11624763874381928 -0.92998110995055427 -0.34874291623145787
0.33129457822453962 -0.88345220859877227 -0.33129457822453962
0.34874291623145787 -0.92998110995055427 -0.11624763874381928
0.12309149097933272 -0.98473192783466179 -0.12309149097933272
0.12309149097933272 -0.98473192783466179 0.12309149097933272
0.34874291623145787 -0.92998110995055427 0.11624763874381928
0.33129457822453962 -0.88345220859877227 0.33129457822453962
0.11624763874381928 -0.92998110995055427 0.34874291623145787
0.52704627669472992 -0.84327404271156781 0.10540925533894598
0.65561006810718581 -0.74926864926535519 0.093658581158169399
0.63375022229762967 -0.72428596834014825 0.27160723812755561
0.50507627227610541 -0.80812203564176854 0.30304576336566325
0.46829290579084698 -0.74926864926535519 0.46829290579084698
0.59587957153112403 -0.68100522460699886 0.42562826537937432
0.54997194092287027 -0.62853936105470887 0.54997194092287027
0.42562826537937432 -0.68100522460699886 0.59587957153112403
0.10540925533894598 -0.84327404271156781 0.52704627669472992
0.30304576336566325 -0.80812203564176854 0.50507627227610541
0.27160723812755561 -0.72428596834014825 0.63375022229762967
0.093658581158169399 -0.74926864926535519 0.65561006810718581
-0.65561006810718581 -0.74926864926535519 0.093658581158169399
-0.52704627669472992 -0.84327404271156781 0.10540925533894598
-0.50507627227610541 -0.80812203564176854 0.30304576336566325
-0.63375022229762967 -0.72428596834014825 0.27160723812755561
-0.34874291623145787 -0.92998110995055427 0.11624763874381928
-0.12309149097933272 -0.98473192783466179 0.12309149097933272
-0.11624763874381928 -0.92998110995055427 0.34874291623145787
-0.33129457822453962 -0.88345220859877227 0.33129457822453962
-0.30304576336566325 -0.80812203564176854 0.50507627227610541
-0.10540925533894598 -0.84327404271156781 0.52704627669472992
-0.093658581158169399 -0.74926864926535519 0.65561006810718581
-0.27160723812755561 -0.72428596834014825 0.63375022229762967
-0.59587957153112403 -0.68100522460699886 0.42562826537937432
-0.46829290579084698 -0.74926864926535519 0.46829290579084698
-0.42562826537937432 -0.68100522460699886 0.59587957153112403
-0.54997194092287027 -0.62853936105470887 0.54997194092287027
0.62853936105470887 -0.54997194092287027 -0.54997194092287027
0.68100522460699886 -0.42562826537937432 -0.59587957153112403
0.74926864926535519 -0.46829290579084698 -0.46829290579084698
0.68100522460699886 -0.59587957153112403 -0.42562826537937432
0.72428596834014825 -0.27160723812755561 -0.63375022229762967
0.74926864926535519 -0.093658581158169399 -0.65561006810718581
0.84327404271156781 -0.10540925533894598 -0.52704627669472992
0.80812203564176854 -0.30304576336566325 -0.50507627227610541
0.88345220859877227 -0.33129457822453962 -0.33129457822453962
0.92998110995055427 -0.11624763874381928 -0.34874291623145787
0.98473192783466179 -0.12309149097933272 -0.12309149097933272
0.92998110995055427 -0.34874291623145787 -0.11624763874381928
0.72428596834014825 -0.63375022229762967 -0.27160723812755561
0.80812203564176854 -0.50507627227610541 -0.30304576336566325
0.84327404271156781 -0.52704627669472992 -0.10540925533894598
0.74926864926535519 -0.65561006810718581 -0.093658581158169399
0.74926864926535519 0.093658581158169399 -0.65561006810718581
0.72428596834014825 0.27160723812755561 -0.63375022229762967
0.80812203564176854 0.30304576336566325 -0.50507627227610541
0.84327404271156781 0.10540925533894598 -0.52704627669472992
0.68100522460699886 0.42562826537937432 -0.59587957153112403
0.62853936105470887 0.54997194092287027 -0.54997194092287027
0.68100522460699886 0.59587957153112403 -0.42562826537937432
0.74926864926535519 0.46829290579084698 -0.46829290579084698
0.80812203564176854 0.50507627227610541 -0.30304576336566325
0.72428596834014825 0.63375022229762967 -0.27160723812755561
0.74926864926535519 0.65561006810718581 -0.093658581158169399
0.84327404271156781 0.52704627669472992 -0.10540925533894598
0.92998110995055427 0.11624763874381928 -0.34874291623145787
0.88345220859877227 0.33129457822453962 -0.33129457822453962
0.92998110995055427 0.34874291623145787 -0.11624763874381928
0.98473192783466179 0.12309149097933272 -0.12309149097933272
0.98473192783466179 0.12309149097933272 0.12309149097933272
0.92998110995055427 0.34874291623145787 0.11624763874381928
0.88345220859877227 0.33129457822453962 0.33129457822453962
0.92998110995055427 0.11624763874381928 0.34874291623145787
0.84327404271156781 0.52704627669472992 0.10540925533894598
0.74926864926535519 0.65561006810718581 0.093658581158169399
0.72428596834014825 0.63375022229762967 0.27160723812755561
0.80812203564176854 0.50507627227610541 0.30304576336566325
0.74926864926535519 0.46829290579084698 0.46829290579084698
0.68100522460699886 0.59587957153112403 0.42562826537937432
0.62853936105470887 0.54997194092287027 0.54997194092287027
0.68100522460699886 0.42562826537937432 0.59587957153112403
0.84327404271156781 0.10540925533894598 0.52704627669472992
0.80812203564176854 0.30304576336566325 0.50507627227610541
0.72428596834014825 0.27160723812755561 0.63375022229762967
0.74926864926535519 0.093658581158169399 0.65561006810718581
0.74926864926535519 -0.65561006810718581 0.093658581158169399
0.84327404271156781 -0.52704627669472992 0.10540925533894598
0.80812203564176854 -0.50507627227610541 0.30304576336566325
0.72428596834014825 -0.63375022229762967 0.27160723812755561
0.92998110995055427 -0.34874291623145787 0.11624763874381928
0.98473192783466179 -0.12309149097933272 0.12309149097933272
0.92998110995055427 -0.11624763874381928 0.34874291623145787
0.88345220859877227 -0.33129457822453962 0.33129457822453962
0.80812203564176854 -0.30304576336566325 0.50507627227610541
0.84327404271156781 -0.10540925533894598 0.52704627669472992
0.74926864926535519 -0.093658581158169399 0.65561006810718581
0.72428596834014825 -0.27160723812755561 0.63375022229762967
0.68100522460699886 -0.59587957153112403 0.42562826537937432
0.74926864926535519 -0.46829290579084698 0.46829290579084698
0.68100522460699886 -0.42562826537937432 0.59587957153112403
0.62853936105470887 -0.54997194092287027 0.54997194092287027
0.54997194092287027 0.62853936105470887 -0.54997194092287027
0.42562826537937432 0.68100522460699886 -0.59587957153112403
0.46829290579084698 0.74926864926535519 -0.46829290579084698
0.59587957153112403 0.68100522460699886 -0.42562826537937432
0.27160723812755561 0.72428596834014825 -0.63375022229762967
0.093658581158169399 0.74926864926535519 -0.65561006810718581
0.10540925533894598 0.84327404271156781 -0.52704627669472992
0.30304576336566325 0.80812203564176854 -0.50507627227610541
0.33129457822453962 0.88345220859877227 -0.33129457822453962
0.11624763874381928 0.92998110995055427 -0.34874291623145787
0.12309149097933272 0.98473192783466179 -0.12309149097933272
0.34874291623145787 0.92998110995055427 -0.11624763874381928
0.63375022229762967 0.72428596834014825 -0.27160723812755561
0.50507627227610541 0.80812203564176854 -0.30304576336566325
0.52704627669472992 0.84327404271156781 -0.10540925533894598
0.65561006810718581 0.74926864926535519 -0.093658581158169399
-0.093658581158169399 0.74926864926535519 -0.65561006810718581
-0.27160723812755561 0.72428596834014825 -0.63375022229762967
-0.30304576336566325 0.80812203564176854 -0.50507627227610541
-0.10540925533894598 0.84327404271156781 -0.52704627669472992
-0.42562826537937432 0.68100522460699886 -0.59587957153112403
-0.54997194092287027 0.62853936105470887 -0.54997194092287027
-0.59587957153112403 0.68100522460699886 -0.42562826537937432
-0.46829290579084698 0.74926864926535519 -0.46829290579084698
-0.50507627227610541 0.80812203564176854 -0.30304576336566325
-0.63375022229762967 0.72428596834014825 -0.27160723812755561
-0.65561006810718581 0.74926864926535519 -0.093658581158169399
-0.52704627669472992 0.84327404271156781 -0.10540925533894598
-0.11624763874381928 0.92998110995055427 -0.34874291623145787
-0.33129457822453962 0.88345220859877227 -0.33129457822453962
-0.34874291623145787 0.92998110995055427 -0.11624763874381928
-0.12309149097933272 0.98473192783466179 -0.12309149097933272
-0.12309149097933272 0.98473192783466179 0.12309149097933272
-0.34874291623145787 0.92998110995055427 0.11624763874381928
-0.33129457822453962 0.88345220859877227 0.33129457822453962
-0.11624763874381928 0.92998110995055427 0.34874291623145787
-0.52704627669472992 0.84327404271156781 0.10540925533894598
-0.65561006810718581 0.74926864926535519 0.093658581158169399
-0.63375022229762967 0.72428596834014825 0.27160723812755561
-0.50507627227610541 0.80812203564176854 0.30304576336566325
-0.46829290579084698 0.74926864926535519 0.46829290579084698
-0.59587957153112403 0.68100522460699886 0.42562826537937432
-0.54997194092287027 0.62853936105470887 0.54997194092287027
-0.42562826537937432 0.68100522460699886 0.59587957153112403
-0.10540925533894598 0.84327404271156781 0.52704627669472992
-0.30304576336566325 0.80812203564176854 0.50507627227610541
-0.27160723812755561 0.72428596834014825 0.63375022229762967
-0.093658581158169399 0.74926864926535519 0.65561006810718581
0.65561006810718581 0.74926864926535519 0.093658581158169399
0.52704627669472992 0.84327404271156781 0.10540925533894598
0.50507627227610541 0.80812203564176854 0.30304576336566325
0.63375022229762967 0.72428596834014825 0.27160723812755561
0.34874291623145787 0.92998110995055427 0.11624763874381928
0.12309149097933272 0.98473192783466179 0.12309149097933272
0.11624763874381928 0.92998110995055427 0.34874291623145787
0.33129457822453962 0.88345220859877227 0.33129457822453962
0.30304576336566325 0.80812203564176854 0.50507627227610541
0.10540925533894598 0.84327404271156781 0.52704627669472992
0.093658581158169399 0.74926864926535519 0.65561006810718581
0.27160723812755561 0.72428596834014825 0.63375022229762967
0.59587957153112403 0.68100522460699886 0.42562826537937432
0.46829290579084698 0.74926864926535519 0.46829290579084698
0.42562826537937432 0.68100522460699886 0.59587957153112403
0.54997194092287027 0.62853936105470887 0.54997194092287027
-0.62853936105470887 0.54997194092287027 -0.54997194092287027
-0.68100522460699886 0.42562826537937432 -0.59587957153112403
-0.74926864926535519 0.46829290579084698 -0.46829290579084698
-0.68100522460699886 0.59587957153112403 -0.42562826537937432
-0.72428596834014825 0.27160723812755561 -0.63375022229762967
-0.74926864926535519 0.093658581158169399 -0.65561006810718581
-0.84327404271156781 0.10540925533894598 -0.52704627669472992
-0.80812203564176854 0.30304576336566325 -0.50507627227610541
-0.88345220859877227 0.33129457822453962 -0.33129457822453962
-0.92998110995055427 0.11624763874381928 -0.34874291623145787
-0.98473192783466179 0.12309149097933272 -0.12309149097933272
-0.92998110995055427 0.34874291623145787 -0.11624763874381928
-0.72428596834014825 0.63375022229762967 -0.27160723812755561
-0.80812203564176854 0.50507627227610541 -0.30304576336566325
-0.84327404271156781 0.52704627669472992 -0.10540925533894598
-0.74926864926535519 0.65561006810718581 -0.093658581158169399
-0.74926864926535519 -0.093658581158169399 -0.65561006810718581
-0.72428596834014825 -0.27160723812755561 -0.63375022229762967
-0.80812203564176854 -0.30304576336566325 -0.50507627227610541
-0.84327404271156781 -0.10540925533894598 -0.52704627669472992
-0.68100522460699886 -0.42562826537937432 -0.59587957153112403
-0.62853936105470887 -0.54997194092287027 -0.54997194092287027
-0.68100522460699886 -0.59587957153112403 -0.42562826537937432
-0.74926864926535519 -0.46829290579084698 -0.46829290579084698
-0.80812203564176854 -0.50507627227610541 -0.30304576336566325
-0.72428596834014825 -0.63375022229762967 -0.27160723812755561
-0.74926864926535519 -0.65561006810718581 -0.093658581158169399
-0.84327404271156781 -0.52704627669472992 -0.10540925533894598
-0.92998110995055427 -0.11624763874381928 -0.34874291623145787
-0.88345220859877227 -0.33129457822453962 -0.33129457822453962
-0.92998110995055427 -0.34874291623145787 -0.11624763874381928
-0.98473192783466179 -0.12309149097933272 -0.12309149097933272
-0.98473192783466179 -0.12309149097933272 0.12309149097933272
-0.92998110995055427 -0.34874291623145787 0.11624763874381928
-0.88345220859877227 -0.33129457822453962 0.33129457822453962
-0.92998110995055427 -0.11624763874381928 0.34874291623145787
-0.84327404271156781 -0.52704627669472992 0.10540925533894598
-0.74926864926535519 -0.65561006810718581 0.093658581158169399
-0.72428596834014825 -0.63375022229762967 0.27160723812755561
-0.80812203564176854 -0.50507627227610541 0.30304576336566325
-0.74926864926535519 -0.46829290579084698 0.46829290579084698
-0.68100522460699886 -0.59587957153112403 0.42562826537937432
-0.62853936105470887 -0.54997194092287027 0.54997194092287027
-0.68100522460699886 -0.42562826537937432 0.59587957153112403
-0.84327404271156781 -0.10540925533894598 0.52704627669472992
-0.80812203564176854 -0.30304576336566325 0.50507627227610541
-0.72428596834014825 -0.27160723812755561 0.63375022229762967
-0.74926864926535519 -0.093658581158169399 0.65561006810718581
-0.74926864926535519 0.65561006810718581 0.093658581158169399
-0.84327404271156781 0.52704627669472992 0.10540925533894598
-0.80812203564176854 0.50507627227610541 0.30304576336566325
-0.72428596834014825 0.63375022229762967 0.27160723812755561
-0.92998110995055427 0.34874291623145787 0.11624763874381928
-0.98473192783466179 0.12309149097933272 0.12309149097933272
-0.92998110995055427 0.11624763874381928 0.34874291623145787
-0.88345220859877227 0.33129457822453962 0.33129457822453962
-0.80812203564176854 0.30304576336566325 0.50507627227610541
-0.84327404271156781 0.10540925533894598 0.52704627669472992
-0.74926864926535519 0.093658581158169399 0.65561006810718581
-0.72428596834014825 0.27160723812755561 0.63375022229762967
-0.68100522460699886 0.59587957153112403 0.42562826537937432
-0.74926864926535519 0.46829290579084698 0.46829290579084698
-0.68100522460699886 0.42562826537937432 0.59587957153112403
-0.62853936105470887 0.54997194092287027 0.54997194092287027
-0.54997194092287027 -0.54997194092287027 0.62853936105470887
-0.42562826537937432 -0.59587957153112403 0.68100522460699886
-0.46829290579084698 -0.46829290579084698 0.74926864926535519
-0.59587957153112403 -0.42562826537937432 0.68100522460699886
-0.27160723812755561 -0.63375022229762967 0.72428596834014825
-0.093658581158169399 -0.65561006810718581 0.74926864926535519
-0.10540925533894598 -0.52704627669472992 0.84327404271156781
-0.30304576336566325 -0.50507627227610541 0.80812203564176854
-0.33129457822453962 -0.33129457822453962 0.88345220859877227
-0.11624763874381928 -0.34874291623145787 0.92998110995055427
-0.12309149097933272 -0.12309149097933272 0.98473192783466179
-0.34874291623145787 -0.11624763874381928 0.92998110995055427
-0.63375022229762967 -0.27160723812755561 0.72428596834014825
-0.50507627227610541 -0.30304576336566325 0.80812203564176854
-0.52704627669472992 -0.10540925533894598 0.84327404271156781
-0.65561006810718581 -0.093658581158169399 0.74926864926535519
0.093658581158169399 -0.65561006810718581 0.74926864926535519
0.27160723812755561 -0.63375022229762967 0.72428596834014825
0.30304576336566325 -0.50507627227610541 0.80812203564176854
0.10540925533894598 -0.52704627669472992 0.84327404271156781
0.42562826537937432 -0.59587957153112403 0.68100522460699886
0.54997194092287027 -0.54997194092287027 0.62853936105470887
0.59587957153112403 -0.42562826537937432 0.68100522460699886
0.46829290579084698 -0.46829290579084698 0.74926864926535519
0.50507627227610541 -0.30304576336566325 0.80812203564176854
0.63375022229762967 -0.27160723812755561 0.72428596834014825
0.65561006810718581 -0.093658581158169399 0.74926864926535519
0.52704627669472992 -0.10540925533894598 0.84327404271156781
0.11624763874381928 -0.34874291623145787 0.92998110995055427
0.33129457822453962 -0.33129457822453962 0.88345220859877227
0.34874291623145787 -0.11624763874381928 0.92998110995055427
0.12309149097933272 -0.12309149097933272 0.98473192783466179
0.12309149097933272 0.12309149097933272 0.98473192783466179
0.34874291623145787 0.11624763874381928 0.92998110995055427
0.33129457822453962 0.33129457822453962 0.88345220859877227
0.11624763874381928 0.34874291623145787 0.92998110995055427
0.52704627669472992 0.10540925533894598 0.84327404271156781
0.65561006810718581 0.093658581158169399 0.74926864926535519
0.63375022229762967 0.27160723812755561 0.72428596834014825
0.50507627227610541 0.30304576336566325 0.80812203564176854
0.46829290579084698 0.46829290579084698 0.74926864926535519
0.59587957153112403 0.42562826537937432 0.68100522460699886
0.54997194092287027 0.54997194092287027 0.62853936105470887
0.42562826537937432 0.59587957153112403 0.68100522460699886
0.10540925533894598 0.52704627669472992 0.84327404271156781
0.30304576336566325 0.50507627227610541 0.80812203564176854
0.27160723812755561 0.63375022229762967 0.72428596834014825
0.093658581158169399 0.65561006810718581 0.74926864926535519
-0.65561006810718581 0.093658581158169399 0.74926864926535519
-0.52704627669472992 0.10540925533894598 0.84327404271156781
-0.50507627227610541 0.30304576336566325 0.80812203564176854
-0.63375022229762967 0.27160723812755561 0.72428596834014825
-0.34874291623145787 0.11624763874381928 0.92998110995055427
-0.12309149097933272 0.12309149097933272 0.98473192783466179
-0.11624763874381928 0.34874291623145787 0.92998110995055427
-0.33129457822453962 0.33129457822453962 0.88345220859877227
-0.30304576336566325 0.50507627227610541 0.80812203564176854
-0.10540925533894598 0.52704627669472992 0.84327404271156781
-0.093658581158169399 0.65561006810718581 0.74926864926535519
-0.27160723812755561 0.63375022229762967 0.72428596834014825
-0.59587957153112403 0.42562826537937432 0.68100522460699886
-0.46829290579084698 0.46829290579084698 0.74926864926535519
-0.42562826537937432 0.59587957153112403 0.68100522460699886
-0.54997194092287027 0.54997194092287027 0.62853936105470887
