MFEM mesh v1.0

#
# MFEM Geometry Types (see fem/geom.hpp):
#
# POINT       = 0
# SEGMENT     = 1
# TRIANGLE    = 2
# SQUARE      = 3
# TETRAHEDRON = 4
# CUBE        = 5
# PRISM       = 6
# PYRAMID     = 7
#

dimension
2

elements
512
1 2 0 66 68
1 2 67 68 66
1 2 66 18 67
1 2 68 67 20
1 2 19 69 70
1 2 67 70 69
1 2 69 20 67
1 2 70 67 18
1 2 18 71 70
1 2 72 70 71
1 2 71 6 72
1 2 70 72 19
1 2 20 69 74
1 2 73 74 69
1 2 69 19 73
1 2 74 73 8
1 2 7 75 77
1 2 76 77 75
1 2 75 21 76
1 2 77 76 22
1 2 19 78 79
1 2 76 79 78
1 2 78 22 76
1 2 79 76 21
1 2 21 80 79
1 2 73 79 80
1 2 80 8 73
1 2 79 73 19
1 2 22 78 81
1 2 72 81 78
1 2 78 19 72
1 2 81 72 6
1 2 6 82 81
1 2 83 81 82
1 2 82 23 83
1 2 81 83 22
1 2 24 84 85
1 2 83 85 84
1 2 84 22 83
1 2 85 83 23
1 2 23 86 85
1 2 87 85 86
1 2 86 1 87
1 2 85 87 24
1 2 22 84 77
1 2 88 77 84
1 2 84 24 88
1 2 77 88 7
1 2 8 80 90
1 2 89 90 80
1 2 80 21 89
1 2 90 89 26
1 2 25 91 92
1 2 89 92 91
1 2 91 26 89
1 2 92 89 21
1 2 21 75 92
1 2 93 92 75
1 2 75 7 93
1 2 92 93 25
1 2 26 91 95
1 2 94 95 91
1 2 91 25 94
1 2 95 94 4
2 2 1 96 87
2 2 97 87 96
2 2 96 27 97
2 2 87 97 24
2 2 28 98 99
2 2 97 99 98
2 2 98 24 97
2 2 99 97 27
2 2 27 100 99
2 2 101 99 100
2 2 100 9 101
2 2 99 101 28
2 2 24 98 88
2 2 102 88 98
2 2 98 28 102
2 2 88 102 7
2 2 10 103 105
2 2 104 105 103
2 2 103 29 104
2 2 105 104 30
2 2 28 106 107
2 2 104 107 106
2 2 106 30 104
2 2 107 104 29
2 2 29 108 107
2 2 102 107 108
2 2 108 7 102
2 2 107 102 28
2 2 30 106 109
2 2 101 109 106
2 2 106 28 101
2 2 109 101 9
2 2 9 110 109
2 2 111 109 110
2 2 110 31 111
2 2 109 111 30
2 2 32 112 113
2 2 111 113 112
2 2 112 30 111
2 2 113 111 31
2 2 31 114 113
2 2 115 113 114
2 2 114 2 115
2 2 113 115 32
2 2 30 112 105
2 2 116 105 112
2 2 112 32 116
2 2 105 116 10
2 2 7 108 93
2 2 117 93 108
2 2 108 29 117
2 2 93 117 25
2 2 33 118 119
2 2 117 119 118
2 2 118 25 117
2 2 119 117 29
2 2 29 103 119
2 2 120 119 103
2 2 103 10 120
2 2 119 120 33
2 2 25 118 94
2 2 121 94 118
2 2 118 33 121
2 2 94 121 4
3 2 2 122 115
3 2 123 115 122
3 2 122 34 123
3 2 115 123 32
3 2 35 124 125
3 2 123 125 124
3 2 124 32 123
3 2 125 123 34
3 2 34 126 125
3 2 127 125 126
3 2 126 11 127
3 2 125 127 35
3 2 32 124 116
3 2 128 116 124
3 2 124 35 128
3 2 116 128 10
3 2 12 129 131
3 2 130 131 129
3 2 129 36 130
3 2 131 130 37
3 2 35 132 133
3 2 130 133 132
3 2 132 37 130
3 2 133 130 36
3 2 36 134 133
3 2 128 133 134
3 2 134 10 128
3 2 133 128 35
3 2 37 132 135
3 2 127 135 132
3 2 132 35 127
3 2 135 127 11
3 2 11 136 135
3 2 137 135 136
3 2 136 38 137
3 2 135 137 37
3 2 39 138 139
3 2 137 139 138
3 2 138 37 137
3 2 139 137 38
3 2 38 140 139
3 2 141 139 140
3 2 140 3 141
3 2 139 141 39
3 2 37 138 131
3 2 142 131 138
3 2 138 39 142
3 2 131 142 12
3 2 10 134 120
3 2 143 120 134
3 2 134 36 143
3 2 120 143 33
3 2 40 144 145
3 2 143 145 144
3 2 144 33 143
3 2 145 143 36
3 2 36 129 145
3 2 146 145 129
3 2 129 12 146
3 2 145 146 40
3 2 33 144 121
3 2 147 121 144
3 2 144 40 147
3 2 121 147 4
4 2 3 148 141
4 2 149 141 148
4 2 148 41 149
4 2 141 149 39
4 2 42 150 151
4 2 149 151 150
4 2 150 39 149
4 2 151 149 41
4 2 41 152 151
4 2 153 151 152
4 2 152 13 153
4 2 151 153 42
4 2 39 150 142
4 2 154 142 150
4 2 150 42 154
4 2 142 154 12
4 2 8 155 157
4 2 156 157 155
4 2 155 43 156
4 2 157 156 44
4 2 42 158 159
4 2 156 159 158
4 2 158 44 156
4 2 159 156 43
4 2 43 160 159
4 2 154 159 160
4 2 160 12 154
4 2 159 154 42
4 2 44 158 161
4 2 153 161 158
4 2 158 42 153
4 2 161 153 13
4 2 13 162 161
4 2 163 161 162
4 2 162 45 163
4 2 161 163 44
4 2 20 164 165
4 2 163 165 164
4 2 164 44 163
4 2 165 163 45
4 2 45 166 165
4 2 68 165 166
4 2 166 0 68
4 2 165 68 20
4 2 44 164 157
4 2 74 157 164
4 2 164 20 74
4 2 157 74 8
4 2 12 160 146
4 2 167 146 160
4 2 160 43 167
4 2 146 167 40
4 2 26 168 169
4 2 167 169 168
4 2 168 40 167
4 2 169 167 43
4 2 43 155 169
4 2 90 169 155
4 2 155 8 90
4 2 169 90 26
4 2 40 168 147
4 2 95 147 168
4 2 168 26 95
4 2 147 95 4
5 2 1 86 171
5 2 170 171 86
5 2 86 23 170
5 2 171 170 47
5 2 46 172 173
5 2 170 173 172
5 2 172 47 170
5 2 173 170 23
5 2 23 82 173
5 2 174 173 82
5 2 82 6 174
5 2 173 174 46
5 2 47 172 176
5 2 175 176 172
5 2 172 46 175
5 2 176 175 15
5 2 14 177 179
5 2 178 179 177
5 2 177 48 178
5 2 179 178 49
5 2 46 180 181
5 2 178 181 180
5 2 180 49 178
5 2 181 178 48
5 2 48 182 181
5 2 175 181 182
5 2 182 15 175
5 2 181 175 46
5 2 49 180 183
5 2 174 183 180
5 2 180 46 174
5 2 183 174 6
5 2 6 71 183
5 2 184 183 71
5 2 71 18 184
5 2 183 184 49
5 2 50 185 186
5 2 184 186 185
5 2 185 49 184
5 2 186 184 18
5 2 18 66 186
5 2 187 186 66
5 2 66 0 187
5 2 186 187 50
5 2 49 185 179
5 2 188 179 185
5 2 185 50 188
5 2 179 188 14
5 2 15 182 190
5 2 189 190 182
5 2 182 48 189
5 2 190 189 52
5 2 51 191 192
5 2 189 192 191
5 2 191 52 189
5 2 192 189 48
5 2 48 177 192
5 2 193 192 177
5 2 177 14 193
5 2 192 193 51
5 2 52 191 195
5 2 194 195 191
5 2 191 51 194
5 2 195 194 5
6 2 2 114 197
6 2 196 197 114
6 2 114 31 196
6 2 197 196 54
6 2 53 198 199
6 2 196 199 198
6 2 198 54 196
6 2 199 196 31
6 2 31 110 199
6 2 200 199 110
6 2 110 9 200
6 2 199 200 53
6 2 54 198 202
6 2 201 202 198
6 2 198 53 201
6 2 202 201 16
6 2 15 203 205
6 2 204 205 203
6 2 203 55 204
6 2 205 204 56
6 2 53 206 207
6 2 204 207 206
6 2 206 56 204
6 2 207 204 55
6 2 55 208 207
6 2 201 207 208
6 2 208 16 201
6 2 207 201 53
6 2 56 206 209
6 2 200 209 206
6 2 206 53 200
6 2 209 200 9
6 2 9 100 209
6 2 210 209 100
6 2 100 27 210
6 2 209 210 56
6 2 47 211 212
6 2 210 212 211
6 2 211 56 210
6 2 212 210 27
6 2 27 96 212
6 2 171 212 96
6 2 96 1 171
6 2 212 171 47
6 2 56 211 205
6 2 176 205 211
6 2 211 47 176
6 2 205 176 15
6 2 16 208 214
6 2 213 214 208
6 2 208 55 213
6 2 214 213 57
6 2 52 215 216
6 2 213 216 215
6 2 215 57 213
6 2 216 213 55
6 2 55 203 216
6 2 190 216 203
6 2 203 15 190
6 2 216 190 52
6 2 57 215 217
6 2 195 217 215
6 2 215 52 195
6 2 217 195 5
7 2 3 140 219
7 2 218 219 140
7 2 140 38 218
7 2 219 218 59
7 2 58 220 221
7 2 218 221 220
7 2 220 59 218
7 2 221 218 38
7 2 38 136 221
7 2 222 221 136
7 2 136 11 222
7 2 221 222 58
7 2 59 220 224
7 2 223 224 220
7 2 220 58 223
7 2 224 223 17
7 2 16 225 227
7 2 226 227 225
7 2 225 60 226
7 2 227 226 61
7 2 58 228 229
7 2 226 229 228
7 2 228 61 226
7 2 229 226 60
7 2 60 230 229
7 2 223 229 230
7 2 230 17 223
7 2 229 223 58
7 2 61 228 231
7 2 222 231 228
7 2 228 58 222
7 2 231 222 11
7 2 11 126 231
7 2 232 231 126
7 2 126 34 232
7 2 231 232 61
7 2 54 233 234
7 2 232 234 233
7 2 233 61 232
7 2 234 232 34
7 2 34 122 234
7 2 197 234 122
7 2 122 2 197
7 2 234 197 54
7 2 61 233 227
7 2 202 227 233
7 2 233 54 202
7 2 227 202 16
7 2 17 230 236
7 2 235 236 230
7 2 230 60 235
7 2 236 235 62
7 2 57 237 238
7 2 235 238 237
7 2 237 62 235
7 2 238 235 60
7 2 60 225 238
7 2 214 238 225
7 2 225 16 214
7 2 238 214 57
7 2 62 237 239
7 2 217 239 237
7 2 237 57 217
7 2 239 217 5
8 2 0 166 187
8 2 240 187 166
8 2 166 45 240
8 2 187 240 50
8 2 63 241 242
8 2 240 242 241
8 2 241 50 240
8 2 242 240 45
8 2 45 162 242
8 2 243 242 162
8 2 162 13 243
8 2 242 243 63
8 2 50 241 188
8 2 244 188 241
8 2 241 63 244
8 2 188 244 14
8 2 17 245 247
8 2 246 247 245
8 2 245 64 246
8 2 247 246 65
8 2 63 248 249
8 2 246 249 248
8 2 248 65 246
8 2 249 246 64
8 2 64 250 249
8 2 244 249 250
8 2 250 14 244
8 2 249 244 63
8 2 65 248 251
8 2 243 251 248
8 2 248 63 243
8 2 251 243 13
8 2 13 152 251
8 2 252 251 152
8 2 152 41 252
8 2 251 252 65
8 2 59 253 254
8 2 252 254 253
8 2 253 65 252
8 2 254 252 41
8 2 41 148 254
8 2 219 254 148
8 2 148 3 219
8 2 254 219 59
8 2 65 253 247
8 2 224 247 253
8 2 253 59 224
8 2 247 224 17
8 2 14 250 193
8 2 255 193 250
8 2 250 64 255
8 2 193 255 51
8 2 62 256 257
8 2 255 257 256
8 2 256 51 255
8 2 257 255 64
8 2 64 245 257
8 2 236 257 245
8 2 245 17 236
8 2 257 236 62
8 2 51 256 194
8 2 239 194 256
8 2 256 62 239
8 2 194 239 5

boundary
0

vertices
258

nodes
FiniteElementSpace
FiniteElementCollection: H1_2D_P2
VDim: 3
Ordering: 1

1 0 0
0 1 0
-1 0 0
0 -1 0
0 0 1
0 0 -1
0.70710678118654746 0.70710678118654746 0
0 0.70710678118654746 0.70710678118654746
0.70710678118654746 0 0.70710678118654746
-0.70710678118654746 0.70710678118654746 0
-0.70710678118654746 0 0.70710678118654746
-0.70710678118654746 -0.70710678118654746 0
0 -0.70710678118654746 0.70710678118654746
0.70710678118654746 -0.70710678118654746 0
0.70710678118654746 0 -0.70710678118654746
0 0.70710678118654746 -0.70710678118654746
-0.70710678118654746 0 -0.70710678118654746
0 -0.70710678118654746 -0.70710678118654746
0.94868329805051377 0.31622776601683794 0
0.81649658092772615 0.40824829046386307 0.40824829046386307
0.94868329805051377 0 0.31622776601683794
0.40824829046386307 0.40824829046386307 0.81649658092772615
0.40824829046386307 0.81649658092772615 0.40824829046386307
0.31622776601683794 0.94868329805051377 0
0 0.94868329805051377 0.31622776601683794
0 0.31622776601683794 0.94868329805051377
0.31622776601683794 0 0.94868329805051377
-0.31622776601683794 0.94868329805051377 0
-0.40824829046386307 0.81649658092772615 0.40824829046386307
-0.40824829046386307 0.40824829046386307 0.81649658092772615
-0.81649658092772615 0.40824829046386307 0.40824829046386307
-0.94868329805051377 0.31622776601683794 0
-0.94868329805051377 0 0.31622776601683794
-0.31622776601683794 0 0.94868329805051377
-0.94868329805051377 -0.31622776601683794 0
-0.81649658092772615 -0.40824829046386307 0.40824829046386307
-0.40824829046386307 -0.40824829046386307 0.81649658092772615
-0.40824829046386307 -0.81649658092772615 0.40824829046386307
-0.31622776601683794 -0.94868329805051377 0
0 -0.94868329805051377 0.31622776601683794
0 -0.31622776601683794 0.94868329805051377
0.31622776601683794 -0.94868329805051377 0
0.40824829046386307 -0.81649658092772615 0.40824829046386307
0.40824829046386307 -0.40824829046386307 0.81649658092772615
0.81649658092772615 -0.40824829046386307 0.40824829046386307
0.94868329805051377 -0.31622776601683794 0
0.40824829046386307 0.81649658092772615 -0.40824829046386307
0 0.94868329805051377 -0.31622776601683794
0.40824829046386307 0.40824829046386307 -0.81649658092772615
0.81649658092772615 0.40824829046386307 -0.40824829046386307
0.94868329805051377 0 -0.31622776601683794
0.31622776601683794 0 -0.94868329805051377
0 0.31622776601683794 -0.94868329805051377
-0.81649658092772615 0.40824829046386307 -0.40824829046386307
-0.94868329805051377 0 -0.31622776601683794
-0.40824829046386307 0.40824829046386307 -0.81649658092772615
-0.40824829046386307 0.81649658092772615 -0.40824829046386307
-0.31622776601683794 0 -0.94868329805051377
-0.40824829046386307 -0.81649658092772615 -0.40824829046386307
0 -0.94868329805051377 -0.31622776601683794
-0.40824829046386307 -0.40824829046386307 -0.81649658092772615
-0.81649658092772615 -0.40824829046386307 -0.40824829046386307
0 -0.31622776601683794 -0.94868329805051377
0.81649658092772615 -0.40824829046386307 -0.40824829046386307
0.40824829046386307 -0.40824829046386307 -0.81649658092772615
0.40824829046386307 -0.81649658092772615 -0.40824829046386307
0.98994949366116647 0.1414213562373095 0
0.97332852678457527 0.16222142113076254 0.16222142113076254
0.98994949366116647 0 0.1414213562373095
0.9128709291752769 0.18257418583505536 0.36514837167011072
0.9128709291752769 0.36514837167011072 0.18257418583505536
0.8574929257125441 0.51449575542752646 0
0.78446454055273618 0.58834840541455213 0.19611613513818404
0.78446454055273618 0.19611613513818404 0.58834840541455213
0.8574929257125441 0 0.51449575542752646
0.19611613513818404 0.58834840541455213 0.78446454055273618
0.42640143271122083 0.63960214906683133 0.63960214906683133
0.19611613513818404 0.78446454055273618 0.58834840541455213
0.63960214906683133 0.63960214906683133 0.42640143271122083
0.63960214906683133 0.42640143271122083 0.63960214906683133
0.58834840541455213 0.19611613513818404 0.78446454055273618
0.58834840541455213 0.78446454055273618 0.19611613513818404
0.51449575542752646 0.8574929257125441 0
0.36514837167011072 0.9128709291752769 0.18257418583505536
0.18257418583505536 0.9128709291752769 0.36514837167011072
0.16222142113076254 0.97332852678457527 0.16222142113076254
0.1414213562373095 0.98994949366116647 0
0 0.98994949366116647 0.1414213562373095
0 0.8574929257125441 0.51449575542752646
0.36514837167011072 0.18257418583505536 0.9128709291752769
0.51449575542752646 0 0.8574929257125441
0.16222142113076254 0.16222142113076254 0.97332852678457527
0.18257418583505536 0.36514837167011072 0.9128709291752769
0 0.51449575542752646 0.8574929257125441
0 0.1414213562373095 0.98994949366116647
0.1414213562373095 0 0.98994949366116647
-0.1414213562373095 0.98994949366116647 0
-0.16222142113076254 0.97332852678457527 0.16222142113076254
-0.18257418583505536 0.9128709291752769 0.36514837167011072
-0.36514837167011072 0.9128709291752769 0.18257418583505536
-0.51449575542752646 0.8574929257125441 0
-0.58834840541455213 0.78446454055273618 0.19611613513818404
-0.19611613513818404 0.78446454055273618 0.58834840541455213
-0.58834840541455213 0.19611613513818404 0.78446454055273618
-0.63960214906683133 0.42640143271122083 0.63960214906683133
-0.78446454055273618 0.19611613513818404 0.58834840541455213
-0.63960214906683133 0.63960214906683133 0.42640143271122083
-0.42640143271122083 0.63960214906683133 0.63960214906683133
-0.19611613513818404 0.58834840541455213 0.78446454055273618
-0.78446454055273618 0.58834840541455213 0.19611613513818404
-0.8574929257125441 0.51449575542752646 0
-0.9128709291752769 0.36514837167011072 0.18257418583505536
-0.9128709291752769 0.18257418583505536 0.36514837167011072
-0.97332852678457527 0.16222142113076254 0.16222142113076254
-0.98994949366116647 0.1414213562373095 0
-0.98994949366116647 0 0.1414213562373095
-0.8574929257125441 0 0.51449575542752646
-0.18257418583505536 0.36514837167011072 0.9128709291752769
-0.16222142113076254 0.16222142113076254 0.97332852678457527
-0.36514837167011072 0.18257418583505536 0.9128709291752769
-0.51449575542752646 0 0.8574929257125441
-0.1414213562373095 0 0.98994949366116647
-0.98994949366116647 -0.1414213562373095 0
-0.97332852678457527 -0.16222142113076254 0.16222142113076254
-0.9128709291752769 -0.18257418583505536 0.36514837167011072
-0.9128709291752769 -0.36514837167011072 0.18257418583505536
-0.8574929257125441 -0.51449575542752646 0
-0.78446454055273618 -0.58834840541455213 0.19611613513818404
-0.78446454055273618 -0.19611613513818404 0.58834840541455213
-0.19611613513818404 -0.58834840541455213 0.78446454055273618
-0.42640143271122083 -0.63960214906683133 0.63960214906683133
-0.19611613513818404 -0.78446454055273618 0.58834840541455213
-0.63960214906683133 -0.63960214906683133 0.42640143271122083
-0.63960214906683133 -0.42640143271122083 0.63960214906683133
-0.58834840541455213 -0.19611613513818404 0.78446454055273618
-0.58834840541455213 -0.78446454055273618 0.19611613513818404
-0.51449575542752646 -0.8574929257125441 0
-0.36514837167011072 -0.9128709291752769 0.18257418583505536
-0.18257418583505536 -0.9128709291752769 0.36514837167011072
-0.16222142113076254 -0.97332852678457527 0.16222142113076254
-0.1414213562373095 -0.98994949366116647 0
0 -0.98994949366116647 0.1414213562373095
0 -0.8574929257125441 0.51449575542752646
-0.36514837167011072 -0.18257418583505536 0.9128709291752769
-0.16222142113076254 -0.16222142113076254 0.97332852678457527
-0.18257418583505536 -0.36514837167011072 0.9128709291752769
0 -0.51449575542752646 0.8574929257125441
0 -0.1414213562373095 0.98994949366116647
0.1414213562373095 -0.98994949366116647 0
0.16222142113076254 -0.97332852678457527 0.16222142113076254
0.18257418583505536 -0.9128709291752769 0.36514837167011072
0.36514837167011072 -0.9128709291752769 0.18257418583505536
0.51449575542752646 -0.8574929257125441 0
0.58834840541455213 -0.78446454055273618 0.19611613513818404
0.19611613513818404 -0.78446454055273618 0.58834840541455213
0.58834840541455213 -0.19611613513818404 0.78446454055273618
0.63960214906683133 -0.42640143271122083 0.63960214906683133
0.78446454055273618 -0.19611613513818404 0.58834840541455213
0.63960214906683133 -0.63960214906683133 0.42640143271122083
0.42640143271122083 -0.63960214906683133 0.63960214906683133
0.19611613513818404 -0.58834840541455213 0.78446454055273618
0.78446454055273618 -0.58834840541455213 0.19611613513818404
0.8574929257125441 -0.51449575542752646 0
0.9128709291752769 -0.36514837167011072 0.18257418583505536
0.9128709291752769 -0.18257418583505536 0.36514837167011072
0.97332852678457527 -0.16222142113076254 0.16222142113076254
0.98994949366116647 -0.1414213562373095 0
0.18257418583505536 -0.36514837167011072 0.9128709291752769
0.16222142113076254 -0.16222142113076254 0.97332852678457527
0.36514837167011072 -0.18257418583505536 0.9128709291752769
0.16222142113076254 0.97332852678457527 -0.16222142113076254
0 0.98994949366116647 -0.1414213562373095
0.18257418583505536 0.9128709291752769 -0.36514837167011072
0.36514837167011072 0.9128709291752769 -0.18257418583505536
0.58834840541455213 0.78446454055273618 -0.19611613513818404
0.19611613513818404 0.78446454055273618 -0.58834840541455213
0 0.8574929257125441 -0.51449575542752646
0.58834840541455213 0.19611613513818404 -0.78446454055273618
0.63960214906683133 0.42640143271122083 -0.63960214906683133
0.78446454055273618 0.19611613513818404 -0.58834840541455213
0.63960214906683133 0.63960214906683133 -0.42640143271122083
0.42640143271122083 0.63960214906683133 -0.63960214906683133
0.19611613513818404 0.58834840541455213 -0.78446454055273618
0.78446454055273618 0.58834840541455213 -0.19611613513818404
0.9128709291752769 0.36514837167011072 -0.18257418583505536
0.9128709291752769 0.18257418583505536 -0.36514837167011072
0.97332852678457527 0.16222142113076254 -0.16222142113076254
0.98994949366116647 0 -0.1414213562373095
0.8574929257125441 0 -0.51449575542752646
0.18257418583505536 0.36514837167011072 -0.9128709291752769
0 0.51449575542752646 -0.8574929257125441
0.16222142113076254 0.16222142113076254 -0.97332852678457527
0.36514837167011072 0.18257418583505536 -0.9128709291752769
0.51449575542752646 0 -0.8574929257125441
0.1414213562373095 0 -0.98994949366116647
0 0.1414213562373095 -0.98994949366116647
-0.97332852678457527 0.16222142113076254 -0.16222142113076254
-0.98994949366116647 0 -0.1414213562373095
-0.9128709291752769 0.18257418583505536 -0.36514837167011072
-0.9128709291752769 0.36514837167011072 -0.18257418583505536
-0.78446454055273618 0.58834840541455213 -0.19611613513818404
-0.78446454055273618 0.19611613513818404 -0.58834840541455213
-0.8574929257125441 0 -0.51449575542752646
-0.19611613513818404 0.58834840541455213 -0.78446454055273618
-0.42640143271122083 0.63960214906683133 -0.63960214906683133
-0.19611613513818404 0.78446454055273618 -0.58834840541455213
-0.63960214906683133 0.63960214906683133 -0.42640143271122083
-0.63960214906683133 0.42640143271122083 -0.63960214906683133
-0.58834840541455213 0.19611613513818404 -0.78446454055273618
-0.58834840541455213 0.78446454055273618 -0.19611613513818404
-0.36514837167011072 0.9128709291752769 -0.18257418583505536
-0.18257418583505536 0.9128709291752769 -0.36514837167011072
-0.16222142113076254 0.97332852678457527 -0.16222142113076254
-0.36514837167011072 0.18257418583505536 -0.9128709291752769
-0.51449575542752646 0 -0.8574929257125441
-0.16222142113076254 0.16222142113076254 -0.97332852678457527
-0.18257418583505536 0.36514837167011072 -0.9128709291752769
-0.1414213562373095 0 -0.98994949366116647
-0.16222142113076254 -0.97332852678457527 -0.16222142113076254
0 -0.98994949366116647 -0.1414213562373095
-0.18257418583505536 -0.9128709291752769 -0.36514837167011072
-0.36514837167011072 -0.9128709291752769 -0.18257418583505536
-0.58834840541455213 -0.78446454055273618 -0.19611613513818404
-0.19611613513818404 -0.78446454055273618 -0.58834840541455213
0 -0.8574929257125441 -0.51449575542752646
-0.58834840541455213 -0.19611613513818404 -0.78446454055273618
-0.63960214906683133 -0.42640143271122083 -0.63960214906683133
-0.78446454055273618 -0.19611613513818404 -0.58834840541455213
-0.63960214906683133 -0.63960214906683133 -0.42640143271122083
-0.42640143271122083 -0.63960214906683133 -0.63960214906683133
-0.19611613513818404 -0.58834840541455213 -0.78446454055273618
-0.78446454055273618 -0.58834840541455213 -0.19611613513818404
-0.9128709291752769 -0.36514837167011072 -0.18257418583505536
-0.9128709291752769 -0.18257418583505536 -0.36514837167011072
-0.97332852678457527 -0.16222142113076254 -0.16222142113076254
-0.18257418583505536 -0.36514837167011072 -0.9128709291752769
0 -0.51449575542752646 -0.8574929257125441
-0.16222142113076254 -0.16222142113076254 -0.97332852678457527
-0.36514837167011072 -0.18257418583505536 -0.9128709291752769
0 -0.1414213562373095 -0.98994949366116647
0.97332852678457527 -0.16222142113076254 -0.16222142113076254
0.9128709291752769 -0.18257418583505536 -0.36514837167011072
0.9128709291752769 -0.36514837167011072 -0.18257418583505536
0.78446454055273618 -0.58834840541455213 -0.19611613513818404
0.78446454055273618 -0.19611613513818404 -0.58834840541455213
0.19611613513818404 -0.58834840541455213 -0.78446454055273618
0.42640143271122083 -0.63960214906683133 -0.63960214906683133
0.19611613513818404 -0.78446454055273618 -0.58834840541455213
0.63960214906683133 -0.63960214906683133 -0.42640143271122083
0.63960214906683133 -0.42640143271122083 -0.63960214906683133
0.58834840541455213 -0.19611613513818404 -0.78446454055273618
0.58834840541455213 -0.78446454055273618 -0.19611613513818404
0.36514837167011072 -0.9128709291752769 -0.18257418583505536
0.18257418583505536 -0.9128709291752769 -0.36514837167011072
0.16222142113076254 -0.97332852678457527 -0.16222142113076254
0.36514837167011072 -0.18257418583505536 -0.9128709291752769
0.16222142113076254 -0.16222142113076254 -0.97332852678457527
0.18257418583505536 -0.36514837167011072 -0.9128709291752769
0.99778515785660893 0.06651901052377393 0
0.9949366763261821 0.071066905451870152 0.071066905451870152
0.99778515785660893 0 0.06651901052377393
0.98552745665257435 0.075809804357890337 0.15161960871578067
0.98552745665257435 0.15161960871578067 0.075809804357890337
0.97439119569461985 0.22485950669875843 0
0.96698755683045634 0.24174688920761409 0.080582296402538028
0.96698755683045634 0.080582296402538028 0.24174688920761409
0.97439119569461985 0 0.22485950669875843
0.87415727612153771 0.29138575870717925 0.38851434494290565
0.9205746178983234 0.27617238536949701 0.27617238536949701
0.87415727612153771 0.38851434494290565 0.29138575870717925
0.95025526813949612 0.25916052767440806 0.17277368511627203
0.95025526813949612 0.17277368511627203 0.25916052767440806
0.93638218383462346 0.085125653075874858 0.34050261230349943
0.93638218383462346 0.34050261230349943 0.085125653075874858
0.91036647746260468 0.41380294430118397 0
0.89087080637474791 0.44543540318737396 0.089087080637474794
0.85811633032103307 0.47673129462279618 0.19069251784911848
0.82851715610849108 0.55234477073899402 0.092057461789832346
0.78935221737632633 0.61394061351492046 0
0.74926864926535519 0.65561006810718581 0.093658581158169399
0.80812203564176854 0.50507627227610541 0.30304576336566325
0.89087080637474791 0.089087080637474794 0.44543540318737396
0.91036647746260468 0 0.41380294430118397
0.82851715610849108 0.092057461789832346 0.55234477073899402
0.85811633032103307 0.19069251784911848 0.47673129462279618
0.80812203564176854 0.30304576336566325 0.50507627227610541
0.74926864926535519 0.093658581158169399 0.65561006810718581
0.78935221737632633 0 0.61394061351492046
0.093658581158169399 0.65561006810718581 0.74926864926535519
0.19802950859533489 0.69310328008367206 0.69310328008367206
0.093658581158169399 0.74926864926535519 0.65561006810718581
0.30942637387763799 0.72199487238115534 0.61885274775527599
0.30942637387763799 0.61885274775527599 0.72199487238115534
0.30304576336566325 0.50507627227610541 0.80812203564176854
0.4216370213557839 0.52704627669472992 0.73786478737262184
0.4216370213557839 0.73786478737262184 0.52704627669472992
0.30304576336566325 0.80812203564176854 0.50507627227610541
0.73786478737262184 0.52704627669472992 0.4216370213557839
0.64699663922063044 0.53916386601719202 0.53916386601719202
0.73786478737262184 0.4216370213557839 0.52704627669472992
0.53916386601719202 0.53916386601719202 0.64699663922063044
0.53916386601719202 0.64699663922063044 0.53916386601719202
0.52704627669472992 0.73786478737262184 0.4216370213557839
0.52704627669472992 0.4216370213557839 0.73786478737262184
0.50507627227610541 0.30304576336566325 0.80812203564176854
0.61885274775527599 0.30942637387763799 0.72199487238115534
0.72199487238115534 0.30942637387763799 0.61885274775527599
0.69310328008367206 0.19802950859533489 0.69310328008367206
0.65561006810718581 0.093658581158169399 0.74926864926535519
0.61885274775527599 0.72199487238115534 0.30942637387763799
0.50507627227610541 0.80812203564176854 0.30304576336566325
0.69310328008367206 0.69310328008367206 0.19802950859533489
0.72199487238115534 0.61885274775527599 0.30942637387763799
0.65561006810718581 0.74926864926535519 0.093658581158169399
0.61394061351492046 0.78935221737632633 0
0.55234477073899402 0.82851715610849108 0.092057461789832346
0.47673129462279618 0.85811633032103307 0.19069251784911848
0.44543540318737396 0.89087080637474791 0.089087080637474794
0.41380294430118397 0.91036647746260468 0
0.34050261230349943 0.93638218383462346 0.085125653075874858
0.38851434494290565 0.87415727612153771 0.29138575870717925
0.085125653075874858 0.93638218383462346 0.34050261230349943
0.17277368511627203 0.95025526813949612 0.25916052767440806
0.080582296402538028 0.96698755683045634 0.24174688920761409
0.25916052767440806 0.95025526813949612 0.17277368511627203
0.27617238536949701 0.9205746178983234 0.27617238536949701
0.29138575870717925 0.87415727612153771 0.38851434494290565
0.24174688920761409 0.96698755683045634 0.080582296402538028
0.22485950669875843 0.97439119569461985 0
0.15161960871578067 0.98552745665257435 0.075809804357890337
0.075809804357890337 0.98552745665257435 0.15161960871578067
0.071066905451870152 0.9949366763261821 0.071066905451870152
0.06651901052377393 0.99778515785660893 0
0 0.99778515785660893 0.06651901052377393
0 0.97439119569461985 0.22485950669875843
0.19069251784911848 0.85811633032103307 0.47673129462279618
0.092057461789832346 0.82851715610849108 0.55234477073899402
0.089087080637474794 0.89087080637474791 0.44543540318737396
0 0.91036647746260468 0.41380294430118397
0 0.78935221737632633 0.61394061351492046
0.55234477073899402 0.092057461789832346 0.82851715610849108
0.61394061351492046 0 0.78935221737632633
0.44543540318737396 0.089087080637474794 0.89087080637474791
0.47673129462279618 0.19069251784911848 0.85811633032103307
0.38851434494290565 0.29138575870717925 0.87415727612153771
0.34050261230349943 0.085125653075874858 0.93638218383462346
0.41380294430118397 0 0.91036647746260468
0.080582296402538028 0.24174688920761409 0.96698755683045634
0.17277368511627203 0.25916052767440806 0.95025526813949612
0.085125653075874858 0.34050261230349943 0.93638218383462346
0.27617238536949701 0.27617238536949701 0.9205746178983234
0.25916052767440806 0.17277368511627203 0.95025526813949612
0.24174688920761409 0.080582296402538028 0.96698755683045634
0.29138575870717925 0.38851434494290565 0.87415727612153771
0.19069251784911848 0.47673129462279618 0.85811633032103307
0.089087080637474794 0.44543540318737396 0.89087080637474791
0.092057461789832346 0.55234477073899402 0.82851715610849108
0 0.61394061351492046 0.78935221737632633
0 0.41380294430118397 0.91036647746260468
0.15161960871578067 0.075809804357890337 0.98552745665257435
0.22485950669875843 0 0.97439119569461985
0.071066905451870152 0.071066905451870152 0.9949366763261821
0.075809804357890337 0.15161960871578067 0.98552745665257435
0 0.22485950669875843 0.97439119569461985
0 0.06651901052377393 0.99778515785660893
0.06651901052377393 0 0.99778515785660893
-0.06651901052377393 0.99778515785660893 0
-0.071066905451870152 0.9949366763261821 0.071066905451870152
-0.075809804357890337 0.98552745665257435 0.15161960871578067
-0.15161960871578067 0.98552745665257435 0.075809804357890337
-0.22485950669875843 0.97439119569461985 0
-0.24174688920761409 0.96698755683045634 0.080582296402538028
-0.080582296402538028 0.96698755683045634 0.24174688920761409
-0.29138575870717925 0.87415727612153771 0.38851434494290565
-0.27617238536949701 0.9205746178983234 0.27617238536949701
-0.38851434494290565 0.87415727612153771 0.29138575870717925
-0.25916052767440806 0.95025526813949612 0.17277368511627203
-0.17277368511627203 0.95025526813949612 0.25916052767440806
-0.085125653075874858 0.93638218383462346 0.34050261230349943
-0.34050261230349943 0.93638218383462346 0.085125653075874858
-0.41380294430118397 0.91036647746260468 0
-0.44543540318737396 0.89087080637474791 0.089087080637474794
-0.47673129462279618 0.85811633032103307 0.19069251784911848
-0.55234477073899402 0.82851715610849108 0.092057461789832346
-0.61394061351492046 0.78935221737632633 0
-0.65561006810718581 0.74926864926535519 0.093658581158169399
-0.50507627227610541 0.80812203564176854 0.30304576336566325
-0.089087080637474794 0.89087080637474791 0.44543540318737396
-0.092057461789832346 0.82851715610849108 0.55234477073899402
-0.19069251784911848 0.85811633032103307 0.47673129462279618
-0.30304576336566325 0.80812203564176854 0.50507627227610541
-0.093658581158169399 0.74926864926535519 0.65561006810718581
-0.65561006810718581 0.093658581158169399 0.74926864926535519
-0.69310328008367206 0.19802950859533489 0.69310328008367206
-0.74926864926535519 0.093658581158169399 0.65561006810718581
-0.72199487238115534 0.30942637387763799 0.61885274775527599
-0.61885274775527599 0.30942637387763799 0.72199487238115534
-0.50507627227610541 0.30304576336566325 0.80812203564176854
-0.52704627669472992 0.4216370213557839 0.73786478737262184
-0.73786478737262184 0.4216370213557839 0.52704627669472992
-0.80812203564176854 0.30304576336566325 0.50507627227610541
-0.52704627669472992 0.73786478737262184 0.4216370213557839
-0.53916386601719202 0.64699663922063044 0.53916386601719202
-0.4216370213557839 0.73786478737262184 0.52704627669472992
-0.53916386601719202 0.53916386601719202 0.64699663922063044
-0.64699663922063044 0.53916386601719202 0.53916386601719202
-0.73786478737262184 0.52704627669472992 0.4216370213557839
-0.4216370213557839 0.52704627669472992 0.73786478737262184
-0.30304576336566325 0.50507627227610541 0.80812203564176854
-0.30942637387763799 0.61885274775527599 0.72199487238115534
-0.30942637387763799 0.72199487238115534 0.61885274775527599
-0.19802950859533489 0.69310328008367206 0.69310328008367206
-0.093658581158169399 0.65561006810718581 0.74926864926535519
-0.72199487238115534 0.61885274775527599 0.30942637387763799
-0.80812203564176854 0.50507627227610541 0.30304576336566325
-0.69310328008367206 0.69310328008367206 0.19802950859533489
-0.61885274775527599 0.72199487238115534 0.30942637387763799
-0.74926864926535519 0.65561006810718581 0.093658581158169399
-0.78935221737632633 0.61394061351492046 0
-0.82851715610849108 0.55234477073899402 0.092057461789832346
-0.85811633032103307 0.47673129462279618 0.19069251784911848
-0.89087080637474791 0.44543540318737396 0.089087080637474794
-0.91036647746260468 0.41380294430118397 0
-0.93638218383462346 0.34050261230349943 0.085125653075874858
-0.87415727612153771 0.38851434494290565 0.29138575870717925
-0.93638218383462346 0.085125653075874858 0.34050261230349943
-0.95025526813949612 0.17277368511627203 0.25916052767440806
-0.96698755683045634 0.080582296402538028 0.24174688920761409
-0.95025526813949612 0.25916052767440806 0.17277368511627203
-0.9205746178983234 0.27617238536949701 0.27617238536949701
-0.87415727612153771 0.29138575870717925 0.38851434494290565
-0.96698755683045634 0.24174688920761409 0.080582296402538028
-0.97439119569461985 0.22485950669875843 0
-0.98552745665257435 0.15161960871578067 0.075809804357890337
-0.98552745665257435 0.075809804357890337 0.15161960871578067
-0.9949366763261821 0.071066905451870152 0.071066905451870152
-0.99778515785660893 0.06651901052377393 0
-0.99778515785660893 0 0.06651901052377393
-0.97439119569461985 0 0.22485950669875843
-0.85811633032103307 0.19069251784911848 0.47673129462279618
-0.82851715610849108 0.092057461789832346 0.55234477073899402
-0.89087080637474791 0.089087080637474794 0.44543540318737396
-0.91036647746260468 0 0.41380294430118397
-0.78935221737632633 0 0.61394061351492046
-0.092057461789832346 0.55234477073899402 0.82851715610849108
-0.089087080637474794 0.44543540318737396 0.89087080637474791
-0.19069251784911848 0.47673129462279618 0.85811633032103307
-0.29138575870717925 0.38851434494290565 0.87415727612153771
-0.085125653075874858 0.34050261230349943 0.93638218383462346
-0.24174688920761409 0.080582296402538028 0.96698755683045634
-0.25916052767440806 0.17277368511627203 0.95025526813949612
-0.34050261230349943 0.085125653075874858 0.93638218383462346
-0.27617238536949701 0.27617238536949701 0.9205746178983234
-0.17277368511627203 0.25916052767440806 0.95025526813949612
-0.080582296402538028 0.24174688920761409 0.96698755683045634
-0.38851434494290565 0.29138575870717925 0.87415727612153771
-0.47673129462279618 0.19069251784911848 0.85811633032103307
-0.44543540318737396 0.089087080637474794 0.89087080637474791
-0.55234477073899402 0.092057461789832346 0.82851715610849108
-0.61394061351492046 0 0.78935221737632633
-0.41380294430118397 0 0.91036647746260468
-0.075809804357890337 0.15161960871578067 0.98552745665257435
-0.071066905451870152 0.071066905451870152 0.9949366763261821
-0.15161960871578067 0.075809804357890337 0.98552745665257435
-0.22485950669875843 0 0.97439119569461985
-0.06651901052377393 0 0.99778515785660893
-0.99778515785660893 -0.06651901052377393 0
-0.9949366763261821 -0.071066905451870152 0.071066905451870152
-0.98552745665257435 -0.075809804357890337 0.15161960871578067
-0.98552745665257435 -0.15161960871578067 0.075809804357890337
-0.97439119569461985 -0.22485950669875843 0
-0.96698755683045634 -0.24174688920761409 0.080582296402538028
-0.96698755683045634 -0.080582296402538028 0.24174688920761409
-0.87415727612153771 -0.29138575870717925 0.38851434494290565
-0.9205746178983234 -0.27617238536949701 0.27617238536949701
-0.87415727612153771 -0.38851434494290565 0.29138575870717925
-0.95025526813949612 -0.25916052767440806 0.17277368511627203
-0.95025526813949612 -0.17277368511627203 0.25916052767440806
-0.93638218383462346 -0.085125653075874858 0.34050261230349943
-0.93638218383462346 -0.34050261230349943 0.085125653075874858
-0.91036647746260468 -0.41380294430118397 0
-0.89087080637474791 -0.44543540318737396 0.089087080637474794
-0.85811633032103307 -0.47673129462279618 0.19069251784911848
-0.82851715610849108 -0.55234477073899402 0.092057461789832346
-0.78935221737632633 -0.61394061351492046 0
-0.74926864926535519 -0.65561006810718581 0.093658581158169399
-0.80812203564176854 -0.50507627227610541 0.30304576336566325
-0.89087080637474791 -0.089087080637474794 0.44543540318737396
-0.82851715610849108 -0.092057461789832346 0.55234477073899402
-0.85811633032103307 -0.19069251784911848 0.47673129462279618
-0.80812203564176854 -0.30304576336566325 0.50507627227610541
-0.74926864926535519 -0.093658581158169399 0.65561006810718581
-0.093658581158169399 -0.65561006810718581 0.74926864926535519
-0.19802950859533489 -0.69310328008367206 0.69310328008367206
-0.093658581158169399 -0.74926864926535519 0.65561006810718581
-0.30942637387763799 -0.72199487238115534 0.61885274775527599
-0.30942637387763799 -0.61885274775527599 0.72199487238115534
-0.30304576336566325 -0.50507627227610541 0.80812203564176854
-0.4216370213557839 -0.52704627669472992 0.73786478737262184
-0.4216370213557839 -0.73786478737262184 0.52704627669472992
-0.30304576336566325 -0.80812203564176854 0.50507627227610541
-0.73786478737262184 -0.52704627669472992 0.4216370213557839
-0.64699663922063044 -0.53916386601719202 0.53916386601719202
-0.73786478737262184 -0.4216370213557839 0.52704627669472992
-0.53916386601719202 -0.53916386601719202 0.64699663922063044
-0.53916386601719202 -0.64699663922063044 0.53916386601719202
-0.52704627669472992 -0.73786478737262184 0.4216370213557839
-0.52704627669472992 -0.4216370213557839 0.73786478737262184
-0.50507627227610541 -0.30304576336566325 0.80812203564176854
-0.61885274775527599 -0.30942637387763799 0.72199487238115534
-0.72199487238115534 -0.30942637387763799 0.61885274775527599
-0.69310328008367206 -0.19802950859533489 0.69310328008367206
-0.65561006810718581 -0.093658581158169399 0.74926864926535519
-0.61885274775527599 -0.72199487238115534 0.30942637387763799
-0.50507627227610541 -0.80812203564176854 0.30304576336566325
-0.69310328008367206 -0.69310328008367206 0.19802950859533489
-0.72199487238115534 -0.61885274775527599 0.30942637387763799
-0.65561006810718581 -0.74926864926535519 0.093658581158169399
-0.61394061351492046 -0.78935221737632633 0
-0.55234477073899402 -0.82851715610849108 0.092057461789832346
-0.47673129462279618 -0.85811633032103307 0.19069251784911848
-0.44543540318737396 -0.89087080637474791 0.089087080637474794
-0.41380294430118397 -0.91036647746260468 0
-0.34050261230349943 -0.93638218383462346 0.085125653075874858
-0.38851434494290565 -0.87415727612153771 0.29138575870717925
-0.085125653075874858 -0.93638218383462346 0.34050261230349943
-0.17277368511627203 -0.95025526813949612 0.25916052767440806
-0.080582296402538028 -0.96698755683045634 0.24174688920761409
-0.25916052767440806 -0.95025526813949612 0.17277368511627203
-0.27617238536949701 -0.9205746178983234 0.27617238536949701
-0.29138575870717925 -0.87415727612153771 0.38851434494290565
-0.24174688920761409 -0.96698755683045634 0.080582296402538028
-0.22485950669875843 -0.97439119569461985 0
-0.15161960871578067 -0.98552745665257435 0.075809804357890337
-0.075809804357890337 -0.98552745665257435 0.15161960871578067
-0.071066905451870152 -0.9949366763261821 0.071066905451870152
-0.06651901052377393 -0.99778515785660893 0
0 -0.99778515785660893 0.06651901052377393
0 -0.97439119569461985 0.22485950669875843
-0.19069251784911848 -0.85811633032103307 0.47673129462279618
-0.092057461789832346 -0.82851715610849108 0.55234477073899402
-0.089087080637474794 -0.89087080637474791 0.44543540318737396
0 -0.91036647746260468 0.41380294430118397
0 -0.78935221737632633 0.61394061351492046
-0.55234477073899402 -0.092057461789832346 0.82851715610849108
-0.44543540318737396 -0.089087080637474794 0.89087080637474791
-0.47673129462279618 -0.19069251784911848 0.85811633032103307
-0.38851434494290565 -0.29138575870717925 0.87415727612153771
-0.34050261230349943 -0.085125653075874858 0.93638218383462346
-0.080582296402538028 -0.24174688920761409 0.96698755683045634
-0.17277368511627203 -0.25916052767440806 0.95025526813949612
-0.085125653075874858 -0.34050261230349943 0.93638218383462346
-0.27617238536949701 -0.27617238536949701 0.9205746178983234
-0.25916052767440806 -0.17277368511627203 0.95025526813949612
-0.24174688920761409 -0.080582296402538028 0.96698755683045634
-0.29138575870717925 -0.38851434494290565 0.87415727612153771
-0.19069251784911848 -0.47673129462279618 0.85811633032103307
-0.089087080637474794 -0.44543540318737396 0.89087080637474791
-0.092057461789832346 -0.55234477073899402 0.82851715610849108
0 -0.61394061351492046 0.78935221737632633
0 -0.41380294430118397 0.91036647746260468
-0.15161960871578067 -0.075809804357890337 0.98552745665257435
-0.071066905451870152 -0.071066905451870152 0.9949366763261821
-0.075809804357890337 -0.15161960871578067 0.98552745665257435
0 -0.22485950669875843 0.97439119569461985
0 -0.06651901052377393 0.99778515785660893
0.06651901052377393 -0.99778515785660893 0
0.071066905451870152 -0.9949366763261821 0.071066905451870152
0.075809804357890337 -0.98552745665257435 0.15161960871578067
0.15161960871578067 -0.98552745665257435 0.075809804357890337
0.22485950669875843 -0.97439119569461985 0
0.24174688920761409 -0.96698755683045634 0.080582296402538028
0.080582296402538028 -0.96698755683045634 0.24174688920761409
0.29138575870717925 -0.87415727612153771 0.38851434494290565
0.27617238536949701 -0.9205746178983234 0.27617238536949701
0.38851434494290565 -0.87415727612153771 0.29138575870717925
0.25916052767440806 -0.95025526813949612 0.17277368511627203
0.17277368511627203 -0.95025526813949612 0.25916052767440806
0.085125653075874858 -0.93638218383462346 0.34050261230349943
0.34050261230349943 -0.93638218383462346 0.085125653075874858
0.41380294430118397 -0.91036647746260468 0
0.44543540318737396 -0.89087080637474791 0.089087080637474794
0.47673129462279618 -0.85811633032103307 0.19069251784911848
0.55234477073899402 -0.82851715610849108 0.092057461789832346
0.61394061351492046 -0.78935221737632633 0
0.65561006810718581 -0.74926864926535519 0.093658581158169399
0.50507627227610541 -0.80812203564176854 0.30304576336566325
0.089087080637474794 -0.89087080637474791 0.44543540318737396
0.092057461789832346 -0.82851715610849108 0.55234477073899402
0.19069251784911848 -0.85811633032103307 0.47673129462279618
0.30304576336566325 -0.80812203564176854 0.50507627227610541
0.093658581158169399 -0.74926864926535519 0.65561006810718581
0.65561006810718581 -0.093658581158169399 0.74926864926535519
0.69310328008367206 -0.19802950859533489 0.69310328008367206
0.74926864926535519 -0.093658581158169399 0.65561006810718581
0.72199487238115534 -0.30942637387763799 0.61885274775527599
0.61885274775527599 -0.30942637387763799 0.72199487238115534
0.50507627227610541 -0.30304576336566325 0.80812203564176854
0.52704627669472992 -0.4216370213557839 0.73786478737262184
0.73786478737262184 -0.4216370213557839 0.52704627669472992
0.80812203564176854 -0.30304576336566325 0.50507627227610541
0.52704627669472992 -0.73786478737262184 0.4216370213557839
0.53916386601719202 -0.64699663922063044 0.53916386601719202
0.4216370213557839 -0.73786478737262184 0.52704627669472992
0.53916386601719202 -0.53916386601719202 0.64699663922063044
0.64699663922063044 -0.53916386601719202 0.53916386601719202
0.73786478737262184 -0.52704627669472992 0.4216370213557839
0.4216370213557839 -0.52704627669472992 0.73786478737262184
0.30304576336566325 -0.50507627227610541 0.80812203564176854
0.30942637387763799 -0.61885274775527599 0.72199487238115534
0.30942637387763799 -0.72199487238115534 0.61885274775527599
0.19802950859533489 -0.69310328008367206 0.69310328008367206
0.093658581158169399 -0.65561006810718581 0.74926864926535519
0.72199487238115534 -0.61885274775527599 0.30942637387763799
0.80812203564176854 -0.50507627227610541 0.30304576336566325
0.69310328008367206 -0.69310328008367206 0.19802950859533489
0.61885274775527599 -0.72199487238115534 0.30942637387763799
0.74926864926535519 -0.65561006810718581 0.093658581158169399
0.78935221737632633 -0.61394061351492046 0
0.82851715610849108 -0.55234477073899402 0.092057461789832346
0.85811633032103307 -0.47673129462279618 0.19069251784911848
0.89087080637474791 -0.44543540318737396 0.089087080637474794
0.91036647746260468 -0.41380294430118397 0
0.93638218383462346 -0.34050261230349943 0.085125653075874858
0.87415727612153771 -0.38851434494290565 0.29138575870717925
0.93638218383462346 -0.085125653075874858 0.34050261230349943
0.95025526813949612 -0.17277368511627203 0.25916052767440806
0.96698755683045634 -0.080582296402538028 0.24174688920761409
0.95025526813949612 -0.25916052767440806 0.17277368511627203
0.9205746178983234 -0.27617238536949701 0.27617238536949701
0.87415727612153771 -0.29138575870717925 0.38851434494290565
0.96698755683045634 -0.24174688920761409 0.080582296402538028
0.97439119569461985 -0.22485950669875843 0
0.98552745665257435 -0.15161960871578067 0.075809804357890337
0.98552745665257435 -0.075809804357890337 0.15161960871578067
0.9949366763261821 -0.071066905451870152 0.071066905451870152
0.99778515785660893 -0.06651901052377393 0
0.85811633032103307 -0.19069251784911848 0.47673129462279618
0.82851715610849108 -0.092057461789832346 0.55234477073899402
0.89087080637474791 -0.089087080637474794 0.44543540318737396
0.092057461789832346 -0.55234477073899402 0.82851715610849108
0.089087080637474794 -0.44543540318737396 0.89087080637474791
0.19069251784911848 -0.47673129462279618 0.85811633032103307
0.29138575870717925 -0.38851434494290565 0.87415727612153771
0.085125653075874858 -0.34050261230349943 0.93638218383462346
0.24174688920761409 -0.080582296402538028 0.96698755683045634
0.25916052767440806 -0.17277368511627203 0.95025526813949612
0.34050261230349943 -0.085125653075874858 0.93638218383462346
0.27617238536949701 -0.27617238536949701 0.9205746178983234
0.17277368511627203 -0.25916052767440806 0.95025526813949612
0.080582296402538028 -0.24174688920761409 0.96698755683045634
0.38851434494290565 -0.29138575870717925 0.87415727612153771
0.47673129462279618 -0.19069251784911848 0.85811633032103307
0.44543540318737396 -0.089087080637474794 0.89087080637474791
0.55234477073899402 -0.092057461789832346 0.82851715610849108
0.075809804357890337 -0.15161960871578067 0.98552745665257435
0.071066905451870152 -0.071066905451870152 0.9949366763261821
0.15161960871578067 -0.075809804357890337 0.98552745665257435
0.071066905451870152 0.9949366763261821 -0.071066905451870152
0 0.99778515785660893 -0.06651901052377393
0.075809804357890337 0.98552745665257435 -0.15161960871578067
0.15161960871578067 0.98552745665257435 -0.075809804357890337
0.24174688920761409 0.96698755683045634 -0.080582296402538028
0.080582296402538028 0.96698755683045634 -0.24174688920761409
0 0.97439119569461985 -0.22485950669875843
0.29138575870717925 0.87415727612153771 -0.38851434494290565
0.27617238536949701 0.9205746178983234 -0.27617238536949701
0.38851434494290565 0.87415727612153771 -0.29138575870717925
0.25916052767440806 0.95025526813949612 -0.17277368511627203
0.17277368511627203 0.95025526813949612 -0.25916052767440806
0.085125653075874858 0.93638218383462346 -0.34050261230349943
0.34050261230349943 0.93638218383462346 -0.085125653075874858
0.44543540318737396 0.89087080637474791 -0.089087080637474794
0.47673129462279618 0.85811633032103307 -0.19069251784911848
0.55234477073899402 0.82851715610849108 -0.092057461789832346
0.65561006810718581 0.74926864926535519 -0.093658581158169399
0.50507627227610541 0.80812203564176854 -0.30304576336566325
0.089087080637474794 0.89087080637474791 -0.44543540318737396
0 0.91036647746260468 -0.41380294430118397
0.092057461789832346 0.82851715610849108 -0.55234477073899402
0.19069251784911848 0.85811633032103307 -0.47673129462279618
0.30304576336566325 0.80812203564176854 -0.50507627227610541
0.093658581158169399 0.74926864926535519 -0.65561006810718581
0 0.78935221737632633 -0.61394061351492046
0.65561006810718581 0.093658581158169399 -0.74926864926535519
0.69310328008367206 0.19802950859533489 -0.69310328008367206
0.74926864926535519 0.093658581158169399 -0.65561006810718581
0.72199487238115534 0.30942637387763799 -0.61885274775527599
0.61885274775527599 0.30942637387763799 -0.72199487238115534
0.50507627227610541 0.30304576336566325 -0.80812203564176854
0.52704627669472992 0.4216370213557839 -0.73786478737262184
0.73786478737262184 0.4216370213557839 -0.52704627669472992
0.80812203564176854 0.30304576336566325 -0.50507627227610541
0.52704627669472992 0.73786478737262184 -0.4216370213557839
0.53916386601719202 0.64699663922063044 -0.53916386601719202
0.4216370213557839 0.73786478737262184 -0.52704627669472992
0.53916386601719202 0.53916386601719202 -0.64699663922063044
0.64699663922063044 0.53916386601719202 -0.53916386601719202
0.73786478737262184 0.52704627669472992 -0.4216370213557839
0.4216370213557839 0.52704627669472992 -0.73786478737262184
0.30304576336566325 0.50507627227610541 -0.80812203564176854
0.30942637387763799 0.61885274775527599 -0.72199487238115534
0.30942637387763799 0.72199487238115534 -0.61885274775527599
0.19802950859533489 0.69310328008367206 -0.69310328008367206
0.093658581158169399 0.65561006810718581 -0.74926864926535519
0.72199487238115534 0.61885274775527599 -0.30942637387763799
0.80812203564176854 0.50507627227610541 -0.30304576336566325
0.69310328008367206 0.69310328008367206 -0.19802950859533489
0.61885274775527599 0.72199487238115534 -0.30942637387763799
0.74926864926535519 0.65561006810718581 -0.093658581158169399
0.82851715610849108 0.55234477073899402 -0.092057461789832346
0.85811633032103307 0.47673129462279618 -0.19069251784911848
0.89087080637474791 0.44543540318737396 -0.089087080637474794
0.93638218383462346 0.34050261230349943 -0.085125653075874858
0.87415727612153771 0.38851434494290565 -0.29138575870717925
0.93638218383462346 0.085125653075874858 -0.34050261230349943
0.95025526813949612 0.17277368511627203 -0.25916052767440806
0.96698755683045634 0.080582296402538028 -0.24174688920761409
0.95025526813949612 0.25916052767440806 -0.17277368511627203
0.9205746178983234 0.27617238536949701 -0.27617238536949701
0.87415727612153771 0.29138575870717925 -0.38851434494290565
0.96698755683045634 0.24174688920761409 -0.080582296402538028
0.98552745665257435 0.15161960871578067 -0.075809804357890337
0.98552745665257435 0.075809804357890337 -0.15161960871578067
0.9949366763261821 0.071066905451870152 -0.071066905451870152
0.99778515785660893 0 -0.06651901052377393
0.97439119569461985 0 -0.22485950669875843
0.85811633032103307 0.19069251784911848 -0.47673129462279618
0.82851715610849108 0.092057461789832346 -0.55234477073899402
0.89087080637474791 0.089087080637474794 -0.44543540318737396
0.91036647746260468 0 -0.41380294430118397
0.78935221737632633 0 -0.61394061351492046
0.092057461789832346 0.55234477073899402 -0.82851715610849108
0 0.61394061351492046 -0.78935221737632633
0.089087080637474794 0.44543540318737396 -0.89087080637474791
0.19069251784911848 0.47673129462279618 -0.85811633032103307
0.29138575870717925 0.38851434494290565 -0.87415727612153771
0.085125653075874858 0.34050261230349943 -0.93638218383462346
0 0.41380294430118397 -0.91036647746260468
0.24174688920761409 0.080582296402538028 -0.96698755683045634
0.25916052767440806 0.17277368511627203 -0.95025526813949612
0.34050261230349943 0.085125653075874858 -0.93638218383462346
0.27617238536949701 0.27617238536949701 -0.9205746178983234
0.17277368511627203 0.25916052767440806 -0.95025526813949612
0.080582296402538028 0.24174688920761409 -0.96698755683045634
0.38851434494290565 0.29138575870717925 -0.87415727612153771
0.47673129462279618 0.19069251784911848 -0.85811633032103307
0.44543540318737396 0.089087080637474794 -0.89087080637474791
0.55234477073899402 0.092057461789832346 -0.82851715610849108
0.61394061351492046 0 -0.78935221737632633
0.41380294430118397 0 -0.91036647746260468
0.075809804357890337 0.15161960871578067 -0.98552745665257435
0 0.22485950669875843 -0.97439119569461985
0.071066905451870152 0.071066905451870152 -0.9949366763261821
0.15161960871578067 0.075809804357890337 -0.98552745665257435
0.22485950669875843 0 -0.97439119569461985
0.06651901052377393 0 -0.99778515785660893
0 0.06651901052377393 -0.99778515785660893
-0.9949366763261821 0.071066905451870152 -0.071066905451870152
-0.99778515785660893 0 -0.06651901052377393
-0.98552745665257435 0.075809804357890337 -0.15161960871578067
-0.98552745665257435 0.15161960871578067 -0.075809804357890337
-0.96698755683045634 0.24174688920761409 -0.080582296402538028
-0.96698755683045634 0.080582296402538028 -0.24174688920761409
-0.97439119569461985 0 -0.22485950669875843
-0.87415727612153771 0.29138575870717925 -0.38851434494290565
-0.9205746178983234 0.27617238536949701 -0.27617238536949701
-0.87415727612153771 0.38851434494290565 -0.29138575870717925
-0.95025526813949612 0.25916052767440806 -0.17277368511627203
-0.95025526813949612 0.17277368511627203 -0.25916052767440806
-0.93638218383462346 0.085125653075874858 -0.34050261230349943
-0.93638218383462346 0.34050261230349943 -0.085125653075874858
-0.89087080637474791 0.44543540318737396 -0.089087080637474794
-0.85811633032103307 0.47673129462279618 -0.19069251784911848
-0.82851715610849108 0.55234477073899402 -0.092057461789832346
-0.74926864926535519 0.65561006810718581 -0.093658581158169399
-0.80812203564176854 0.50507627227610541 -0.30304576336566325
-0.89087080637474791 0.089087080637474794 -0.44543540318737396
-0.91036647746260468 0 -0.41380294430118397
-0.82851715610849108 0.092057461789832346 -0.55234477073899402
-0.85811633032103307 0.19069251784911848 -0.47673129462279618
-0.80812203564176854 0.30304576336566325 -0.50507627227610541
-0.74926864926535519 0.093658581158169399 -0.65561006810718581
-0.78935221737632633 0 -0.61394061351492046
-0.093658581158169399 0.65561006810718581 -0.74926864926535519
-0.19802950859533489 0.69310328008367206 -0.69310328008367206
-0.093658581158169399 0.74926864926535519 -0.65561006810718581
-0.30942637387763799 0.72199487238115534 -0.61885274775527599
-0.30942637387763799 0.61885274775527599 -0.72199487238115534
-0.30304576336566325 0.50507627227610541 -0.80812203564176854
-0.4216370213557839 0.52704627669472992 -0.73786478737262184
-0.4216370213557839 0.73786478737262184 -0.52704627669472992
-0.30304576336566325 0.80812203564176854 -0.50507627227610541
-0.73786478737262184 0.52704627669472992 -0.4216370213557839
-0.64699663922063044 0.53916386601719202 -0.53916386601719202
-0.73786478737262184 0.4216370213557839 -0.52704627669472992
-0.53916386601719202 0.53916386601719202 -0.64699663922063044
-0.53916386601719202 0.64699663922063044 -0.53916386601719202
-0.52704627669472992 0.73786478737262184 -0.4216370213557839
-0.52704627669472992 0.4216370213557839 -0.73786478737262184
-0.50507627227610541 0.30304576336566325 -0.80812203564176854
-0.61885274775527599 0.30942637387763799 -0.72199487238115534
-0.72199487238115534 0.30942637387763799 -0.61885274775527599
-0.69310328008367206 0.19802950859533489 -0.69310328008367206
-0.65561006810718581 0.093658581158169399 -0.74926864926535519
-0.61885274775527599 0.72199487238115534 -0.30942637387763799
-0.50507627227610541 0.80812203564176854 -0.30304576336566325
-0.69310328008367206 0.69310328008367206 -0.19802950859533489
-0.72199487238115534 0.61885274775527599 -0.30942637387763799
-0.65561006810718581 0.74926864926535519 -0.093658581158169399
-0.55234477073899402 0.82851715610849108 -0.092057461789832346
-0.47673129462279618 0.85811633032103307 -0.19069251784911848
-0.44543540318737396 0.89087080637474791 -0.089087080637474794
-0.34050261230349943 0.93638218383462346 -0.085125653075874858
-0.38851434494290565 0.87415727612153771 -0.29138575870717925
-0.085125653075874858 0.93638218383462346 -0.34050261230349943
-0.17277368511627203 0.95025526813949612 -0.25916052767440806
-0.080582296402538028 0.96698755683045634 -0.24174688920761409
-0.25916052767440806 0.95025526813949612 -0.17277368511627203
-0.27617238536949701 0.9205746178983234 -0.27617238536949701
-0.29138575870717925 0.87415727612153771 -0.38851434494290565
-0.24174688920761409 0.96698755683045634 -0.080582296402538028
-0.15161960871578067 0.98552745665257435 -0.075809804357890337
-0.075809804357890337 0.98552745665257435 -0.15161960871578067
-0.071066905451870152 0.9949366763261821 -0.071066905451870152
-0.19069251784911848 0.85811633032103307 -0.47673129462279618
-0.092057461789832346 0.82851715610849108 -0.55234477073899402
-0.089087080637474794 0.89087080637474791 -0.44543540318737396
-0.55234477073899402 0.092057461789832346 -0.82851715610849108
-0.61394061351492046 0 -0.78935221737632633
-0.44543540318737396 0.089087080637474794 -0.89087080637474791
-0.47673129462279618 0.19069251784911848 -0.85811633032103307
-0.38851434494290565 0.29138575870717925 -0.87415727612153771
-0.34050261230349943 0.085125653075874858 -0.93638218383462346
-0.41380294430118397 0 -0.91036647746260468
-0.080582296402538028 0.24174688920761409 -0.96698755683045634
-0.17277368511627203 0.25916052767440806 -0.95025526813949612
-0.085125653075874858 0.34050261230349943 -0.93638218383462346
-0.27617238536949701 0.27617238536949701 -0.9205746178983234
-0.25916052767440806 0.17277368511627203 -0.95025526813949612
-0.24174688920761409 0.080582296402538028 -0.96698755683045634
-0.29138575870717925 0.38851434494290565 -0.87415727612153771
-0.19069251784911848 0.47673129462279618 -0.85811633032103307
-0.089087080637474794 0.44543540318737396 -0.89087080637474791
-0.092057461789832346 0.55234477073899402 -0.82851715610849108
-0.15161960871578067 0.075809804357890337 -0.98552745665257435
-0.22485950669875843 0 -0.97439119569461985
-0.071066905451870152 0.071066905451870152 -0.9949366763261821
-0.075809804357890337 0.15161960871578067 -0.98552745665257435
-0.06651901052377393 0 -0.99778515785660893
-0.071066905451870152 -0.9949366763261821 -0.071066905451870152
0 -0.99778515785660893 -0.06651901052377393
-0.075809804357890337 -0.98552745665257435 -0.15161960871578067
-0.15161960871578067 -0.98552745665257435 -0.075809804357890337
-0.24174688920761409 -0.96698755683045634 -0.080582296402538028
-0.080582296402538028 -0.96698755683045634 -0.24174688920761409
0 -0.97439119569461985 -0.22485950669875843
-0.29138575870717925 -0.87415727612153771 -0.38851434494290565
-0.27617238536949701 -0.9205746178983234 -0.27617238536949701
-0.38851434494290565 -0.87415727612153771 -0.29138575870717925
-0.25916052767440806 -0.95025526813949612 -0.17277368511627203
-0.17277368511627203 -0.95025526813949612 -0.25916052767440806
-0.085125653075874858 -0.93638218383462346 -0.34050261230349943
-0.34050261230349943 -0.93638218383462346 -0.085125653075874858
-0.44543540318737396 -0.89087080637474791 -0.089087080637474794
-0.47673129462279618 -0.85811633032103307 -0.19069251784911848
-0.55234477073899402 -0.82851715610849108 -0.092057461789832346
-0.65561006810718581 -0.74926864926535519 -0.093658581158169399
-0.50507627227610541 -0.80812203564176854 -0.30304576336566325
-0.089087080637474794 -0.89087080637474791 -0.44543540318737396
0 -0.91036647746260468 -0.41380294430118397
-0.092057461789832346 -0.82851715610849108 -0.55234477073899402
-0.19069251784911848 -0.85811633032103307 -0.47673129462279618
-0.30304576336566325 -0.80812203564176854 -0.50507627227610541
-0.093658581158169399 -0.74926864926535519 -0.65561006810718581
0 -0.78935221737632633 -0.61394061351492046
-0.65561006810718581 -0.093658581158169399 -0.74926864926535519
-0.69310328008367206 -0.19802950859533489 -0.69310328008367206
-0.74926864926535519 -0.093658581158169399 -0.65561006810718581
-0.72199487238115534 -0.30942637387763799 -0.61885274775527599
-0.61885274775527599 -0.30942637387763799 -0.72199487238115534
-0.50507627227610541 -0.30304576336566325 -0.80812203564176854
-0.52704627669472992 -0.4216370213557839 -0.73786478737262184
-0.73786478737262184 -0.4216370213557839 -0.52704627669472992
-0.80812203564176854 -0.30304576336566325 -0.50507627227610541
-0.52704627669472992 -0.73786478737262184 -0.4216370213557839
-0.53916386601719202 -0.64699663922063044 -0.53916386601719202
-0.4216370213557839 -0.73786478737262184 -0.52704627669472992
-0.53916386601719202 -0.53916386601719202 -0.64699663922063044
-0.64699663922063044 -0.53916386601719202 -0.53916386601719202
-0.73786478737262184 -0.52704627669472992 -0.4216370213557839
-0.4216370213557839 -0.52704627669472992 -0.73786478737262184
-0.30304576336566325 -0.50507627227610541 -0.80812203564176854
-0.30942637387763799 -0.61885274775527599 -0.72199487238115534
-0.30942637387763799 -0.72199487238115534 -0.61885274775527599
-0.19802950859533489 -0.69310328008367206 -0.69310328008367206
-0.093658581158169399 -0.65561006810718581 -0.74926864926535519
-0.72199487238115534 -0.61885274775527599 -0.30942637387763799
-0.80812203564176854 -0.50507627227610541 -0.30304576336566325
-0.69310328008367206 -0.69310328008367206 -0.19802950859533489
-0.61885274775527599 -0.72199487238115534 -0.30942637387763799
-0.74926864926535519 -0.65561006810718581 -0.093658581158169399
-0.82851715610849108 -0.55234477073899402 -0.092057461789832346
-0.85811633032103307 -0.47673129462279618 -0.19069251784911848
-0.89087080637474791 -0.44543540318737396 -0.089087080637474794
-0.93638218383462346 -0.34050261230349943 -0.085125653075874858
-0.87415727612153771 -0.38851434494290565 -0.29138575870717925
-0.93638218383462346 -0.085125653075874858 -0.34050261230349943
-0.95025526813949612 -0.17277368511627203 -0.25916052767440806
-0.96698755683045634 -0.080582296402538028 -0.24174688920761409
-0.95025526813949612 -0.25916052767440806 -0.17277368511627203
-0.9205746178983234 -0.27617238536949701 -0.27617238536949701
-0.87415727612153771 -0.29138575870717925 -0.38851434494290565
-0.96698755683045634 -0.24174688920761409 -0.080582296402538028
-0.98552745665257435 -0.15161960871578067 -0.075809804357890337
-0.98552745665257435 -0.075809804357890337 -0.15161960871578067
-0.9949366763261821 -0.071066905451870152 -0.071066905451870152
-0.85811633032103307 -0.19069251784911848 -0.47673129462279618
-0.82851715610849108 -0.092057461789832346 -0.55234477073899402
-0.89087080637474791 -0.089087080637474794 -0.44543540318737396
-0.092057461789832346 -0.55234477073899402 -0.82851715610849108
0 -0.61394061351492046 -0.78935221737632633
-0.089087080637474794 -0.44543540318737396 -0.89087080637474791
-0.19069251784911848 -0.47673129462279618 -0.85811633032103307
-0.29138575870717925 -0.38851434494290565 -0.87415727612153771
-0.085125653075874858 -0.34050261230349943 -0.93638218383462346
0 -0.41380294430118397 -0.91036647746260468
-0.24174688920761409 -0.080582296402538028 -0.96698755683045634
-0.25916052767440806 -0.17277368511627203 -0.95025526813949612
-0.34050261230349943 -0.085125653075874858 -0.93638218383462346
-0.27617238536949701 -0.27617238536949701 -0.9205746178983234
-0.17277368511627203 -0.25916052767440806 -0.95025526813949612
-0.080582296402538028 -0.24174688920761409 -0.96698755683045634
-0.38851434494290565 -0.29138575870717925 -0.87415727612153771
-0.47673129462279618 -0.19069251784911848 -0.85811633032103307
-0.44543540318737396 -0.089087080637474794 -0.89087080637474791
-0.55234477073899402 -0.092057461789832346 -0.82851715610849108
-0.075809804357890337 -0.15161960871578067 -0.98552745665257435
0 -0.22485950669875843 -0.97439119569461985
-0.071066905451870152 -0.071066905451870152 -0.9949366763261821
-0.15161960871578067 -0.075809804357890337 -0.98552745665257435
0 -0.06651901052377393 -0.99778515785660893
0.9949366763261821 -0.071066905451870152 -0.071066905451870152
0.98552745665257435 -0.075809804357890337 -0.15161960871578067
0.98552745665257435 -0.15161960871578067 -0.075809804357890337
0.96698755683045634 -0.24174688920761409 -0.080582296402538028
0.96698755683045634 -0.080582296402538028 -0.24174688920761409
0.87415727612153771 -0.29138575870717925 -0.38851434494290565
0.9205746178983234 -0.27617238536949701 -0.27617238536949701
0.87415727612153771 -0.38851434494290565 -0.29138575870717925
0.95025526813949612 -0.25916052767440806 -0.17277368511627203
0.95025526813949612 -0.17277368511627203 -0.25916052767440806
0.93638218383462346 -0.085125653075874858 -0.34050261230349943
0.93638218383462346 -0.34050261230349943 -0.085125653075874858
0.89087080637474791 -0.44543540318737396 -0.089087080637474794
0.85811633032103307 -0.47673129462279618 -0.19069251784911848
0.82851715610849108 -0.55234477073899402 -0.092057461789832346
0.74926864926535519 -0.65561006810718581 -0.093658581158169399
0.80812203564176854 -0.50507627227610541 -0.30304576336566325
0.89087080637474791 -0.089087080637474794 -0.44543540318737396
0.82851715610849108 -0.092057461789832346 -0.55234477073899402
0.85811633032103307 -0.19069251784911848 -0.47673129462279618
0.80812203564176854 -0.30304576336566325 -0.50507627227610541
0.74926864926535519 -0.093658581158169399 -0.65561006810718581
0.093658581158169399 -0.65561006810718581 -0.74926864926535519
0.19802950859533489 -0.69310328008367206 -0.69310328008367206
0.093658581158169399 -0.74926864926535519 -0.65561006810718581
0.30942637387763799 -0.72199487238115534 -0.61885274775527599
0.30942637387763799 -0.61885274775527599 -0.72199487238115534
0.30304576336566325 -0.50507627227610541 -0.80812203564176854
0.4216370213557839 -0.52704627669472992 -0.73786478737262184
0.4216370213557839 -0.73786478737262184 -0.52704627669472992
0.30304576336566325 -0.80812203564176854 -0.50507627227610541
0.73786478737262184 -0.52704627669472992 -0.4216370213557839
0.64699663922063044 -0.53916386601719202 -0.53916386601719202
0.73786478737262184 -0.4216370213557839 -0.52704627669472992
0.53916386601719202 -0.53916386601719202 -0.64699663922063044
0.53916386601719202 -0.64699663922063044 -0.53916386601719202
0.52704627669472992 -0.73786478737262184 -0.4216370213557839
0.52704627669472992 -0.4216370213557839 -0.73786478737262184
0.50507627227610541 -0.30304576336566325 -0.80812203564176854
0.61885274775527599 -0.30942637387763799 -0.72199487238115534
0.72199487238115534 -0.30942637387763799 -0.61885274775527599
0.69310328008367206 -0.19802950859533489 -0.69310328008367206
0.65561006810718581 -0.093658581158169399 -0.74926864926535519
0.61885274775527599 -0.72199487238115534 -0.30942637387763799
0.50507627227610541 -0.80812203564176854 -0.30304576336566325
0.69310328008367206 -0.69310328008367206 -0.19802950859533489
0.72199487238115534 -0.61885274775527599 -0.30942637387763799
0.65561006810718581 -0.74926864926535519 -0.093658581158169399
0.55234477073899402 -0.82851715610849108 -0.092057461789832346
0.47673129462279618 -0.85811633032103307 -0.19069251784911848
0.44543540318737396 -0.89087080637474791 -0.089087080637474794
0.34050261230349943 -0.93638218383462346 -0.085125653075874858
0.38851434494290565 -0.87415727612153771 -0.29138575870717925
0.085125653075874858 -0.93638218383462346 -0.34050261230349943
0.17277368511627203 -0.95025526813949612 -0.25916052767440806
0.080582296402538028 -0.96698755683045634 -0.24174688920761409
0.25916052767440806 -0.95025526813949612 -0.17277368511627203
0.27617238536949701 -0.9205746178983234 -0.27617238536949701
0.29138575870717925 -0.87415727612153771 -0.38851434494290565
0.24174688920761409 -0.96698755683045634 -0.080582296402538028
0.15161960871578067 -0.98552745665257435 -0.075809804357890337
0.075809804357890337 -0.98552745665257435 -0.15161960871578067
0.071066905451870152 -0.9949366763261821 -0.071066905451870152
0.19069251784911848 -0.85811633032103307 -0.47673129462279618
0.092057461789832346 -0.82851715610849108 -0.55234477073899402
0.089087080637474794 -0.89087080637474791 -0.44543540318737396
0.55234477073899402 -0.092057461789832346 -0.82851715610849108
0.44543540318737396 -0.089087080637474794 -0.89087080637474791
0.47673129462279618 -0.19069251784911848 -0.85811633032103307
0.38851434494290565 -0.29138575870717925 -0.87415727612153771
0.34050261230349943 -0.085125653075874858 -0.93638218383462346
0.080582296402538028 -0.24174688920761409 -0.96698755683045634
0.17277368511627203 -0.25916052767440806 -0.95025526813949612
0.085125653075874858 -0.34050261230349943 -0.93638218383462346
0.27617238536949701 -0.27617238536949701 -0.9205746178983234
0.25916052767440806 -0.17277368511627203 -0.95025526813949612
0.24174688920761409 -0.080582296402538028 -0.96698755683045634
0.29138575870717925 -0.38851434494290565 -0.87415727612153771
0.19069251784911848 -0.47673129462279618 -0.85811633032103307
0.089087080637474794 -0.44543540318737396 -0.89087080637474791
0.092057461789832346 -0.55234477073899402 -0.82851715610849108
0.15161960871578067 -0.075809804357890337 -0.98552745665257435
0.071066905451870152 -0.071066905451870152 -0.9949366763261821
0.075809804357890337 -0.15161960871578067 -0.98552745665257435
