MFEM mesh v1.0

#
# MFEM Geometry Types (see fem/geom.hpp):
#
# POINT       = 0
# SEGMENT     = 1
# TRIANGLE    = 2
# SQUARE      = 3
# TETRAHEDRON = 4
# CUBE        = 5
# PRISM       = 6
#

dimension
2

elements
144
1 3 0 1 13 12
1 3 1 2 14 13
1 3 13 14 26 25
1 3 12 13 25 24
1 3 24 25 37 36
1 3 25 26 38 37
1 3 26 27 39 38
1 3 27 28 40 39
1 3 15 16 28 27
1 3 14 15 27 26
1 3 2 3 15 14
1 3 3 4 16 15
1 3 4 5 17 16
1 3 5 6 18 17
1 3 17 18 30 29
1 3 16 17 29 28
1 3 28 29 41 40
1 3 29 30 42 41
1 3 41 42 54 53
1 3 40 41 53 52
1 3 52 53 65 64
1 3 53 54 66 65
1 3 65 66 78 77
1 3 64 65 77 76
1 3 63 64 76 75
1 3 62 63 75 74
1 3 50 51 63 62
1 3 51 52 64 63
1 3 39 40 52 51
1 3 38 39 51 50
1 3 37 38 50 49
1 3 36 37 49 48
1 3 48 49 61 60
1 3 49 50 62 61
1 3 61 62 74 73
1 3 60 61 73 72
1 3 72 73 85 84
1 3 84 85 97 96
1 3 85 86 98 97
1 3 73 74 86 85
1 3 74 75 87 86
1 3 86 87 99 98
1 3 98 99 111 110
1 3 110 111 123 122
1 3 109 110 122 121
1 3 97 98 110 109
1 3 96 97 109 108
1 3 108 109 121 120
1 3 120 121 133 132
1 3 132 133 1 0
1 3 133 134 2 1
1 3 121 122 134 133
1 3 122 123 135 134
1 3 134 135 3 2
1 3 135 136 4 3
1 3 123 124 136 135
1 3 124 125 137 136
1 3 136 137 5 4
1 3 137 138 6 5
1 3 125 126 138 137
1 3 113 114 126 125
1 3 101 102 114 113
1 3 100 101 113 112
1 3 112 113 125 124
1 3 111 112 124 123
1 3 99 100 112 111
1 3 87 88 100 99
1 3 75 76 88 87
1 3 76 77 89 88
1 3 88 89 101 100
1 3 89 90 102 101
1 3 77 78 90 89
1 3 78 79 91 90
1 3 90 91 103 102
1 3 91 92 104 103
1 3 79 80 92 91
1 3 80 81 93 92
1 3 92 93 105 104
1 3 104 105 117 116
1 3 116 117 129 128
1 3 115 116 128 127
1 3 103 104 116 115
1 3 102 103 115 114
1 3 114 115 127 126
1 3 126 127 139 138
1 3 138 139 7 6
1 3 139 140 8 7
1 3 127 128 140 139
1 3 128 129 141 140
1 3 140 141 9 8
1 3 141 142 10 9
1 3 129 130 142 141
1 3 130 131 143 142
1 3 142 143 11 10
1 3 143 132 0 11
1 3 131 120 132 143
1 3 119 108 120 131
1 3 107 96 108 119
1 3 106 107 119 118
1 3 118 119 131 130
1 3 117 118 130 129
1 3 105 106 118 117
1 3 93 94 106 105
1 3 81 82 94 93
1 3 82 83 95 94
1 3 94 95 107 106
1 3 95 84 96 107
1 3 83 72 84 95
1 3 71 60 72 83
1 3 70 71 83 82
1 3 58 59 71 70
1 3 59 48 60 71
1 3 47 36 48 59
1 3 46 47 59 58
1 3 45 46 58 57
1 3 44 45 57 56
1 3 56 57 69 68
1 3 57 58 70 69
1 3 69 70 82 81
1 3 68 69 81 80
1 3 67 68 80 79
1 3 66 67 79 78
1 3 54 55 67 66
1 3 55 56 68 67
1 3 43 44 56 55
1 3 42 43 55 54
1 3 30 31 43 42
1 3 31 32 44 43
1 3 19 20 32 31
1 3 18 19 31 30
1 3 6 7 19 18
1 3 7 8 20 19
1 3 8 9 21 20
1 3 9 10 22 21
1 3 21 22 34 33
1 3 20 21 33 32
1 3 32 33 45 44
1 3 33 34 46 45
1 3 34 35 47 46
1 3 35 24 36 47
1 3 23 12 24 35
1 3 22 23 35 34
1 3 10 11 23 22
1 3 11 0 12 23

boundary
48
1 1 0 1
1 1 1 2
1 1 2 3
1 1 3 4
1 1 4 5
1 1 5 6
1 1 6 7
1 1 7 8
1 1 8 9
1 1 9 10
1 1 10 11
1 1 11 0
3 1 1 0
3 1 2 1
3 1 3 2
3 1 4 3
3 1 5 4
3 1 6 5
3 1 7 6
3 1 8 7
3 1 9 8
3 1 10 9
3 1 11 10
3 1 0 11
4 1 12 0
4 1 24 12
4 1 36 24
4 1 48 36
4 1 60 48
4 1 72 60
4 1 84 72
4 1 96 84
4 1 108 96
4 1 120 108
4 1 132 120
4 1 0 132
2 1 0 12
2 1 12 24
2 1 24 36
2 1 36 48
2 1 48 60
2 1 60 72
2 1 72 84
2 1 84 96
2 1 96 108
2 1 108 120
2 1 120 132
2 1 132 0

vertices
144

nodes
FiniteElementSpace
FiniteElementCollection: L2_T1_2D_P3
VDim: 2
Ordering: 1

0 0
0.02303276685416842 0
0.060300566479164909 0
0.083333333333333329 0
0 0.02303276685416842
0.023864679891996716 0.023864679891996716
0.062434247851106225 0.02516644822610974
0.086217623606222482 0.02591705712705757
0 0.060300566479164909
0.025166448226109736 0.062434247851106218
0.065773008897970969 0.065773008897970983
0.090730929171716268 0.067698162317547855
0 0.083333333333333329
0.02591705712705757 0.086217623606222482
0.067698162317547855 0.090730929171716282
0.093333333333333324 0.093333333333333324
0.083333333333333329 0
0.10636610018750176 0
0.14363389981249824 0
0.16666666666666666 0
0.086217623606222482 0.02591705712705757
0.10994069720844066 0.026607363875107318
0.14816145739369213 0.027560324435362347
0.17166240396308738 0.028028504150589127
0.090730929171716268 0.067698162317547855
0.11553418714967344 0.069468653441336597
0.15524612949530678 0.071912796161973463
0.17947967851260602 0.073113578325104261
0.093333333333333324 0.093333333333333324
0.11875943332230542 0.095726666468136989
0.15933120193132674 0.099030635452161828
0.18398717474235543 0.1006538414090221
0.093333333333333324 0.093333333333333324
0.11875943332230542 0.095726666468136989
0.15933120193132674 0.099030635452161828
0.18398717474235543 0.1006538414090221
0.095726666468136989 0.11875943332230542
0.12172557080652398 0.12172557080652398
0.1630880892601283 0.12582028963513184
0.18813254933127346 0.12783198285210856
0.099030635452161828 0.15933120193132674
0.12582028963513184 0.1630880892601283
0.16827442919347599 0.16827442919347599
0.19385519147823621 0.1708224246240678
0.1006538414090221 0.18398717474235543
0.12783198285210856 0.18813254933127346
0.1708224246240678 0.19385519147823621
0.19666666666666666 0.19666666666666666
0 0.083333333333333329
0.02591705712705757 0.086217623606222482
0.067698162317547855 0.090730929171716282
0.093333333333333324 0.093333333333333324
0 0.10636610018750176
0.026607363875107318 0.10994069720844066
0.069468653441336611 0.11553418714967345
0.095726666468136989 0.11875943332230542
0 0.14363389981249824
0.027560324435362347 0.14816145739369213
0.07191279616197345 0.15524612949530678
0.099030635452161828 0.15933120193132674
0 0.16666666666666666
0.028028504150589127 0.17166240396308735
0.073113578325104261 0.17947967851260602
0.1006538414090221 0.18398717474235543
0 0.16666666666666666
0.028028504150589127 0.17166240396308735
0.073113578325104261 0.17947967851260602
0.1006538414090221 0.18398717474235543
0 0.18969943352083507
0.028392237473190644 0.1950589041398573
0.074046477533914787 0.20344534457558494
0.10191492572505098 0.20828102591255271
0 0.22696723314583156
0.028741045247048635 0.23267551153871177
0.074941095860142679 0.24160776252680932
0.10312426230651993 0.24675816211901816
0 0.25
0.02880134739994672 0.25576858054577828
0.075095758155930808 0.26479519167676591
0.10333333333333333 0.27000000000000002
0.1006538414090221 0.18398717474235543
0.12783198285210856 0.18813254933127346
0.1708224246240678 0.19385519147823621
0.19666666666666666 0.19666666666666666
0.10191492572505098 0.20828102591255271
0.12939488665607074 0.21272821998940405
0.1728019867746699 0.21886752048300676
0.19885092877465693 0.22188369562882532
0.10312426230651993 0.24675816211901816
0.13089365776869566 0.25149479072702546
0.17470031894293686 0.25803365227627018
0.20094556117721279 0.26124612765637772
0.10333333333333333 0.27000000000000002
0.13115276645710908 0.27478666626960729
0.17502850405015524 0.281394604237657
0.2013076828180442 0.28464101615137755
0.19666666666666666 0.19666666666666666
0.22188369562882532 0.19885092877465693
0.26124612765637772 0.20094556117721279
0.28464101615137755 0.2013076828180442
0.19885092877465693 0.22188369562882532
0.22422699110202898 0.22422699110202898
0.26374193066915042 0.22647413104415393
0.28716318478343528 0.22686261830427037
0.20094556117721279 0.26124612765637772
0.22647413104415393 0.26374193066915042
0.26613532010800328 0.26613532010800328
0.2895818579463732 0.26654909109220476
0.2013076828180442 0.28464101615137755
0.22686261830427037 0.28716318478343528
0.26654909109220476 0.2895818579463732
0.28999999999999998 0.28999999999999998
0.28464101615137755 0.2013076828180442
0.30731166136471461 0.20094556117721279
0.34248482858715518 0.19885092877465693
0.36333333333333329 0.19666666666666666
0.28716318478343528 0.22686261830427037
0.3098074643774873 0.22647413104415393
0.34482812406035879 0.22422699110202901
0.36551759544132356 0.22188369562882532
0.2895818579463732 0.26654909109220476
0.31220085381634016 0.26613532010800328
0.34707526400248373 0.26374193066915042
0.36761222784387948 0.26124612765637772
0.28999999999999998 0.28999999999999998
0.31261462480054164 0.2895818579463732
0.34746375126260021 0.28716318478343533
0.36797434948471086 0.28464101615137755
0.27000000000000002 0.10333333333333333
0.29282369582735507 0.10312426230651993
0.32888215887088257 0.10191492572505098
0.35065384140902206 0.1006538414090221
0.27478666626960729 0.13115276645710908
0.29756032443536234 0.13089365776869569
0.33332935294773386 0.12939488665607074
0.35479921599794012 0.12783198285210856
0.281394604237657 0.17502850405015524
0.30409918598460706 0.17470031894293686
0.33946865344133659 0.17280198677466993
0.3605218581449029 0.1708224246240678
0.28464101615137755 0.2013076828180442
0.30731166136471461 0.20094556117721279
0.34248482858715518 0.19885092877465693
0.36333333333333329 0.19666666666666666
0.18398717474235543 0.1006538414090221
0.20828102591255271 0.10191492572505098
0.24675816211901819 0.10312426230651993
0.27000000000000002 0.10333333333333333
0.18813254933127346 0.12783198285210856
0.21272821998940405 0.12939488665607074
0.25149479072702546 0.13089365776869569
0.27478666626960729 0.13115276645710908
0.19385519147823621 0.1708224246240678
0.21886752048300676 0.1728019867746699
0.25803365227627018 0.17470031894293686
0.281394604237657 0.17502850405015524
0.19666666666666666 0.19666666666666666
0.22188369562882532 0.19885092877465693
0.26124612765637772 0.20094556117721279
0.28464101615137755 0.2013076828180442
0.16666666666666666 0
0.18969943352083507 0
0.22696723314583156 0
0.25 0
0.17166240396308738 0.028028504150589127
0.1950589041398573 0.028392237473190644
0.23267551153871177 0.028741045247048635
0.25576858054577828 0.02880134739994672
0.17947967851260602 0.073113578325104261
0.20344534457558494 0.074046477533914773
0.24160776252680932 0.074941095860142679
0.26479519167676591 0.075095758155930808
0.18398717474235543 0.1006538414090221
0.20828102591255271 0.10191492572505098
0.24675816211901819 0.10312426230651993
0.27000000000000002 0.10333333333333333
0.25 0
0.27303276685416844 0
0.31030056647916487 0
0.33333333333333331 0
0.25576858054577828 0.02880134739994672
0.27874104524704868 0.028741045247048635
0.31566003709818707 0.028392237473190644
0.33832907062975404 0.028028504150589127
0.26479519167676591 0.075095758155930808
0.2876732962351462 0.074941095860142679
0.32404647753391475 0.074046477533914787
0.34614634517927267 0.073113578325104261
0.27000000000000002 0.10333333333333333
0.29282369582735507 0.10312426230651993
0.32888215887088257 0.10191492572505098
0.35065384140902206 0.1006538414090221
0.33333333333333331 0
0.35636610018750176 0
0.39363389981249824 0
0.41666666666666669 0
0.33832907062975404 0.028028504150589127
0.36089365776869564 0.027560324435362347
0.39720849683343706 0.026607363875107318
0.41955095693955585 0.02591705712705757
0.34614634517927267 0.073113578325104261
0.36797832987031026 0.071912796161973463
0.40280198677466988 0.069468653441336611
0.42406426250504964 0.067698162317547855
0.35065384140902206 0.1006538414090221
0.37206340230633028 0.099030635452161828
0.40602723294730192 0.095726666468136989
0.42666666666666669 0.093333333333333324
0.41666666666666669 0
0.43969943352083513 0
0.47696723314583156 0
0.5 0
0.41955095693955585 0.02591705712705757
0.44183311489277632 0.02516644822610974
0.47779914618365982 0.023864679891996719
0.5 0.02303276685416842
0.42406426250504964 0.067698162317547855
0.44517187593964114 0.065773008897970969
0.47910091451777281 0.062434247851106232
0.5 0.060300566479164909
0.42666666666666669 0.093333333333333324
0.44709702935921808 0.090730929171716282
0.47985152341872073 0.086217623606222482
0.5 0.083333333333333329
0.42666666666666669 0.093333333333333324
0.44709702935921808 0.090730929171716282
0.47985152341872073 0.086217623606222482
0.5 0.083333333333333329
0.42905999980147036 0.11875943332230542
0.44886752048300671 0.11553418714967346
0.48054183016677043 0.10994069720844067
0.5 0.10636610018750176
0.43236396878549521 0.15933120193132674
0.45131166320364363 0.15524612949530678
0.48149479072702545 0.14816145739369216
0.5 0.14363389981249824
0.43398717474235543 0.18398717474235543
0.45251244536677449 0.17947967851260602
0.48196297044225228 0.17166240396308738
0.5 0.16666666666666666
0.35065384140902206 0.1006538414090221
0.37206340230633028 0.099030635452161828
0.40602723294730192 0.095726666468136989
0.42666666666666669 0.093333333333333324
0.35479921599794012 0.12783198285210856
0.37582028963513181 0.12582028963513187
0.4089933704315204 0.12172557080652398
0.42905999980147036 0.11875943332230542
0.3605218581449029 0.1708224246240678
0.38100662956847947 0.16827442919347599
0.4130880892601283 0.1630880892601283
0.43236396878549521 0.15933120193132674
0.36333333333333329 0.19666666666666666
0.38355462499907134 0.19385519147823621
0.41509978247710505 0.18813254933127346
0.43398717474235543 0.18398717474235543
0.36333333333333329 0.19666666666666666
0.38355462499907134 0.19385519147823621
0.41509978247710505 0.18813254933127346
0.43398717474235543 0.18398717474235543
0.36551759544132356 0.22188369562882532
0.38553418714967341 0.21886752048300678
0.41666268628106717 0.21272821998940405
0.43524825905838432 0.20828102591255271
0.36761222784387948 0.26124612765637772
0.38743251931794037 0.25803365227627023
0.41816145739369215 0.25149479072702552
0.43645759563985331 0.24675816211901816
0.36797434948471086 0.28464101615137755
0.38776070442515875 0.281394604237657
0.41842056608210554 0.27478666626960729
0.4366666666666667 0.27000000000000002
0.43398717474235543 0.18398717474235543
0.45251244536677449 0.17947967851260602
0.48196297044225228 0.17166240396308738
0.5 0.16666666666666666
0.43524825905838432 0.20828102591255271
0.45344534457558489 0.20344534457558497
0.48232670376485376 0.19505890413985733
0.5 0.18969943352083507
0.43645759563985331 0.24675816211901816
0.45433996290181283 0.24160776252680932
0.48267551153871174 0.2326755115387118
0.5 0.22696723314583156
0.4366666666666667 0.27000000000000002
0.45449462519760103 0.26479519167676591
0.48273581369160984 0.25576858054577828
0.5 0.25
0.4366666666666667 0.27000000000000002
0.45449462519760103 0.26479519167676591
0.48273581369160984 0.25576858054577828
0.5 0.25
0.43645759563985331 0.29282369582735507
0.45433996290181283 0.28767329623514626
0.48267551153871174 0.27874104524704868
0.5 0.27303276685416844
0.43524825905838432 0.32888215887088251
0.45344534457558494 0.32404647753391475
0.48232670376485376 0.31566003709818713
0.5 0.31030056647916487
0.43398717474235549 0.35065384140902212
0.45251244536677449 0.34614634517927267
0.48196297044225228 0.33832907062975404
0.5 0.33333333333333331
0.36797434948471086 0.28464101615137755
0.38776070442515875 0.281394604237657
0.41842056608210554 0.27478666626960729
0.4366666666666667 0.27000000000000002
0.36761222784387948 0.30731166136471461
0.38743251931794037 0.30409918598460711
0.41816145739369215 0.2975603244353624
0.43645759563985331 0.29282369582735507
0.36551759544132356 0.34248482858715512
0.38553418714967341 0.33946865344133659
0.41666268628106717 0.33332935294773386
0.43524825905838432 0.32888215887088251
0.36333333333333334 0.36333333333333334
0.38355462499907134 0.3605218581449029
0.41509978247710505 0.35479921599794012
0.43398717474235549 0.35065384140902212
0.36333333333333334 0.36333333333333334
0.38355462499907134 0.3605218581449029
0.41509978247710505 0.35479921599794012
0.43398717474235549 0.35065384140902212
0.3605218581449029 0.38355462499907134
0.38100662956847947 0.38100662956847947
0.4130880892601283 0.37582028963513181
0.43236396878549521 0.37206340230633028
0.35479921599794012 0.41509978247710505
0.37582028963513181 0.41308808926012835
0.4089933704315204 0.4089933704315204
0.42905999980147036 0.40602723294730192
0.35065384140902206 0.43398717474235543
0.37206340230633028 0.43236396878549521
0.40602723294730192 0.42905999980147036
0.42666666666666669 0.42666666666666669
0.43398717474235549 0.35065384140902212
0.45251244536677449 0.34614634517927267
0.48196297044225228 0.33832907062975404
0.5 0.33333333333333331
0.43236396878549521 0.37206340230633028
0.45131166320364358 0.36797832987031026
0.48149479072702545 0.36089365776869564
0.5 0.35636610018750176
0.42905999980147036 0.40602723294730192
0.44886752048300677 0.40280198677466994
0.48054183016677043 0.39720849683343712
0.5 0.39363389981249824
0.42666666666666669 0.42666666666666669
0.44709702935921808 0.42406426250504964
0.47985152341872073 0.41955095693955585
0.5 0.41666666666666669
0.42666666666666669 0.42666666666666669
0.44709702935921808 0.42406426250504964
0.47985152341872073 0.41955095693955585
0.5 0.41666666666666669
0.42406426250504964 0.44709702935921808
0.44517187593964108 0.44517187593964114
0.47910091451777281 0.44183311489277638
0.5 0.43969943352083513
0.41955095693955585 0.47985152341872073
0.44183311489277638 0.47910091451777287
0.47779914618365982 0.47779914618365987
0.5 0.47696723314583156
0.41666666666666669 0.5
0.43969943352083513 0.5
0.47696723314583156 0.5
0.5 0.5
0.35065384140902206 0.43398717474235543
0.37206340230633028 0.43236396878549521
0.40602723294730192 0.42905999980147036
0.42666666666666669 0.42666666666666669
0.34614634517927267 0.45251244536677449
0.36797832987031026 0.45131166320364363
0.40280198677466988 0.44886752048300677
0.42406426250504964 0.44709702935921808
0.33832907062975404 0.48196297044225228
0.36089365776869564 0.4814947907270255
0.39720849683343706 0.48054183016677043
0.41955095693955585 0.47985152341872073
0.33333333333333331 0.5
0.35636610018750176 0.5
0.39363389981249824 0.5
0.41666666666666669 0.5
0.27000000000000002 0.4366666666666667
0.29282369582735507 0.43645759563985331
0.32888215887088257 0.43524825905838432
0.35065384140902206 0.43398717474235543
0.26479519167676591 0.45449462519760103
0.2876732962351462 0.45433996290181283
0.32404647753391475 0.45344534457558494
0.34614634517927267 0.45251244536677449
0.25576858054577828 0.48273581369160984
0.27874104524704868 0.4826755115387118
0.31566003709818713 0.48232670376485376
0.33832907062975404 0.48196297044225228
0.25 0.5
0.27303276685416844 0.5
0.31030056647916487 0.5
0.33333333333333331 0.5
0.18398717474235543 0.43398717474235543
0.20828102591255271 0.43524825905838432
0.24675816211901819 0.43645759563985331
0.27000000000000002 0.4366666666666667
0.17947967851260602 0.45251244536677449
0.20344534457558494 0.45344534457558494
0.24160776252680932 0.45433996290181283
0.26479519167676591 0.45449462519760103
0.17166240396308738 0.48196297044225228
0.1950589041398573 0.48232670376485376
0.23267551153871177 0.4826755115387118
0.25576858054577828 0.48273581369160984
0.16666666666666666 0.5
0.18969943352083507 0.5
0.22696723314583156 0.5
0.25 0.5
0.19666666666666666 0.36333333333333334
0.22188369562882532 0.36551759544132356
0.26124612765637772 0.36761222784387948
0.28464101615137755 0.36797434948471086
0.19385519147823621 0.38355462499907134
0.21886752048300678 0.38553418714967341
0.25803365227627023 0.38743251931794037
0.281394604237657 0.38776070442515875
0.18813254933127346 0.41509978247710505
0.21272821998940405 0.41666268628106723
0.25149479072702552 0.41816145739369215
0.27478666626960729 0.41842056608210554
0.18398717474235543 0.43398717474235543
0.20828102591255271 0.43524825905838432
0.24675816211901819 0.43645759563985331
0.27000000000000002 0.4366666666666667
0.28464101615137755 0.36797434948471086
0.30731166136471461 0.36761222784387948
0.34248482858715518 0.36551759544132356
0.36333333333333334 0.36333333333333334
0.281394604237657 0.38776070442515875
0.30409918598460711 0.38743251931794037
0.33946865344133659 0.38553418714967341
0.3605218581449029 0.38355462499907134
0.27478666626960729 0.41842056608210554
0.29756032443536234 0.41816145739369215
0.33332935294773386 0.41666268628106717
0.35479921599794012 0.41509978247710505
0.27000000000000002 0.4366666666666667
0.29282369582735507 0.43645759563985331
0.32888215887088257 0.43524825905838432
0.35065384140902206 0.43398717474235543
0.28999999999999998 0.28999999999999998
0.31261462480054164 0.2895818579463732
0.34746375126260021 0.28716318478343533
0.36797434948471086 0.28464101615137755
0.2895818579463732 0.31261462480054164
0.31220085381634016 0.31220085381634016
0.34707526400248373 0.3098074643774873
0.36761222784387948 0.30731166136471461
0.28716318478343533 0.34746375126260021
0.3098074643774873 0.34707526400248373
0.34482812406035879 0.34482812406035879
0.36551759544132356 0.34248482858715512
0.28464101615137755 0.36797434948471086
0.30731166136471461 0.36761222784387948
0.34248482858715518 0.36551759544132356
0.36333333333333334 0.36333333333333334
0.2013076828180442 0.28464101615137755
0.22686261830427037 0.28716318478343528
0.26654909109220476 0.2895818579463732
0.28999999999999998 0.28999999999999998
0.20094556117721279 0.30731166136471461
0.22647413104415393 0.3098074643774873
0.26613532010800328 0.31220085381634016
0.2895818579463732 0.31261462480054164
0.19885092877465693 0.34248482858715512
0.22422699110202901 0.34482812406035879
0.26374193066915042 0.34707526400248373
0.28716318478343533 0.34746375126260021
0.19666666666666666 0.36333333333333334
0.22188369562882532 0.36551759544132356
0.26124612765637772 0.36761222784387948
0.28464101615137755 0.36797434948471086
0.10333333333333333 0.27000000000000002
0.13115276645710908 0.27478666626960729
0.17502850405015524 0.281394604237657
0.2013076828180442 0.28464101615137755
0.10312426230651993 0.29282369582735507
0.13089365776869569 0.29756032443536234
0.17470031894293686 0.30409918598460706
0.20094556117721279 0.30731166136471461
0.10191492572505098 0.32888215887088251
0.12939488665607074 0.33332935294773386
0.17280198677466993 0.33946865344133659
0.19885092877465693 0.34248482858715512
0.1006538414090221 0.35065384140902212
0.12783198285210856 0.35479921599794012
0.1708224246240678 0.3605218581449029
0.19666666666666666 0.36333333333333334
0 0.25
0.02880134739994672 0.25576858054577828
0.075095758155930808 0.26479519167676591
0.10333333333333333 0.27000000000000002
0 0.27303276685416844
0.028741045247048635 0.27874104524704868
0.074941095860142679 0.2876732962351462
0.10312426230651993 0.29282369582735507
0 0.31030056647916487
0.028392237473190644 0.31566003709818707
0.074046477533914773 0.32404647753391475
0.10191492572505098 0.32888215887088251
0 0.33333333333333331
0.028028504150589127 0.33832907062975404
0.073113578325104261 0.34614634517927267
0.1006538414090221 0.35065384140902212
0 0.33333333333333331
0.028028504150589127 0.33832907062975404
0.073113578325104261 0.34614634517927267
0.1006538414090221 0.35065384140902212
0 0.35636610018750176
0.027560324435362347 0.36089365776869564
0.071912796161973463 0.36797832987031026
0.099030635452161828 0.37206340230633028
0 0.39363389981249824
0.026607363875107315 0.39720849683343712
0.069468653441336611 0.40280198677466988
0.095726666468136976 0.40602723294730192
0 0.41666666666666669
0.02591705712705757 0.41955095693955585
0.067698162317547855 0.42406426250504964
0.093333333333333324 0.42666666666666669
0.1006538414090221 0.35065384140902212
0.12783198285210856 0.35479921599794012
0.1708224246240678 0.3605218581449029
0.19666666666666666 0.36333333333333334
0.099030635452161828 0.37206340230633028
0.12582028963513187 0.37582028963513181
0.16827442919347599 0.38100662956847947
0.19385519147823621 0.38355462499907134
0.095726666468136976 0.40602723294730192
0.12172557080652396 0.40899337043152045
0.1630880892601283 0.4130880892601283
0.18813254933127346 0.41509978247710505
0.093333333333333324 0.42666666666666669
0.11875943332230542 0.42905999980147036
0.15933120193132674 0.43236396878549516
0.18398717474235543 0.43398717474235543
0.093333333333333324 0.42666666666666669
0.11875943332230542 0.42905999980147036
0.15933120193132674 0.43236396878549516
0.18398717474235543 0.43398717474235543
0.090730929171716282 0.44709702935921808
0.11553418714967346 0.44886752048300677
0.15524612949530678 0.45131166320364363
0.17947967851260602 0.45251244536677449
0.086217623606222482 0.47985152341872073
0.10994069720844064 0.48054183016677043
0.14816145739369216 0.4814947907270255
0.17166240396308738 0.48196297044225228
0.083333333333333329 0.5
0.10636610018750176 0.5
0.14363389981249824 0.5
0.16666666666666666 0.5
0 0.41666666666666669
0.02591705712705757 0.41955095693955585
0.067698162317547855 0.42406426250504964
0.093333333333333324 0.42666666666666669
0 0.43969943352083513
0.02516644822610974 0.44183311489277638
0.065773008897970983 0.44517187593964114
0.090730929171716282 0.44709702935921808
0 0.47696723314583156
0.023864679891996716 0.47779914618365987
0.062434247851106218 0.47910091451777287
0.086217623606222482 0.47985152341872073
0 0.5
0.02303276685416842 0.5
0.060300566479164909 0.5
0.083333333333333329 0.5
0 0.5
0.02303276685416842 0.5
0.060300566479164909 0.5
0.083333333333333329 0.5
0 0.52303276685416844
0.022200853816340124 0.52220085381634018
0.058166885107223593 0.52089908548222708
0.080449043060444189 0.52014847658127927
0 0.56030056647916493
0.020899085482227103 0.55816688510722356
0.054828124060358835 0.55482812406035886
0.075935737494950389 0.55290297064078198
0 0.58333333333333337
0.02014847658127927 0.5804490430604442
0.052902970640781963 0.57593573749495042
0.073333333333333334 0.57333333333333336
0 0.58333333333333337
0.02014847658127927 0.5804490430604442
0.052902970640781963 0.57593573749495042
0.073333333333333334 0.57333333333333336
0 0.60636610018750181
0.019458169833229521 0.60279150316656294
0.051132479516993214 0.59719801322532995
0.070940000198529668 0.59397276705269819
0 0.64363389981249819
0.018505209272974495 0.63910634223130425
0.048688336796356355 0.63202167012968968
0.067636031214504844 0.62793659769366972
0 0.66666666666666663
0.018037029557747712 0.66167092937024596
0.047487554633225564 0.65385365482072733
0.06601282525764457 0.64934615859097788
0.073333333333333334 0.57333333333333336
0.093972767052698081 0.57094000019852975
0.12793659769366975 0.5676360312145049
0.14934615859097788 0.56601282525764463
0.070940000198529668 0.59397276705269819
0.091006629568479533 0.5910066295684796
0.12417971036486813 0.58691191073987159
0.14520078400205985 0.58490021752289501
0.067636031214504844 0.62793659769366972
0.086911910739871673 0.62417971036486808
0.11899337043152046 0.61899337043152047
0.13947814185509713 0.61644537500092866
0.06601282525764457 0.64934615859097788
0.084900217522894963 0.64520078400205982
0.11644537500092871 0.6394781418550971
0.13666666666666666 0.6366666666666666
0.083333333333333329 0.5
0.10636610018750176 0.5
0.14363389981249824 0.5
0.16666666666666666 0.5
0.080449043060444189 0.52014847658127927
0.10279150316656287 0.51945816983322957
0.1391063422313043 0.5185052092729745
0.16167092937024596 0.51803702955774777
0.075935737494950389 0.55290297064078198
0.097198013225330046 0.55113247951699318
0.13202167012968968 0.54868833679635642
0.15385365482072733 0.54748755463322563
0.073333333333333334 0.57333333333333336
0.093972767052698081 0.57094000019852975
0.12793659769366975 0.5676360312145049
0.14934615859097788 0.56601282525764463
0.16666666666666666 0.5
0.18969943352083507 0.5
0.22696723314583156 0.5
0.25 0.5
0.16167092937024596 0.51803702955774777
0.18433996290181284 0.51767329623514624
0.22125895475295135 0.5173244884612882
0.24423141945422172 0.51726418630839011
0.15385365482072733 0.54748755463322563
0.1759535224660852 0.54655465542441506
0.2123267037648538 0.54566003709818711
0.23520480832323412 0.54550537480239902
0.14934615859097788 0.56601282525764463
0.17111784112911743 0.56475174094161573
0.20717630417264496 0.5635424043601468
0.22999999999999998 0.56333333333333335
0.14934615859097788 0.56601282525764463
0.17111784112911743 0.56475174094161573
0.20717630417264496 0.5635424043601468
0.22999999999999998 0.56333333333333335
0.14520078400205985 0.58490021752289501
0.16667064705226609 0.58333731371893283
0.20243967556463766 0.58183854260630774
0.22521333373039268 0.58157943391789446
0.13947814185509713 0.61644537500092866
0.16053134655866338 0.61446581285032653
0.19590081401539294 0.61256748068205957
0.218605395762343 0.61223929557484125
0.13666666666666666 0.6366666666666666
0.15751517141284482 0.63448240455867633
0.19268833863528542 0.63238777215612052
0.21535898384862245 0.63202565051528914
0.13666666666666666 0.6366666666666666
0.15751517141284482 0.63448240455867633
0.19268833863528542 0.63238777215612052
0.21535898384862245 0.63202565051528914
0.13448240455867638 0.65751517141284477
0.15517187593964116 0.6551718759396411
0.1901925356225127 0.65292473599751621
0.2128368152165647 0.65253624873739979
0.13238777215612052 0.69268833863528545
0.15292473599751621 0.6901925356225127
0.18779914618365987 0.68779914618365989
0.2104181420536268 0.6873853751994583
0.13202565051528911 0.71535898384862251
0.15253624873739977 0.71283681521656472
0.18738537519945836 0.71041814205362674
0.20999999999999999 0.70999999999999996
0.13202565051528911 0.71535898384862251
0.15253624873739977 0.71283681521656472
0.18738537519945836 0.71041814205362674
0.20999999999999999 0.70999999999999996
0.13238777215612049 0.73875387234362222
0.15292473599751621 0.73625806933084947
0.18779914618365984 0.73386467989199666
0.2104181420536268 0.73345090890779507
0.13448240455867638 0.77811630437117463
0.15517187593964116 0.77577300889797096
0.19019253562251268 0.77352586895584596
0.2128368152165647 0.77313738169572965
0.13666666666666666 0.80333333333333334
0.15751517141284482 0.80114907122534307
0.19268833863528539 0.79905443882278726
0.21535898384862245 0.79869231718195577
0.063333333333333325 0.72999999999999998
0.081579433917894434 0.72521333373039265
0.11223929557484125 0.71860539576234306
0.13202565051528911 0.71535898384862251
0.063542404360146729 0.75324183788098176
0.081838542606307824 0.74850520927297437
0.11256748068205957 0.74196634772372971
0.13238777215612049 0.73875387234362222
0.064751740941615676 0.79171897408744729
0.083337313718932757 0.78727178001059595
0.1144658128503265 0.78113247951699316
0.13448240455867638 0.77811630437117463
0.066012825257644556 0.81601282525764463
0.08490021752289495 0.81186745066872656
0.11644537500092869 0.80614480852176384
0.13666666666666666 0.80333333333333334
0.06601282525764457 0.64934615859097788
0.084900217522894963 0.64520078400205982
0.11644537500092871 0.6394781418550971
0.13666666666666666 0.6366666666666666
0.064751740941615676 0.67111784112911743
0.083337313718932771 0.66667064705226609
0.11446581285032652 0.66053134655866341
0.13448240455867638 0.65751517141284477
0.063542404360146729 0.70717630417264499
0.081838542606307824 0.7024396755646376
0.11256748068205957 0.69590081401539294
0.13238777215612052 0.69268833863528545
0.063333333333333325 0.72999999999999998
0.081579433917894434 0.72521333373039265
0.11223929557484125 0.71860539576234306
0.13202565051528911 0.71535898384862251
0 0.66666666666666663
0.018037029557747712 0.66167092937024596
0.047487554633225564 0.65385365482072733
0.06601282525764457 0.64934615859097788
0 0.68969943352083507
0.017673296235146196 0.68433996290181287
0.046554655424415038 0.6759535224660852
0.064751740941615676 0.67111784112911743
0 0.72696723314583156
0.017324488461288205 0.72125895475295132
0.045660037098187133 0.71232670376485374
0.063542404360146729 0.70717630417264499
0 0.75
0.01726418630839012 0.74423141945422167
0.04550537480239901 0.73520480832323409
0.063333333333333325 0.72999999999999998
0 0.75
0.01726418630839012 0.74423141945422167
0.04550537480239901 0.73520480832323409
0.063333333333333325 0.72999999999999998
0 0.77303276685416833
0.017324488461288201 0.76732448846128809
0.045660037098187133 0.75839223747319051
0.063542404360146729 0.75324183788098176
0 0.81030056647916493
0.017673296235146196 0.80494109586014273
0.046554655424415024 0.79655465542441495
0.064751740941615676 0.79171897408744729
0 0.83333333333333337
0.018037029557747712 0.8283375960369127
0.047487554633225557 0.82052032148739407
0.066012825257644556 0.81601282525764463
0 0.83333333333333337
0.018037029557747712 0.8283375960369127
0.047487554633225557 0.82052032148739407
0.066012825257644556 0.81601282525764463
0 0.85636610018750181
0.018505209272974492 0.85183854260630776
0.048688336796356348 0.84475387050469319
0.067636031214504844 0.84066879806867334
0 0.89363389981249819
0.019458169833229517 0.89005930279155931
0.051132479516993193 0.88446581285032644
0.070940000198529654 0.88124056667769457
0 0.91666666666666663
0.020148476581279266 0.91378237639377746
0.052902970640781956 0.90926907082828368
0.07333333333333332 0.90666666666666662
0 0.91666666666666663
0.020148476581279266 0.91378237639377746
0.052902970640781956 0.90926907082828368
0.07333333333333332 0.90666666666666662
0 0.93969943352083507
0.020899085482227089 0.93756575214889348
0.054828124060358835 0.934226991102029
0.075935737494950376 0.93230183768245212
0 0.97696723314583156
0.02220085381634012 0.97613532010800319
0.058166885107223572 0.97483355177389008
0.080449043060444161 0.97408294287294239
0 1
0.02303276685416842 1
0.060300566479164902 1
0.083333333333333329 1
0.07333333333333332 0.90666666666666662
0.093972767052698081 0.90427333353186301
0.12793659769366972 0.90096936454783816
0.14934615859097788 0.89934615859097788
0.075935737494950376 0.93230183768245212
0.097198013225330004 0.9305313465586631
0.13202167012968966 0.92808720383802656
0.1538536548207273 0.92688642167489577
0.080449043060444161 0.97408294287294239
0.10279150316656283 0.97339263612489257
0.13910634223130428 0.97243967556463751
0.16167092937024594 0.97197149584941078
0.083333333333333329 1
0.10636610018750174 1
0.14363389981249824 1
0.16666666666666666 1
0.066012825257644556 0.81601282525764463
0.08490021752289495 0.81186745066872656
0.11644537500092869 0.80614480852176384
0.13666666666666666 0.80333333333333334
0.067636031214504844 0.84066879806867334
0.086911910739871659 0.83691191073987159
0.11899337043152043 0.83172557080652387
0.1394781418550971 0.82917757537593229
0.070940000198529654 0.88124056667769457
0.091006629568479505 0.87827442919347598
0.12417971036486811 0.87417971036486808
0.14520078400205982 0.87216801714789138
0.07333333333333332 0.90666666666666662
0.093972767052698081 0.90427333353186301
0.12793659769366972 0.90096936454783816
0.14934615859097788 0.89934615859097788
0.13666666666666666 0.80333333333333334
0.15751517141284482 0.80114907122534307
0.19268833863528539 0.79905443882278726
0.21535898384862245 0.79869231718195577
0.1394781418550971 0.82917757537593229
0.16053134655866336 0.82719801322533004
0.19590081401539289 0.82529968105706308
0.218605395762343 0.82497149594984487
0.14520078400205982 0.87216801714789138
0.16667064705226606 0.8706051133439292
0.2024396755646376 0.86910634223130423
0.22521333373039265 0.86884723354289084
0.14934615859097788 0.89934615859097788
0.1711178411291174 0.89808507427494899
0.20717630417264493 0.89687573769348006
0.22999999999999998 0.89666666666666661
0.14934615859097788 0.89934615859097788
0.1711178411291174 0.89808507427494899
0.20717630417264493 0.89687573769348006
0.22999999999999998 0.89666666666666661
0.1538536548207273 0.92688642167489577
0.17595352246608514 0.92595352246608487
0.21232670376485377 0.92505890413985725
0.23520480832323409 0.92490424184406916
0.16167092937024594 0.97197149584941078
0.18433996290181281 0.97160776252680925
0.22125895475295132 0.97125895475295121
0.24423141945422167 0.97119865260005322
0.16666666666666666 1
0.18969943352083507 1
0.22696723314583159 1
0.25 1
0.22999999999999998 0.89666666666666661
0.25324183788098181 0.89687573769348006
0.29171897408744729 0.89808507427494899
0.31601282525764451 0.89934615859097788
0.23520480832323409 0.92490424184406916
0.25839223747319057 0.92505890413985703
0.296554655424415 0.9259535224660852
0.32052032148739396 0.92688642167489577
0.24423141945422167 0.97119865260005322
0.2673244884612882 0.97125895475295121
0.30494109586014262 0.97160776252680925
0.32833759603691259 0.97197149584941078
0.25 1
0.27303276685416844 1
0.31030056647916493 1
0.33333333333333331 1
0.21535898384862245 0.79869231718195577
0.23875387234362228 0.79905443882278726
0.27811630437117468 0.80114907122534307
0.30333333333333334 0.80333333333333334
0.218605395762343 0.82497149594984487
0.24196634772372977 0.82529968105706308
0.28113247951699316 0.82719801322532993
0.30614480852176379 0.82917757537593229
0.22521333373039265 0.86884723354289084
0.24850520927297448 0.86910634223130423
0.28727178001059583 0.8706051133439292
0.31186745066872651 0.87216801714789138
0.22999999999999998 0.89666666666666661
0.25324183788098181 0.89687573769348006
0.29171897408744729 0.89808507427494899
0.31601282525764451 0.89934615859097788
0.30333333333333334 0.80333333333333334
0.32917757537593217 0.80614480852176384
0.37216801714789149 0.81186745066872656
0.39934615859097794 0.81601282525764463
0.30614480852176379 0.82917757537593229
0.33172557080652393 0.83172557080652387
0.37417971036486808 0.83691191073987159
0.40096936454783821 0.84066879806867334
0.31186745066872651 0.87216801714789138
0.33691191073987159 0.87417971036486808
0.37827442919347593 0.87827442919347598
0.40427333353186301 0.88124056667769457
0.31601282525764451 0.89934615859097788
0.34066879806867323 0.90096936454783816
0.38124056667769457 0.90427333353186301
0.40666666666666668 0.90666666666666662
0.31601282525764451 0.89934615859097788
0.34066879806867323 0.90096936454783816
0.38124056667769457 0.90427333353186301
0.40666666666666668 0.90666666666666662
0.32052032148739396 0.92688642167489577
0.34475387050469308 0.92808720383802623
0.38446581285032649 0.93053134655866332
0.40926907082828373 0.93230183768245212
0.32833759603691259 0.97197149584941078
0.35183854260630776 0.97243967556463751
0.39005930279155926 0.97339263612489257
0.41378237639377752 0.97408294287294239
0.33333333333333331 1
0.35636610018750176 1
0.3936338998124983 1
0.41666666666666669 1
0.40666666666666668 0.90666666666666662
0.43230183768245217 0.90926907082828368
0.47408294287294239 0.91378237639377746
0.5 0.91666666666666663
0.40926907082828373 0.93230183768245212
0.43422699110202889 0.93422699110202878
0.47483355177389019 0.93756575214889371
0.5 0.93969943352083507
0.41378237639377752 0.97408294287294239
0.43756575214889376 0.97483355177389008
0.47613532010800319 0.97613532010800319
0.5 0.97696723314583156
0.41666666666666669 1
0.43969943352083513 1
0.47696723314583156 1
0.5 1
0.39934615859097794 0.81601282525764463
0.42688642167489577 0.82052032148739407
0.47197149584941084 0.8283375960369127
0.5 0.83333333333333337
0.40096936454783821 0.84066879806867334
0.42808720383802645 0.84475387050469308
0.47243967556463756 0.85183854260630776
0.5 0.85636610018750181
0.40427333353186301 0.88124056667769457
0.43053134655866337 0.88446581285032644
0.47339263612489257 0.89005930279155931
0.5 0.89363389981249819
0.40666666666666668 0.90666666666666662
0.43230183768245217 0.90926907082828368
0.47408294287294239 0.91378237639377746
0.5 0.91666666666666663
0.39666666666666667 0.72999999999999998
0.42490424184406922 0.73520480832323409
0.47119865260005328 0.74423141945422167
0.5 0.75
0.39687573769348006 0.75324183788098176
0.4250589041398572 0.75839223747319051
0.47125895475295126 0.76732448846128809
0.5 0.77303276685416833
0.39808507427494905 0.79171897408744729
0.4259535224660852 0.79655465542441506
0.47160776252680925 0.80494109586014262
0.5 0.81030056647916493
0.39934615859097794 0.81601282525764463
0.42688642167489577 0.82052032148739407
0.47197149584941084 0.8283375960369127
0.5 0.83333333333333337
0.39934615859097794 0.64934615859097788
0.42688642167489577 0.65385365482072733
0.47197149584941084 0.66167092937024596
0.5 0.66666666666666663
0.39808507427494905 0.67111784112911743
0.42595352246608514 0.6759535224660852
0.47160776252680925 0.68433996290181287
0.5 0.68969943352083507
0.39687573769348006 0.70717630417264499
0.42505890413985731 0.71232670376485374
0.47125895475295126 0.72125895475295132
0.5 0.72696723314583156
0.39666666666666667 0.72999999999999998
0.42490424184406922 0.73520480832323409
0.47119865260005328 0.74423141945422167
0.5 0.75
0.30333333333333334 0.6366666666666666
0.32917757537593217 0.6394781418550971
0.37216801714789149 0.64520078400205982
0.39934615859097794 0.64934615859097788
0.30114907122534307 0.65751517141284477
0.32719801322532999 0.66053134655866341
0.3706051133439292 0.66667064705226609
0.39808507427494905 0.67111784112911743
0.29905443882278715 0.69268833863528545
0.32529968105706303 0.69590081401539294
0.36910634223130423 0.7024396755646376
0.39687573769348006 0.70717630417264499
0.29869231718195577 0.71535898384862251
0.32497149594984476 0.71860539576234295
0.36884723354289095 0.72521333373039265
0.39666666666666667 0.72999999999999998
0.29869231718195577 0.71535898384862251
0.32497149594984476 0.71860539576234295
0.36884723354289095 0.72521333373039265
0.39666666666666667 0.72999999999999998
0.29905443882278715 0.73875387234362222
0.32529968105706303 0.74196634772372971
0.36910634223130423 0.74850520927297437
0.39687573769348006 0.75324183788098176
0.30114907122534307 0.77811630437117463
0.32719801322532999 0.78113247951699316
0.3706051133439292 0.78727178001059583
0.39808507427494905 0.79171897408744729
0.30333333333333334 0.80333333333333334
0.32917757537593217 0.80614480852176384
0.37216801714789149 0.81186745066872656
0.39934615859097794 0.81601282525764463
0.20999999999999999 0.70999999999999996
0.23345090890779524 0.71041814205362674
0.27313738169572965 0.71283681521656472
0.29869231718195577 0.71535898384862251
0.2104181420536268 0.73345090890779507
0.23386467989199672 0.73386467989199666
0.27352586895584602 0.73625806933084947
0.29905443882278715 0.73875387234362222
0.2128368152165647 0.77313738169572965
0.23625806933084958 0.77352586895584607
0.27577300889797091 0.77577300889797085
0.30114907122534307 0.77811630437117463
0.21535898384862245 0.79869231718195577
0.23875387234362228 0.79905443882278726
0.27811630437117468 0.80114907122534307
0.30333333333333334 0.80333333333333334
0.21535898384862245 0.63202565051528914
0.2387538723436223 0.63238777215612052
0.27811630437117468 0.63448240455867633
0.30333333333333334 0.6366666666666666
0.2128368152165647 0.65253624873739979
0.23625806933084958 0.65292473599751621
0.27577300889797096 0.6551718759396411
0.30114907122534307 0.65751517141284477
0.2104181420536268 0.6873853751994583
0.23386467989199675 0.68779914618365989
0.27352586895584602 0.6901925356225127
0.29905443882278715 0.69268833863528545
0.20999999999999999 0.70999999999999996
0.23345090890779524 0.71041814205362674
0.27313738169572965 0.71283681521656472
0.29869231718195577 0.71535898384862251
0.22999999999999998 0.56333333333333335
0.25324183788098181 0.5635424043601468
0.29171897408744729 0.56475174094161573
0.31601282525764451 0.56601282525764463
0.22521333373039268 0.58157943391789446
0.24850520927297451 0.58183854260630785
0.28727178001059589 0.58333731371893272
0.31186745066872651 0.58490021752289501
0.218605395762343 0.61223929557484125
0.24196634772372982 0.61256748068205957
0.28113247951699316 0.61446581285032653
0.30614480852176379 0.61644537500092866
0.21535898384862245 0.63202565051528914
0.2387538723436223 0.63238777215612052
0.27811630437117468 0.63448240455867633
0.30333333333333334 0.6366666666666666
0.25 0.5
0.27303276685416844 0.5
0.31030056647916487 0.5
0.33333333333333331 0.5
0.24423141945422172 0.51726418630839011
0.26732448846128826 0.5173244884612882
0.30494109586014267 0.51767329623514624
0.32833759603691259 0.51803702955774777
0.23520480832323412 0.54550537480239902
0.25839223747319068 0.54566003709818711
0.296554655424415 0.54655465542441506
0.32052032148739396 0.54748755463322563
0.22999999999999998 0.56333333333333335
0.25324183788098181 0.5635424043601468
0.29171897408744729 0.56475174094161573
0.31601282525764451 0.56601282525764463
0.33333333333333331 0.5
0.35636610018750176 0.5
0.39363389981249824 0.5
0.41666666666666669 0.5
0.32833759603691259 0.51803702955774777
0.35183854260630776 0.5185052092729745
0.39005930279155931 0.51945816983322957
0.41378237639377752 0.52014847658127927
0.32052032148739396 0.54748755463322563
0.34475387050469314 0.54868833679635642
0.38446581285032649 0.55113247951699318
0.40926907082828373 0.55290297064078198
0.31601282525764451 0.56601282525764463
0.34066879806867323 0.5676360312145049
0.38124056667769457 0.57094000019852975
0.40666666666666668 0.57333333333333336
0.31601282525764451 0.56601282525764463
0.34066879806867323 0.5676360312145049
0.38124056667769457 0.57094000019852975
0.40666666666666668 0.57333333333333336
0.31186745066872651 0.58490021752289501
0.33691191073987159 0.5869119107398717
0.37827442919347598 0.59100662956847949
0.40427333353186301 0.59397276705269819
0.30614480852176379 0.61644537500092866
0.33172557080652393 0.61899337043152047
0.37417971036486808 0.62417971036486808
0.40096936454783821 0.62793659769366972
0.30333333333333334 0.6366666666666666
0.32917757537593217 0.6394781418550971
0.37216801714789149 0.64520078400205982
0.39934615859097794 0.64934615859097788
0.40666666666666668 0.57333333333333336
0.43230183768245217 0.57593573749495042
0.47408294287294239 0.5804490430604442
0.5 0.58333333333333337
0.40427333353186301 0.59397276705269819
0.43053134655866332 0.59719801322533006
0.47339263612489257 0.60279150316656283
0.5 0.60636610018750181
0.40096936454783821 0.62793659769366972
0.42808720383802651 0.63202167012968968
0.47243967556463756 0.63910634223130425
0.5 0.64363389981249819
0.39934615859097794 0.64934615859097788
0.42688642167489577 0.65385365482072733
0.47197149584941084 0.66167092937024596
0.5 0.66666666666666663
0.41666666666666669 0.5
0.43969943352083513 0.5
0.47696723314583156 0.5
0.5 0.5
0.41378237639377752 0.52014847658127927
0.43756575214889371 0.52089908548222708
0.47613532010800319 0.52220085381634018
0.5 0.52303276685416844
0.40926907082828373 0.55290297064078198
0.434226991102029 0.55482812406035886
0.47483355177389019 0.55816688510722356
0.5 0.56030056647916493
0.40666666666666668 0.57333333333333336
0.43230183768245217 0.57593573749495042
0.47408294287294239 0.5804490430604442
0.5 0.58333333333333337
0.5 0.5
0.52303276685416844 0.5
0.56030056647916493 0.5
0.58333333333333337 0.5
0.5 0.52303276685416844
0.5238646798919967 0.5238646798919967
0.56243424785110629 0.52516644822610981
0.58621762360622254 0.52591705712705761
0.5 0.56030056647916493
0.52516644822610958 0.56243424785110618
0.565773008897971 0.565773008897971
0.59073092917171632 0.56769816231754788
0.5 0.58333333333333337
0.52591705712705761 0.58621762360622254
0.56769816231754788 0.59073092917171632
0.59333333333333338 0.59333333333333338
0.5 0.58333333333333337
0.52591705712705761 0.58621762360622254
0.56769816231754788 0.59073092917171632
0.59333333333333338 0.59333333333333338
0.5 0.60636610018750181
0.52660736387510731 0.60994069720844069
0.56946865344133657 0.61553418714967334
0.59572666646813699 0.61875943332230543
0.5 0.64363389981249819
0.52756032443536227 0.64816145739369213
0.57191279616197344 0.6552461294953067
0.59903063545216184 0.65933120193132666
0.5 0.66666666666666663
0.52802850415058911 0.6716624039630873
0.57311357832510423 0.67947967851260593
0.60065384140902212 0.68398717474235537
0.59333333333333338 0.59333333333333338
0.61875943332230543 0.59572666646813699
0.65933120193132666 0.59903063545216184
0.68398717474235537 0.60065384140902212
0.59572666646813699 0.61875943332230543
0.62172557080652402 0.62172557080652402
0.6630880892601283 0.62582028963513181
0.68813254933127344 0.62783198285210862
0.59903063545216184 0.65933120193132666
0.62582028963513181 0.6630880892601283
0.66827442919347591 0.66827442919347591
0.69385519147823616 0.67082242462406771
0.60065384140902212 0.68398717474235537
0.62783198285210862 0.68813254933127344
0.67082242462406771 0.69385519147823616
0.69666666666666666 0.69666666666666666
0.58333333333333337 0.5
0.60636610018750181 0.5
0.64363389981249819 0.5
0.66666666666666663 0.5
0.58621762360622254 0.52591705712705761
0.60994069720844069 0.52660736387510731
0.64816145739369213 0.52756032443536238
0.6716624039630873 0.52802850415058911
0.59073092917171632 0.56769816231754788
0.61553418714967334 0.56946865344133657
0.6552461294953067 0.57191279616197344
0.67947967851260593 0.57311357832510423
0.59333333333333338 0.59333333333333338
0.61875943332230543 0.59572666646813699
0.65933120193132666 0.59903063545216184
0.68398717474235537 0.60065384140902212
0.66666666666666663 0.5
0.68969943352083507 0.5
0.72696723314583156 0.5
0.75 0.5
0.6716624039630873 0.52802850415058911
0.69505890413985727 0.52839223747319064
0.7326755115387118 0.52874104524704868
0.75576858054577833 0.52880134739994678
0.67947967851260593 0.57311357832510423
0.70344534457558494 0.5740464775339148
0.74160776252680927 0.57494109586014275
0.76479519167676591 0.57509575815593084
0.68398717474235537 0.60065384140902212
0.70828102591255271 0.60191492572505101
0.74675816211901813 0.60312426230651994
0.77000000000000002 0.60333333333333339
0.68398717474235537 0.60065384140902212
0.70828102591255271 0.60191492572505101
0.74675816211901813 0.60312426230651994
0.77000000000000002 0.60333333333333339
0.68813254933127344 0.62783198285210862
0.71272821998940405 0.6293948866560708
0.75149479072702552 0.63089365776869566
0.77478666626960735 0.63115276645710916
0.69385519147823616 0.67082242462406771
0.71886752048300673 0.67280198677466985
0.75803365227627006 0.67470031894293681
0.78139460423765694 0.67502850405015513
0.69666666666666666 0.69666666666666666
0.72188369562882526 0.69885092877465693
0.76124612765637767 0.70094556117721274
0.78464101615137749 0.70130768281804412
0.69666666666666666 0.69666666666666666
0.72188369562882526 0.69885092877465693
0.76124612765637767 0.70094556117721274
0.78464101615137749 0.70130768281804412
0.69885092877465693 0.72188369562882537
0.72422699110202904 0.72422699110202904
0.76374193066915042 0.72647413104415393
0.78716318478343528 0.72686261830427035
0.70094556117721274 0.76124612765637767
0.72647413104415393 0.76374193066915042
0.76613532010800312 0.76613532010800323
0.78958185794637326 0.76654909109220482
0.70130768281804412 0.78464101615137749
0.72686261830427035 0.78716318478343528
0.76654909109220482 0.78958185794637326
0.79000000000000004 0.79000000000000004
0.70130768281804412 0.78464101615137749
0.72686261830427035 0.78716318478343528
0.76654909109220482 0.78958185794637326
0.79000000000000004 0.79000000000000004
0.70094556117721274 0.80731166136471444
0.72647413104415393 0.80980746437748719
0.76613532010800323 0.81220085381634
0.78958185794637326 0.81261462480054159
0.69885092877465693 0.84248482858715523
0.72422699110202904 0.8448281240603589
0.7637419306691503 0.84707526400248367
0.78716318478343528 0.84746375126260021
0.69666666666666666 0.8633333333333334
0.72188369562882537 0.86551759544132367
0.76124612765637767 0.86761222784387948
0.78464101615137749 0.86797434948471097
0.60333333333333339 0.77000000000000002
0.63115276645710916 0.77478666626960735
0.67502850405015513 0.78139460423765694
0.70130768281804412 0.78464101615137749
0.60312426230651994 0.7928236958273549
0.63089365776869577 0.79756032443536229
0.67470031894293681 0.80409918598460695
0.70094556117721274 0.80731166136471444
0.60191492572505101 0.82888215887088257
0.62939488665607068 0.83332935294773391
0.67280198677466985 0.83946865344133648
0.69885092877465693 0.84248482858715523
0.60065384140902212 0.85065384140902212
0.62783198285210862 0.85479921599794018
0.67082242462406771 0.8605218581449029
0.69666666666666666 0.8633333333333334
0.60065384140902212 0.68398717474235537
0.62783198285210862 0.68813254933127344
0.67082242462406771 0.69385519147823616
0.69666666666666666 0.69666666666666666
0.60191492572505101 0.70828102591255271
0.6293948866560708 0.71272821998940405
0.67280198677466985 0.71886752048300673
0.69885092877465693 0.72188369562882537
0.60312426230651994 0.74675816211901813
0.63089365776869566 0.75149479072702552
0.67470031894293681 0.75803365227627018
0.70094556117721274 0.76124612765637767
0.60333333333333339 0.77000000000000002
0.63115276645710916 0.77478666626960735
0.67502850405015513 0.78139460423765694
0.70130768281804412 0.78464101615137749
0.5 0.66666666666666663
0.52802850415058911 0.6716624039630873
0.57311357832510423 0.67947967851260593
0.60065384140902212 0.68398717474235537
0.5 0.68969943352083507
0.52839223747319064 0.69505890413985727
0.5740464775339148 0.70344534457558494
0.60191492572505101 0.70828102591255271
0.5 0.72696723314583156
0.52874104524704857 0.7326755115387118
0.57494109586014275 0.74160776252680938
0.60312426230651994 0.74675816211901813
0.5 0.75
0.52880134739994678 0.75576858054577833
0.57509575815593084 0.76479519167676591
0.60333333333333339 0.77000000000000002
0.5 0.75
0.52880134739994678 0.75576858054577833
0.57509575815593084 0.76479519167676591
0.60333333333333339 0.77000000000000002
0.5 0.77303276685416833
0.52874104524704868 0.77874104524704857
0.57494109586014275 0.78767329623514615
0.60312426230651994 0.7928236958273549
0.5 0.81030056647916493
0.52839223747319053 0.81566003709818713
0.5740464775339148 0.82404647753391469
0.60191492572505101 0.82888215887088257
0.5 0.83333333333333337
0.52802850415058911 0.83832907062975404
0.57311357832510423 0.84614634517927267
0.60065384140902212 0.85065384140902212
0.5 0.83333333333333337
0.52802850415058911 0.83832907062975404
0.57311357832510423 0.84614634517927267
0.60065384140902212 0.85065384140902212
0.5 0.85636610018750181
0.52756032443536238 0.86089365776869564
0.57191279616197344 0.86797832987031021
0.59903063545216184 0.87206340230633028
0.5 0.89363389981249819
0.5266073638751072 0.89720849683343706
0.56946865344133668 0.90280198677466994
0.5957266664681371 0.90602723294730181
0.5 0.91666666666666663
0.52591705712705761 0.9195509569395558
0.56769816231754788 0.92406426250504958
0.59333333333333338 0.92666666666666664
0.5 0.91666666666666663
0.52591705712705761 0.9195509569395558
0.56769816231754788 0.92406426250504958
0.59333333333333338 0.92666666666666664
0.5 0.93969943352083507
0.52516644822610981 0.94183311489277621
0.565773008897971 0.94517187593964114
0.59073092917171632 0.94709702935921802
0.5 0.97696723314583156
0.52386467989199659 0.97779914618365971
0.56243424785110629 0.97910091451777281
0.58621762360622254 0.97985152341872073
0.5 1
0.52303276685416844 1
0.56030056647916493 1
0.58333333333333337 1
0.59333333333333338 0.92666666666666664
0.61875943332230543 0.92905999980147025
0.65933120193132666 0.9323639687854951
0.68398717474235537 0.93398717474235537
0.59073092917171632 0.94709702935921802
0.61553418714967356 0.9488675204830066
0.6552461294953067 0.95131166320364358
0.67947967851260593 0.95251244536677437
0.58621762360622254 0.97985152341872073
0.60994069720844057 0.98054183016677032
0.64816145739369213 0.98149479072702539
0.67166240396308741 0.98196297044225234
0.58333333333333337 1
0.60636610018750181 1
0.64363389981249819 1
0.66666666666666663 1
0.60065384140902212 0.85065384140902212
0.62783198285210862 0.85479921599794018
0.67082242462406771 0.8605218581449029
0.69666666666666666 0.8633333333333334
0.59903063545216184 0.87206340230633028
0.62582028963513192 0.87582028963513181
0.66827442919347591 0.88100662956847942
0.69385519147823616 0.88355462499907134
0.5957266664681371 0.90602723294730181
0.62172557080652391 0.9089933704315204
0.6630880892601283 0.9130880892601283
0.68813254933127344 0.91509978247710499
0.59333333333333338 0.92666666666666664
0.61875943332230543 0.92905999980147025
0.65933120193132666 0.9323639687854951
0.68398717474235537 0.93398717474235537
0.69666666666666666 0.8633333333333334
0.72188369562882537 0.86551759544132367
0.76124612765637767 0.86761222784387948
0.78464101615137749 0.86797434948471097
0.69385519147823616 0.88355462499907134
0.71886752048300673 0.88553418714967336
0.75803365227627018 0.88743251931794032
0.78139460423765694 0.88776070442515875
0.68813254933127344 0.91509978247710499
0.71272821998940405 0.91666268628106717
0.75149479072702541 0.91816145739369215
0.77478666626960735 0.91842056608210554
0.68398717474235537 0.93398717474235537
0.70828102591255271 0.93524825905838427
0.74675816211901813 0.9364575956398532
0.77000000000000002 0.93666666666666665
0.68398717474235537 0.93398717474235537
0.70828102591255271 0.93524825905838427
0.74675816211901813 0.9364575956398532
0.77000000000000002 0.93666666666666665
0.67947967851260593 0.95251244536677437
0.70344534457558505 0.95344534457558483
0.74160776252680938 0.95433996290181289
0.76479519167676591 0.95449462519760098
0.67166240396308741 0.98196297044225234
0.69505890413985727 0.98232670376485365
0.73267551153871169 0.98267551153871169
0.75576858054577833 0.98273581369160989
0.66666666666666663 1
0.68969943352083507 1
0.72696723314583156 1
0.75 1
0.77000000000000002 0.93666666666666665
0.79282369582735501 0.9364575956398532
0.82888215887088257 0.93524825905838427
0.85065384140902212 0.93398717474235537
0.76479519167676591 0.95449462519760098
0.78767329623514615 0.95433996290181267
0.8240464775339148 0.95344534457558494
0.84614634517927267 0.95251244536677437
0.75576858054577833 0.98273581369160989
0.77874104524704868 0.98267551153871169
0.81566003709818713 0.98232670376485365
0.83832907062975415 0.98196297044225234
0.75 1
0.77303276685416844 1
0.81030056647916493 1
0.83333333333333337 1
0.78464101615137749 0.86797434948471097
0.80731166136471455 0.86761222784387948
0.84248482858715523 0.86551759544132367
0.8633333333333334 0.8633333333333334
0.78139460423765694 0.88776070442515875
0.80409918598460695 0.88743251931794032
0.8394686534413367 0.88553418714967347
0.8605218581449029 0.88355462499907134
0.77478666626960735 0.91842056608210554
0.7975603244353624 0.91816145739369215
0.83332935294773391 0.91666268628106717
0.85479921599794018 0.91509978247710499
0.77000000000000002 0.93666666666666665
0.79282369582735501 0.9364575956398532
0.82888215887088257 0.93524825905838427
0.85065384140902212 0.93398717474235537
0.8633333333333334 0.8633333333333334
0.88355462499907134 0.8605218581449029
0.91509978247710499 0.85479921599794018
0.93398717474235537 0.85065384140902212
0.8605218581449029 0.88355462499907134
0.88100662956847942 0.88100662956847953
0.9130880892601283 0.87582028963513181
0.9323639687854951 0.87206340230633028
0.85479921599794018 0.91509978247710499
0.87582028963513181 0.9130880892601283
0.9089933704315204 0.9089933704315204
0.92905999980147036 0.90602723294730192
0.85065384140902212 0.93398717474235537
0.87206340230633028 0.9323639687854951
0.90602723294730192 0.92905999980147036
0.92666666666666664 0.92666666666666664
0.85065384140902212 0.93398717474235537
0.87206340230633028 0.9323639687854951
0.90602723294730192 0.92905999980147036
0.92666666666666664 0.92666666666666664
0.84614634517927267 0.95251244536677437
0.86797832987031021 0.95131166320364347
0.90280198677466994 0.94886752048300682
0.92406426250504958 0.94709702935921802
0.83832907062975415 0.98196297044225234
0.86089365776869564 0.98149479072702539
0.89720849683343706 0.98054183016677032
0.9195509569395558 0.97985152341872073
0.83333333333333337 1
0.85636610018750181 1
0.89363389981249819 1
0.91666666666666663 1
0.92666666666666664 0.92666666666666664
0.94709702935921802 0.92406426250504958
0.97985152341872073 0.9195509569395558
1 0.91666666666666663
0.92406426250504958 0.94709702935921802
0.94517187593964114 0.94517187593964092
0.97910091451777292 0.94183311489277644
1 0.93969943352083507
0.9195509569395558 0.97985152341872073
0.94183311489277644 0.97910091451777281
0.97779914618365971 0.97779914618365971
1 0.97696723314583156
0.91666666666666663 1
0.93969943352083507 1
0.97696723314583156 1
1 1
0.93398717474235537 0.85065384140902212
0.95251244536677437 0.84614634517927267
0.98196297044225234 0.83832907062975415
1 0.83333333333333337
0.9323639687854951 0.87206340230633028
0.95131166320364369 0.86797832987031032
0.9814947907270255 0.86089365776869564
1 0.85636610018750181
0.92905999980147036 0.90602723294730192
0.94886752048300682 0.90280198677466994
0.98054183016677032 0.89720849683343706
1 0.89363389981249819
0.92666666666666664 0.92666666666666664
0.94709702935921802 0.92406426250504958
0.97985152341872073 0.9195509569395558
1 0.91666666666666663
0.93666666666666665 0.77000000000000002
0.95449462519760098 0.76479519167676591
0.98273581369160989 0.75576858054577833
1 0.75
0.9364575956398532 0.7928236958273549
0.95433996290181289 0.78767329623514615
0.9826755115387118 0.77874104524704857
1 0.77303276685416833
0.93524825905838427 0.82888215887088257
0.95344534457558494 0.8240464775339148
0.98232670376485365 0.81566003709818702
1 0.81030056647916493
0.93398717474235537 0.85065384140902212
0.95251244536677437 0.84614634517927267
0.98196297044225234 0.83832907062975415
1 0.83333333333333337
0.93398717474235537 0.68398717474235537
0.95251244536677437 0.67947967851260593
0.98196297044225234 0.67166240396308741
1 0.66666666666666663
0.93524825905838427 0.70828102591255271
0.95344534457558494 0.70344534457558494
0.98232670376485376 0.69505890413985727
1 0.68969943352083507
0.9364575956398532 0.74675816211901813
0.95433996290181289 0.74160776252680938
0.98267551153871169 0.7326755115387118
1 0.72696723314583156
0.93666666666666665 0.77000000000000002
0.95449462519760098 0.76479519167676591
0.98273581369160989 0.75576858054577833
1 0.75
0.8633333333333334 0.69666666666666666
0.88355462499907134 0.69385519147823616
0.91509978247710499 0.68813254933127344
0.93398717474235537 0.68398717474235537
0.86551759544132367 0.72188369562882537
0.88553418714967336 0.71886752048300684
0.91666268628106717 0.71272821998940405
0.93524825905838427 0.70828102591255271
0.86761222784387948 0.76124612765637767
0.88743251931794032 0.75803365227627018
0.91816145739369215 0.75149479072702552
0.9364575956398532 0.74675816211901813
0.86797434948471097 0.78464101615137749
0.88776070442515875 0.78139460423765694
0.91842056608210554 0.77478666626960735
0.93666666666666665 0.77000000000000002
0.86797434948471097 0.78464101615137749
0.88776070442515875 0.78139460423765694
0.91842056608210554 0.77478666626960735
0.93666666666666665 0.77000000000000002
0.86761222784387948 0.80731166136471444
0.88743251931794032 0.80409918598460706
0.91816145739369215 0.79756032443536229
0.9364575956398532 0.7928236958273549
0.86551759544132367 0.84248482858715523
0.88553418714967336 0.8394686534413367
0.91666268628106717 0.8333293529477338
0.93524825905838427 0.82888215887088257
0.8633333333333334 0.8633333333333334
0.88355462499907134 0.8605218581449029
0.91509978247710499 0.85479921599794018
0.93398717474235537 0.85065384140902212
0.79000000000000004 0.79000000000000004
0.8126146248005417 0.78958185794637326
0.84746375126260021 0.78716318478343528
0.86797434948471097 0.78464101615137749
0.78958185794637326 0.81261462480054159
0.81220085381634 0.81220085381634
0.84707526400248379 0.80980746437748719
0.86761222784387948 0.80731166136471444
0.78716318478343528 0.84746375126260021
0.8098074643774873 0.84707526400248379
0.8448281240603589 0.84482812406035879
0.86551759544132367 0.84248482858715523
0.78464101615137749 0.86797434948471097
0.80731166136471455 0.86761222784387948
0.84248482858715523 0.86551759544132367
0.8633333333333334 0.8633333333333334
0.78464101615137749 0.70130768281804412
0.80731166136471455 0.70094556117721274
0.84248482858715523 0.69885092877465693
0.8633333333333334 0.69666666666666666
0.78716318478343528 0.72686261830427035
0.80980746437748719 0.72647413104415393
0.8448281240603589 0.72422699110202904
0.86551759544132367 0.72188369562882537
0.78958185794637326 0.76654909109220482
0.81220085381634011 0.76613532010800323
0.84707526400248379 0.76374193066915042
0.86761222784387948 0.76124612765637767
0.79000000000000004 0.79000000000000004
0.8126146248005417 0.78958185794637326
0.84746375126260021 0.78716318478343528
0.86797434948471097 0.78464101615137749
0.77000000000000002 0.60333333333333339
0.79282369582735501 0.60312426230651994
0.82888215887088257 0.60191492572505101
0.85065384140902212 0.60065384140902212
0.77478666626960735 0.63115276645710916
0.79756032443536229 0.63089365776869577
0.83332935294773391 0.62939488665607068
0.85479921599794018 0.62783198285210862
0.78139460423765694 0.67502850405015513
0.80409918598460706 0.67470031894293681
0.83946865344133659 0.67280198677466985
0.8605218581449029 0.67082242462406771
0.78464101615137749 0.70130768281804412
0.80731166136471455 0.70094556117721274
0.84248482858715523 0.69885092877465693
0.8633333333333334 0.69666666666666666
0.75 0.5
0.77303276685416844 0.5
0.81030056647916493 0.5
0.83333333333333337 0.5
0.75576858054577833 0.52880134739994678
0.77874104524704857 0.52874104524704868
0.81566003709818713 0.52839223747319064
0.83832907062975404 0.52802850415058911
0.76479519167676591 0.57509575815593084
0.78767329623514626 0.57494109586014275
0.8240464775339148 0.5740464775339148
0.84614634517927267 0.57311357832510423
0.77000000000000002 0.60333333333333339
0.79282369582735501 0.60312426230651994
0.82888215887088257 0.60191492572505101
0.85065384140902212 0.60065384140902212
0.83333333333333337 0.5
0.85636610018750181 0.5
0.89363389981249819 0.5
0.91666666666666663 0.5
0.83832907062975404 0.52802850415058911
0.86089365776869553 0.52756032443536238
0.89720849683343706 0.52660736387510731
0.9195509569395558 0.52591705712705761
0.84614634517927267 0.57311357832510423
0.86797832987031021 0.57191279616197344
0.90280198677466994 0.56946865344133668
0.92406426250504958 0.56769816231754788
0.85065384140902212 0.60065384140902212
0.87206340230633028 0.59903063545216184
0.90602723294730192 0.5957266664681371
0.92666666666666664 0.59333333333333338
0.85065384140902212 0.60065384140902212
0.87206340230633028 0.59903063545216184
0.90602723294730192 0.5957266664681371
0.92666666666666664 0.59333333333333338
0.85479921599794018 0.62783198285210862
0.8758202896351317 0.62582028963513192
0.9089933704315204 0.62172557080652391
0.92905999980147025 0.61875943332230543
0.8605218581449029 0.67082242462406771
0.88100662956847942 0.66827442919347591
0.9130880892601283 0.6630880892601283
0.9323639687854951 0.65933120193132666
0.8633333333333334 0.69666666666666666
0.88355462499907134 0.69385519147823616
0.91509978247710499 0.68813254933127344
0.93398717474235537 0.68398717474235537
0.92666666666666664 0.59333333333333338
0.94709702935921802 0.59073092917171632
0.97985152341872073 0.58621762360622254
1 0.58333333333333337
0.92905999980147025 0.61875943332230543
0.94886752048300682 0.61553418714967356
0.98054183016677043 0.60994069720844057
1 0.60636610018750181
0.9323639687854951 0.65933120193132666
0.95131166320364358 0.6552461294953067
0.98149479072702539 0.64816145739369213
1 0.64363389981249819
0.93398717474235537 0.68398717474235537
0.95251244536677437 0.67947967851260593
0.98196297044225234 0.67166240396308741
1 0.66666666666666663
0.91666666666666663 0.5
0.93969943352083507 0.5
0.97696723314583156 0.5
1 0.5
0.9195509569395558 0.52591705712705761
0.94183311489277644 0.52516644822610981
0.97779914618365982 0.5238646798919967
1 0.52303276685416844
0.92406426250504958 0.56769816231754788
0.94517187593964114 0.565773008897971
0.97910091451777281 0.56243424785110629
1 0.56030056647916493
0.92666666666666664 0.59333333333333338
0.94709702935921802 0.59073092917171632
0.97985152341872073 0.58621762360622254
1 0.58333333333333337
0.90666666666666662 0.40666666666666668
0.93230183768245212 0.40926907082828373
0.97408294287294239 0.41378237639377752
1 0.41666666666666669
0.90926907082828368 0.43230183768245217
0.934226991102029 0.434226991102029
0.97483355177389019 0.43756575214889376
1 0.43969943352083513
0.91378237639377746 0.47408294287294239
0.93756575214889371 0.47483355177389025
0.97613532010800319 0.47613532010800325
1 0.47696723314583156
0.91666666666666663 0.5
0.93969943352083507 0.5
0.97696723314583156 0.5
1 0.5
0.81601282525764463 0.39934615859097794
0.84066879806867334 0.40096936454783821
0.88124056667769457 0.40427333353186301
0.90666666666666662 0.40666666666666668
0.82052032148739407 0.42688642167489577
0.84475387050469297 0.42808720383802651
0.88446581285032644 0.43053134655866337
0.90926907082828368 0.43230183768245217
0.8283375960369127 0.47197149584941084
0.85183854260630776 0.47243967556463762
0.89005930279155931 0.47339263612489263
0.91378237639377746 0.47408294287294239
0.83333333333333337 0.5
0.85636610018750181 0.5
0.89363389981249819 0.5
0.91666666666666663 0.5
0.80333333333333334 0.30333333333333329
0.82917757537593229 0.30614480852176379
0.87216801714789138 0.31186745066872651
0.89934615859097788 0.31601282525764451
0.80614480852176384 0.32917757537593217
0.83172557080652376 0.33172557080652387
0.87417971036486808 0.33691191073987159
0.90096936454783816 0.34066879806867323
0.81186745066872656 0.37216801714789144
0.83691191073987159 0.37417971036486813
0.87827442919347598 0.37827442919347593
0.90427333353186301 0.38124056667769457
0.81601282525764463 0.39934615859097794
0.84066879806867334 0.40096936454783821
0.88124056667769457 0.40427333353186301
0.90666666666666662 0.40666666666666668
0.89934615859097788 0.31601282525764451
0.92688642167489577 0.32052032148739396
0.97197149584941078 0.32833759603691259
1 0.33333333333333331
0.90096936454783816 0.34066879806867323
0.92808720383802645 0.34475387050469314
0.97243967556463762 0.35183854260630776
1 0.35636610018750176
0.90427333353186301 0.38124056667769457
0.93053134655866332 0.38446581285032655
0.97339263612489257 0.39005930279155926
1 0.39363389981249824
0.90666666666666662 0.40666666666666668
0.93230183768245212 0.40926907082828373
0.97408294287294239 0.41378237639377752
1 0.41666666666666669
0.89666666666666661 0.22999999999999998
0.92490424184406916 0.23520480832323409
0.97119865260005322 0.24423141945422167
1 0.25
0.89687573769348006 0.25324183788098181
0.92505890413985725 0.25839223747319068
0.97125895475295132 0.2673244884612882
1 0.27303276685416844
0.89808507427494899 0.29171897408744718
0.9259535224660852 0.296554655424415
0.97160776252680925 0.30494109586014262
1 0.31030056647916487
0.89934615859097788 0.31601282525764451
0.92688642167489577 0.32052032148739396
0.97197149584941078 0.32833759603691259
1 0.33333333333333331
0.79869231718195577 0.21535898384862245
0.82497149594984487 0.218605395762343
0.86884723354289084 0.22521333373039265
0.89666666666666661 0.22999999999999998
0.79905443882278726 0.23875387234362228
0.82529968105706286 0.24196634772372977
0.86910634223130423 0.24850520927297448
0.89687573769348006 0.25324183788098181
0.80114907122534307 0.27811630437117463
0.82719801322532993 0.28113247951699316
0.8706051133439292 0.28727178001059583
0.89808507427494899 0.29171897408744718
0.80333333333333334 0.30333333333333329
0.82917757537593229 0.30614480852176379
0.87216801714789138 0.31186745066872651
0.89934615859097788 0.31601282525764451
0.70999999999999996 0.20999999999999999
0.73345090890779518 0.2104181420536268
0.77313738169572965 0.2128368152165647
0.79869231718195577 0.21535898384862245
0.71041814205362674 0.23345090890779524
0.73386467989199666 0.23386467989199672
0.77352586895584607 0.23625806933084958
0.79905443882278726 0.23875387234362228
0.71283681521656472 0.27313738169572954
0.73625806933084958 0.27352586895584602
0.77577300889797096 0.27577300889797096
0.80114907122534307 0.27811630437117463
0.71535898384862251 0.29869231718195577
0.73875387234362222 0.29905443882278715
0.77811630437117463 0.30114907122534307
0.80333333333333334 0.30333333333333329
0.63202565051528914 0.21535898384862245
0.65253624873739979 0.2128368152165647
0.6873853751994583 0.2104181420536268
0.70999999999999996 0.20999999999999999
0.63238777215612052 0.2387538723436223
0.65292473599751621 0.23625806933084958
0.68779914618365989 0.23386467989199675
0.71041814205362674 0.23345090890779524
0.63448240455867633 0.27811630437117463
0.6551718759396411 0.27577300889797096
0.69019253562251259 0.27352586895584602
0.71283681521656472 0.27313738169572954
0.6366666666666666 0.30333333333333334
0.65751517141284477 0.30114907122534307
0.69268833863528545 0.29905443882278715
0.71535898384862251 0.29869231718195577
0.6366666666666666 0.30333333333333334
0.65751517141284477 0.30114907122534307
0.69268833863528545 0.29905443882278715
0.71535898384862251 0.29869231718195577
0.6394781418550971 0.32917757537593217
0.66053134655866341 0.32719801322532999
0.69590081401539294 0.32529968105706303
0.71860539576234295 0.32497149594984476
0.64520078400205982 0.37216801714789144
0.66667064705226609 0.37060511334392926
0.70243967556463749 0.36910634223130423
0.72521333373039265 0.36884723354289095
0.64934615859097788 0.39934615859097794
0.67111784112911743 0.39808507427494905
0.70717630417264499 0.39687573769348006
0.72999999999999998 0.39666666666666667
0.71535898384862251 0.29869231718195577
0.73875387234362222 0.29905443882278715
0.77811630437117463 0.30114907122534307
0.80333333333333334 0.30333333333333329
0.71860539576234295 0.32497149594984476
0.74196634772372971 0.32529968105706303
0.78113247951699316 0.32719801322532999
0.80614480852176384 0.32917757537593217
0.72521333373039265 0.36884723354289095
0.74850520927297448 0.36910634223130434
0.78727178001059595 0.3706051133439292
0.81186745066872656 0.37216801714789144
0.72999999999999998 0.39666666666666667
0.75324183788098176 0.39687573769348006
0.79171897408744729 0.39808507427494905
0.81601282525764463 0.39934615859097794
0.72999999999999998 0.39666666666666667
0.75324183788098176 0.39687573769348006
0.79171897408744729 0.39808507427494905
0.81601282525764463 0.39934615859097794
0.73520480832323409 0.42490424184406922
0.75839223747319051 0.42505890413985731
0.79655465542441506 0.4259535224660852
0.82052032148739407 0.42688642167489577
0.74423141945422167 0.47119865260005328
0.7673244884612882 0.47125895475295132
0.80494109586014273 0.47160776252680936
0.8283375960369127 0.47197149584941084
0.75 0.5
0.77303276685416844 0.5
0.81030056647916493 0.5
0.83333333333333337 0.5
0.64934615859097788 0.39934615859097794
0.67111784112911743 0.39808507427494905
0.70717630417264499 0.39687573769348006
0.72999999999999998 0.39666666666666667
0.65385365482072733 0.42688642167489577
0.6759535224660852 0.4259535224660852
0.71232670376485374 0.42505890413985731
0.73520480832323409 0.42490424184406922
0.66167092937024596 0.47197149584941084
0.68433996290181287 0.47160776252680936
0.72125895475295121 0.47125895475295132
0.74423141945422167 0.47119865260005328
0.66666666666666663 0.5
0.68969943352083507 0.5
0.72696723314583156 0.5
0.75 0.5
0.57333333333333336 0.40666666666666668
0.59397276705269819 0.40427333353186301
0.62793659769366972 0.40096936454783821
0.64934615859097788 0.39934615859097794
0.57593573749495042 0.43230183768245217
0.59719801322533006 0.43053134655866337
0.63202167012968968 0.42808720383802651
0.65385365482072733 0.42688642167489577
0.5804490430604442 0.47408294287294239
0.60279150316656283 0.47339263612489269
0.63910634223130425 0.47243967556463762
0.66167092937024596 0.47197149584941084
0.58333333333333337 0.5
0.60636610018750181 0.5
0.64363389981249819 0.5
0.66666666666666663 0.5
0.5 0.41666666666666669
0.52014847658127927 0.41378237639377752
0.55290297064078198 0.40926907082828373
0.57333333333333336 0.40666666666666668
0.5 0.43969943352083513
0.52089908548222708 0.43756575214889376
0.55482812406035886 0.434226991102029
0.57593573749495042 0.43230183768245217
0.5 0.47696723314583156
0.52220085381634007 0.47613532010800325
0.55816688510722356 0.47483355177389025
0.5804490430604442 0.47408294287294239
0.5 0.5
0.52303276685416844 0.5
0.56030056647916493 0.5
0.58333333333333337 0.5
0.5 0.33333333333333331
0.51803702955774777 0.32833759603691259
0.54748755463322563 0.32052032148739396
0.56601282525764463 0.31601282525764451
0.5 0.35636610018750176
0.5185052092729745 0.35183854260630776
0.54868833679635642 0.34475387050469314
0.5676360312145049 0.34066879806867323
0.5 0.39363389981249824
0.51945816983322946 0.39005930279155937
0.55113247951699318 0.38446581285032649
0.57094000019852975 0.38124056667769457
0.5 0.41666666666666669
0.52014847658127927 0.41378237639377752
0.55290297064078198 0.40926907082828373
0.57333333333333336 0.40666666666666668
0.56601282525764463 0.31601282525764451
0.58490021752289501 0.31186745066872651
0.61644537500092866 0.30614480852176379
0.6366666666666666 0.30333333333333334
0.5676360312145049 0.34066879806867323
0.5869119107398717 0.33691191073987159
0.61899337043152047 0.33172557080652393
0.6394781418550971 0.32917757537593217
0.57094000019852975 0.38124056667769457
0.59100662956847949 0.37827442919347604
0.62417971036486808 0.37417971036486808
0.64520078400205982 0.37216801714789144
0.57333333333333336 0.40666666666666668
0.59397276705269819 0.40427333353186301
0.62793659769366972 0.40096936454783821
0.64934615859097788 0.39934615859097794
0.56333333333333335 0.22999999999999998
0.58157943391789446 0.22521333373039268
0.61223929557484125 0.218605395762343
0.63202565051528914 0.21535898384862245
0.5635424043601468 0.25324183788098181
0.58183854260630785 0.24850520927297451
0.61256748068205957 0.24196634772372982
0.63238777215612052 0.2387538723436223
0.56475174094161573 0.29171897408744724
0.58333731371893272 0.28727178001059589
0.61446581285032653 0.28113247951699316
0.63448240455867633 0.27811630437117463
0.56601282525764463 0.31601282525764451
0.58490021752289501 0.31186745066872651
0.61644537500092866 0.30614480852176379
0.6366666666666666 0.30333333333333334
0.5 0.25
0.51726418630839011 0.24423141945422172
0.54550537480239902 0.23520480832323412
0.56333333333333335 0.22999999999999998
0.5 0.27303276685416844
0.5173244884612882 0.26732448846128826
0.54566003709818711 0.25839223747319068
0.5635424043601468 0.25324183788098181
0.5 0.31030056647916487
0.51767329623514613 0.30494109586014267
0.54655465542441506 0.296554655424415
0.56475174094161573 0.29171897408744724
0.5 0.33333333333333331
0.51803702955774777 0.32833759603691259
0.54748755463322563 0.32052032148739396
0.56601282525764463 0.31601282525764451
0.5 0.16666666666666666
0.51803702955774777 0.16167092937024596
0.54748755463322563 0.15385365482072733
0.56601282525764463 0.14934615859097788
0.5 0.18969943352083507
0.51767329623514624 0.18433996290181284
0.54655465542441506 0.1759535224660852
0.56475174094161573 0.17111784112911743
0.5 0.22696723314583156
0.51732448846128809 0.22125895475295138
0.54566003709818711 0.2123267037648538
0.5635424043601468 0.20717630417264496
0.5 0.25
0.51726418630839011 0.24423141945422172
0.54550537480239902 0.23520480832323412
0.56333333333333335 0.22999999999999998
0.56601282525764463 0.14934615859097788
0.58490021752289501 0.14520078400205985
0.61644537500092866 0.13947814185509713
0.6366666666666666 0.13666666666666666
0.56475174094161573 0.17111784112911743
0.58333731371893283 0.16667064705226609
0.61446581285032653 0.16053134655866338
0.63448240455867633 0.15751517141284482
0.5635424043601468 0.20717630417264496
0.58183854260630774 0.20243967556463766
0.61256748068205957 0.19590081401539294
0.63238777215612052 0.19268833863528542
0.56333333333333335 0.22999999999999998
0.58157943391789446 0.22521333373039268
0.61223929557484125 0.218605395762343
0.63202565051528914 0.21535898384862245
0.57333333333333336 0.073333333333333334
0.59397276705269819 0.070940000198529668
0.62793659769366972 0.067636031214504844
0.64934615859097788 0.06601282525764457
0.57094000019852975 0.093972767052698095
0.5910066295684796 0.091006629568479533
0.62417971036486808 0.086911910739871673
0.64520078400205982 0.084900217522894963
0.5676360312145049 0.12793659769366975
0.58691191073987159 0.12417971036486813
0.61899337043152047 0.11899337043152046
0.6394781418550971 0.11644537500092869
0.56601282525764463 0.14934615859097788
0.58490021752289501 0.14520078400205985
0.61644537500092866 0.13947814185509713
0.6366666666666666 0.13666666666666666
0.5 0.083333333333333329
0.52014847658127927 0.080449043060444189
0.55290297064078198 0.075935737494950389
0.57333333333333336 0.073333333333333334
0.5 0.10636610018750176
0.51945816983322957 0.10279150316656287
0.55113247951699318 0.09719801322533006
0.57094000019852975 0.093972767052698095
0.5 0.14363389981249824
0.51850520927297439 0.1391063422313043
0.54868833679635642 0.13202167012968968
0.5676360312145049 0.12793659769366975
0.5 0.16666666666666666
0.51803702955774777 0.16167092937024596
0.54748755463322563 0.15385365482072733
0.56601282525764463 0.14934615859097788
0.5 0
0.52303276685416844 0
0.56030056647916493 0
0.58333333333333337 0
0.5 0.02303276685416842
0.52220085381634018 0.022200853816340124
0.55816688510722356 0.020899085482227103
0.5804490430604442 0.02014847658127927
0.5 0.060300566479164909
0.52089908548222708 0.058166885107223593
0.55482812406035886 0.054828124060358842
0.57593573749495042 0.052902970640781963
0.5 0.083333333333333329
0.52014847658127927 0.080449043060444189
0.55290297064078198 0.075935737494950389
0.57333333333333336 0.073333333333333334
0.58333333333333337 0
0.60636610018750181 0
0.64363389981249819 0
0.66666666666666663 0
0.5804490430604442 0.02014847658127927
0.60279150316656294 0.019458169833229521
0.63910634223130425 0.018505209272974495
0.66167092937024596 0.018037029557747712
0.57593573749495042 0.052902970640781963
0.59719801322533006 0.051132479516993207
0.63202167012968968 0.048688336796356362
0.65385365482072733 0.047487554633225564
0.57333333333333336 0.073333333333333334
0.59397276705269819 0.070940000198529668
0.62793659769366972 0.067636031214504844
0.64934615859097788 0.06601282525764457
0.66666666666666663 0
0.68969943352083507 0
0.72696723314583156 0
0.75 0
0.66167092937024596 0.018037029557747712
0.68433996290181287 0.017673296235146196
0.72125895475295132 0.017324488461288205
0.74423141945422167 0.01726418630839012
0.65385365482072733 0.047487554633225564
0.6759535224660852 0.046554655424415031
0.71232670376485363 0.04566003709818714
0.73520480832323409 0.04550537480239901
0.64934615859097788 0.06601282525764457
0.67111784112911743 0.064751740941615676
0.70717630417264499 0.063542404360146729
0.72999999999999998 0.063333333333333325
0.75 0
0.77303276685416833 0
0.81030056647916493 0
0.83333333333333337 0
0.74423141945422167 0.01726418630839012
0.76732448846128809 0.017324488461288205
0.80494109586014273 0.017673296235146196
0.8283375960369127 0.018037029557747712
0.73520480832323409 0.04550537480239901
0.75839223747319062 0.045660037098187126
0.79655465542441506 0.046554655424415031
0.82052032148739407 0.047487554633225557
0.72999999999999998 0.063333333333333325
0.75324183788098176 0.063542404360146729
0.79171897408744729 0.064751740941615676
0.81601282525764463 0.066012825257644556
0.72999999999999998 0.063333333333333325
0.75324183788098176 0.063542404360146729
0.79171897408744729 0.064751740941615676
0.81601282525764463 0.066012825257644556
0.72521333373039265 0.081579433917894434
0.74850520927297437 0.081838542606307824
0.78727178001059595 0.083337313718932771
0.81186745066872656 0.08490021752289495
0.71860539576234306 0.11223929557484125
0.74196634772372982 0.11256748068205957
0.78113247951699327 0.11446581285032652
0.80614480852176384 0.11644537500092869
0.71535898384862251 0.13202565051528911
0.73875387234362222 0.13238777215612052
0.77811630437117463 0.13448240455867638
0.80333333333333334 0.13666666666666666
0.64934615859097788 0.06601282525764457
0.67111784112911743 0.064751740941615676
0.70717630417264499 0.063542404360146729
0.72999999999999998 0.063333333333333325
0.64520078400205982 0.084900217522894963
0.66667064705226609 0.083337313718932771
0.7024396755646376 0.081838542606307824
0.72521333373039265 0.081579433917894434
0.6394781418550971 0.11644537500092869
0.66053134655866341 0.11446581285032652
0.69590081401539283 0.11256748068205957
0.71860539576234306 0.11223929557484125
0.6366666666666666 0.13666666666666666
0.65751517141284477 0.13448240455867638
0.69268833863528545 0.13238777215612052
0.71535898384862251 0.13202565051528911
0.6366666666666666 0.13666666666666666
0.65751517141284477 0.13448240455867638
0.69268833863528545 0.13238777215612052
0.71535898384862251 0.13202565051528911
0.63448240455867633 0.15751517141284482
0.6551718759396411 0.15517187593964116
0.6901925356225127 0.15292473599751621
0.71283681521656472 0.15253624873739977
0.63238777215612052 0.19268833863528542
0.65292473599751621 0.1901925356225127
0.68779914618365978 0.18779914618365987
0.71041814205362674 0.18738537519945836
0.63202565051528914 0.21535898384862245
0.65253624873739979 0.2128368152165647
0.6873853751994583 0.2104181420536268
0.70999999999999996 0.20999999999999999
0.71535898384862251 0.13202565051528911
0.73875387234362222 0.13238777215612052
0.77811630437117463 0.13448240455867638
0.80333333333333334 0.13666666666666666
0.71283681521656472 0.15253624873739977
0.73625806933084947 0.15292473599751621
0.77577300889797096 0.15517187593964116
0.80114907122534307 0.15751517141284482
0.71041814205362674 0.18738537519945836
0.73386467989199677 0.18779914618365984
0.77352586895584607 0.1901925356225127
0.79905443882278726 0.19268833863528539
0.70999999999999996 0.20999999999999999
0.73345090890779518 0.2104181420536268
0.77313738169572965 0.2128368152165647
0.79869231718195577 0.21535898384862245
0.80333333333333334 0.13666666666666666
0.82917757537593229 0.1394781418550971
0.87216801714789138 0.14520078400205982
0.89934615859097788 0.14934615859097788
0.80114907122534307 0.15751517141284482
0.82719801322532982 0.16053134655866333
0.8706051133439292 0.16667064705226606
0.89808507427494899 0.1711178411291174
0.79905443882278726 0.19268833863528539
0.82529968105706308 0.19590081401539289
0.86910634223130423 0.2024396755646376
0.89687573769348006 0.20717630417264493
0.79869231718195577 0.21535898384862245
0.82497149594984487 0.218605395762343
0.86884723354289084 0.22521333373039265
0.89666666666666661 0.22999999999999998
0.89934615859097788 0.14934615859097788
0.92688642167489577 0.1538536548207273
0.97197149584941078 0.16167092937024594
1 0.16666666666666666
0.89808507427494899 0.1711178411291174
0.9259535224660852 0.1759535224660852
0.97160776252680936 0.18433996290181281
1 0.18969943352083507
0.89687573769348006 0.20717630417264493
0.92505890413985725 0.21232670376485377
0.97125895475295121 0.22125895475295132
1 0.22696723314583156
0.89666666666666661 0.22999999999999998
0.92490424184406916 0.23520480832323409
0.97119865260005322 0.24423141945422167
1 0.25
0.90666666666666662 0.07333333333333332
0.93230183768245212 0.075935737494950376
0.97408294287294239 0.080449043060444161
1 0.083333333333333329
0.90427333353186301 0.093972767052698081
0.93053134655866332 0.097198013225330046
0.97339263612489269 0.10279150316656284
1 0.10636610018750176
0.90096936454783816 0.12793659769366972
0.92808720383802656 0.13202167012968966
0.97243967556463751 0.13910634223130428
1 0.14363389981249824
0.89934615859097788 0.14934615859097788
0.92688642167489577 0.1538536548207273
0.97197149584941078 0.16167092937024594
1 0.16666666666666666
0.81601282525764463 0.066012825257644556
0.84066879806867334 0.067636031214504844
0.88124056667769457 0.070940000198529654
0.90666666666666662 0.07333333333333332
0.81186745066872656 0.08490021752289495
0.83691191073987148 0.086911910739871645
0.87827442919347598 0.091006629568479519
0.90427333353186301 0.093972767052698081
0.80614480852176384 0.11644537500092869
0.83172557080652387 0.11899337043152045
0.87417971036486808 0.12417971036486811
0.90096936454783816 0.12793659769366972
0.80333333333333334 0.13666666666666666
0.82917757537593229 0.1394781418550971
0.87216801714789138 0.14520078400205982
0.89934615859097788 0.14934615859097788
0.83333333333333337 0
0.85636610018750181 0
0.89363389981249819 0
0.91666666666666663 0
0.8283375960369127 0.018037029557747712
0.85183854260630765 0.018505209272974485
0.89005930279155931 0.019458169833229517
0.91378237639377746 0.020148476581279266
0.82052032148739407 0.047487554633225557
0.84475387050469319 0.048688336796356348
0.88446581285032644 0.051132479516993193
0.90926907082828368 0.052902970640781956
0.81601282525764463 0.066012825257644556
0.84066879806867334 0.067636031214504844
0.88124056667769457 0.070940000198529654
0.90666666666666662 0.07333333333333332
0.91666666666666663 0
0.93969943352083507 0
0.97696723314583156 0
1 0
0.91378237639377746 0.020148476581279266
0.93756575214889371 0.0208990854822271
0.9761353201080033 0.02220085381634012
1 0.02303276685416842
0.90926907082828368 0.052902970640781956
0.934226991102029 0.054828124060358828
0.97483355177389008 0.058166885107223579
1 0.060300566479164902
0.90666666666666662 0.07333333333333332
0.93230183768245212 0.075935737494950376
0.97408294287294239 0.080449043060444161
1 0.083333333333333329
